<svg width="16" height="16" viewBox="0 0 16 16" fill="none" xmlns="http://www.w3.org/2000/svg">
<path d="M2.22642 2.70409V1.71354C2.22642 1.31946 2.54588 1 2.93995 1H5.45283H14.2865C14.6805 1 15 1.31946 15 1.71354V14.2799C15 14.6765 14.6765 14.997 14.2799 14.9934L5.45283 14.9122L2.93339 14.889C2.54189 14.8854 2.22642 14.567 2.22642 14.1755V13.4428H1.62434C1.27953 13.4428 1 13.1633 1 12.8185C1 12.4737 1.27953 12.1941 1.62434 12.1941H2.22642V10.1815H1.5362C1.24007 10.1815 1 9.94147 1 9.64533C1 9.34919 1.24007 9.10913 1.5362 9.10913H2.22642V7.03778H1.55089C1.24664 7.03778 1 6.79113 1 6.48688C1 6.18263 1.24664 5.93599 1.55089 5.93599H2.22642V3.87933H1.58762C1.26309 3.87933 1 3.61624 1 3.29171C1 2.96718 1.26309 2.70409 1.58762 2.70409H2.22642Z" fill="#0F252A"/>
<path d="M2.22642 2.70409V1.71354C2.22642 1.31946 2.54588 1 2.93995 1H5.45283M2.22642 2.70409H1.58762C1.26309 2.70409 1 2.96718 1 3.29171V3.29171C1 3.61624 1.26309 3.87933 1.58762 3.87933H2.22642M2.22642 2.70409H3.03502C3.35956 2.70409 3.62264 2.96718 3.62264 3.29171V3.29171C3.62264 3.61624 3.35956 3.87933 3.03502 3.87933H2.22642M2.22642 13.4428V14.1755C2.22642 14.567 2.54189 14.8854 2.93339 14.889L5.45283 14.9122M2.22642 13.4428H1.62434C1.27953 13.4428 1 13.1633 1 12.8185V12.8185C1 12.4737 1.27953 12.1941 1.62434 12.1941H2.22642M2.22642 13.4428H2.9983C3.34311 13.4428 3.62264 13.1633 3.62264 12.8185V12.8185C3.62264 12.4737 3.34311 12.1941 2.9983 12.1941H2.22642M2.22642 12.1941V10.1815M2.22642 10.1815H1.5362C1.24007 10.1815 1 9.94147 1 9.64533V9.64533C1 9.34919 1.24007 9.10913 1.5362 9.10913H2.22642M2.22642 10.1815H3.08644C3.38258 10.1815 3.62264 9.94147 3.62264 9.64533V9.64533C3.62264 9.34919 3.38258 9.10913 3.08644 9.10913H2.22642M2.22642 9.10913V7.03778M2.22642 7.03778H1.55089C1.24664 7.03778 1 6.79113 1 6.48688V6.48688C1 6.18263 1.24664 5.93599 1.55089 5.93599H2.22642M2.22642 7.03778H3.07175C3.376 7.03778 3.62264 6.79113 3.62264 6.48688V6.48688C3.62264 6.18263 3.376 5.93599 3.07175 5.93599H2.22642M2.22642 5.93599V3.87933M5.45283 14.9122L14.2799 14.9934C14.6765 14.997 15 14.6765 15 14.2799V1.71354C15 1.31946 14.6805 1 14.2865 1H5.45283M5.45283 14.9122V1M7.37544 12.6936H13.2849C13.3777 12.6936 13.4528 12.6184 13.4528 12.5257V10.3494C13.4528 10.2567 13.3777 10.1815 13.2849 10.1815H7.37544C7.28271 10.1815 7.20755 10.2567 7.20755 10.3494V12.5257C7.20755 12.6184 7.28271 12.6936 7.37544 12.6936Z" stroke="white" stroke-width="0.5"/>
</svg>
