<svg width="40" height="37" viewBox="0 0 40 37" fill="none" xmlns="http://www.w3.org/2000/svg">
<path d="M5.281 18.9231H1V32.1416H6.93331V30.2639M5.281 18.9231H6.93331V20.6505M5.281 18.9231C4.75526 15.6685 4.9956 8.13795 10.1628 4.05223C15.3301 -0.0334943 22.6303 0.84774 25.6345 1.79907M34.2716 11.7881C35.2229 14.6671 35.6836 21.6569 29.9155 26.5838M29.9155 26.5838V28.912L29.8865 29.5129M29.9155 26.5838V16.3695H23.4565M23.4565 16.3695V24.5559M23.4565 16.3695V7.58217H16.6219V12.6893M23.4565 24.5559L16.6219 21.4015M23.4565 24.5559C24.8083 25.5323 25.4092 28.912 21.8041 29.5129M16.6219 21.4015V12.6893M16.6219 21.4015L14.5189 20.6505H9.6371M16.6219 12.6893H9.6371V20.6505M9.6371 20.6505H6.93331M6.93331 20.6505V30.2639M21.8041 29.5129L15.9459 27.3348M21.8041 29.5129C22.455 29.8634 24.2375 30.5043 26.1602 30.2639C26.9765 30.1619 28.3723 29.8667 29.8865 29.5129M6.93331 30.2639H10.7637C13.818 31.6409 20.302 34.575 21.8041 35.296C23.3062 36.017 25.3341 36.047 26.1602 35.9719L37.5011 32.8926C40.0847 28.8069 37.2758 27.9857 35.5484 28.0859C34.2086 28.446 31.9388 29.0333 29.8865 29.5129M34.2716 2.70034C33.9111 3.18101 29.4148 8.20805 27.2117 10.6615M28.4134 2.24971C29.321 2.3013 29.9918 3.14925 29.8865 4.05223C29.7937 4.84778 29.213 5.43348 28.4134 5.47923C27.5622 5.52792 26.8602 4.89905 26.7611 4.05223C26.6501 3.10377 27.46 2.19551 28.4134 2.24971ZM32.6193 7.58217C33.6399 7.62602 34.4235 8.59985 34.2716 9.61001C34.1419 10.4724 33.4905 11.0746 32.6193 11.1121C31.7038 11.1516 30.9532 10.5161 30.8168 9.61001C30.659 8.56226 31.5607 7.5367 32.6193 7.58217Z" stroke="black"/>
</svg>
