<svg width="153" height="51" viewBox="0 0 153 51" fill="none" xmlns="http://www.w3.org/2000/svg">
<path d="M29.379 23.8631C29.379 25.4217 29.0297 26.725 28.331 27.7731C27.6323 28.7942 26.7052 29.6004 25.5496 30.1916C24.421 30.7828 23.1848 31.1993 21.8412 31.4412C20.4976 31.683 19.1808 31.804 17.8909 31.804C16.8966 31.804 15.9426 31.6562 15.0289 31.3606C14.1153 31.0918 13.1881 30.7828 12.2476 30.4335C11.7908 30.2722 11.3339 30.1782 10.8771 30.1513C10.4471 30.0975 9.99028 30.0707 9.50657 30.0707C9.42596 29.4257 9.34534 28.7942 9.26472 28.1761C9.1841 27.5312 9.09005 26.8862 8.98255 26.2413C8.92881 25.7845 8.86163 25.3411 8.78101 24.9111C8.70039 24.4811 8.66008 24.0512 8.66008 23.6212C8.66008 23.245 8.72726 22.9359 8.86163 22.6941C9.02286 22.4522 9.30503 22.3313 9.70812 22.3313C10.0843 22.3313 10.3665 22.4119 10.5546 22.5732C10.7696 22.7075 10.9308 22.9494 11.0383 23.2987C11.2264 23.7824 11.3742 24.2796 11.4817 24.7902C11.6161 25.3008 11.7773 25.8113 11.9654 26.3219C12.4223 27.5849 13.1613 28.5927 14.1824 29.3451C15.2305 30.0975 16.4532 30.4738 17.8506 30.4738C19.7317 30.4738 21.1694 29.9363 22.1637 28.8614C23.1848 27.7596 23.6954 26.2816 23.6954 24.4274C23.6954 23.3525 23.467 22.4657 23.0102 21.767C22.5533 21.0414 21.9621 20.4233 21.2366 19.9128C20.511 19.4022 19.7317 18.9185 18.8986 18.4616C18.1193 18.0317 17.3266 17.6286 16.5204 17.2523C15.7142 16.8761 14.9214 16.4865 14.1421 16.0834C13.2822 15.6265 12.4357 15.0622 11.6027 14.3904C10.7965 13.6917 10.1246 12.8989 9.58719 12.0121C9.07661 11.0985 8.82132 10.1176 8.82132 9.06958C8.82132 7.29597 9.27815 5.8314 10.1918 4.67587C11.1324 3.52034 12.3282 2.66041 13.7794 2.09608C15.2574 1.53175 16.7891 1.24958 18.3746 1.24958C19.3958 1.24958 20.3766 1.39739 21.3172 1.69299C22.2846 1.96171 23.2251 2.28419 24.1388 2.66041C24.4344 2.7679 24.7031 2.84852 24.945 2.90226C25.2137 2.95601 25.4959 2.98288 25.7915 2.98288C26.0065 2.98288 26.208 2.98288 26.3961 2.98288C26.5842 2.95601 26.7724 2.92914 26.9605 2.90226C27.0411 3.76219 27.1351 4.62212 27.2426 5.48205C27.3501 6.34198 27.4576 7.20191 27.5651 8.06184C27.592 8.19621 27.6054 8.34401 27.6054 8.50525C27.6323 8.63961 27.6457 8.77397 27.6457 8.90834C27.6457 9.28456 27.5651 9.6339 27.4039 9.95638C27.2426 10.252 26.9336 10.3998 26.4768 10.3998C26.1274 10.3998 25.8721 10.3192 25.7109 10.1579C25.5496 9.99669 25.4018 9.76827 25.2675 9.47267C24.945 8.63961 24.636 7.81999 24.3404 7.0138C24.0448 6.20762 23.6148 5.45518 23.0505 4.75649C22.4593 4.00405 21.7203 3.45316 20.8335 3.10381C19.9467 2.72759 19.033 2.53948 18.0924 2.53948C17.1788 2.53948 16.4129 2.79477 15.7948 3.30536C15.1767 3.78907 14.7199 4.42058 14.4243 5.19989C14.1287 5.9792 13.9809 6.78539 13.9809 7.61844C13.9809 8.90834 14.3168 9.91607 14.9886 10.6416C15.6873 11.3403 16.5473 11.9853 17.5684 12.5765C18.1327 12.8721 18.6971 13.1677 19.2614 13.4633C19.8526 13.732 20.4304 14.0007 20.9947 14.2695C22.3383 14.8875 23.6417 15.64 24.9047 16.5268C26.1946 17.3867 27.2561 18.4213 28.0891 19.6306C28.9491 20.813 29.379 22.2238 29.379 23.8631Z" fill="#7B7C7D"/>
<path d="M56.2552 30.7156C56.2552 31.1993 56.0268 31.4412 55.5699 31.4412C55.1937 31.4412 54.8041 31.4143 54.401 31.3606C54.0247 31.3337 53.6485 31.3068 53.2723 31.28C52.7349 31.2531 52.184 31.2531 51.6196 31.28C51.0822 31.28 50.5447 31.28 50.0073 31.28C49.3623 31.28 48.7174 31.3068 48.0724 31.3606C47.4543 31.4412 46.8363 31.4815 46.2182 31.4815C46.057 31.4815 45.8957 31.4143 45.7345 31.28C45.6001 31.1187 45.5329 30.9709 45.5329 30.8366C45.5329 30.3797 45.7614 30.1513 46.2182 30.1513C46.4869 30.1513 46.7422 30.1647 46.9841 30.1916C47.2259 30.2185 47.4812 30.2319 47.7499 30.2319C48.153 30.2319 48.3546 30.0169 48.3546 29.587C48.3546 27.5178 48.3546 25.462 48.3546 23.4197C48.3815 21.3504 48.3949 19.2947 48.3949 17.2523C48.3949 16.5268 48.368 15.734 48.3143 14.8741C48.2605 13.9873 48.0993 13.208 47.8306 12.5362C47.5887 11.9181 47.2797 11.5016 46.9035 11.2866C46.5272 11.0716 46.0166 10.9641 45.3717 10.9641C44.7805 10.9641 44.1624 11.1791 43.5175 11.6091C42.8994 12.039 42.3485 12.563 41.8648 13.1811C41.3811 13.7723 41.0183 14.3232 40.7764 14.8338V29.7482C40.7764 30.0438 40.9646 30.1916 41.3408 30.1916C41.6095 30.1916 41.8648 30.1782 42.1067 30.1513C42.3485 30.0975 42.6038 30.0707 42.8725 30.0707C43.0069 30.0707 43.1413 30.1513 43.2756 30.3125C43.4369 30.4469 43.5175 30.5813 43.5175 30.7156C43.5175 31.1993 43.2891 31.4412 42.8322 31.4412C42.456 31.4412 42.0663 31.4143 41.6633 31.3606C41.287 31.3337 40.9108 31.3203 40.5346 31.3203C40.2659 31.3203 39.9971 31.3203 39.7284 31.3203C39.4597 31.3203 39.1775 31.3203 38.8819 31.3203H36.7455C36.2349 31.3203 35.7244 31.3471 35.2138 31.4009C34.7032 31.4546 34.1926 31.4815 33.682 31.4815C33.2521 31.4815 33.0371 31.2396 33.0371 30.7559C33.0371 30.326 33.2655 30.111 33.7223 30.111C33.9911 30.111 34.2464 30.1244 34.4882 30.1513C34.7301 30.1782 34.9854 30.1916 35.2541 30.1916C35.5766 30.1916 35.7378 30.0438 35.7378 29.7482V4.07123C35.7378 3.8025 35.6975 3.48003 35.6169 3.10381C35.5631 2.70072 35.3481 2.49917 34.9719 2.49917C34.6226 2.49917 34.2598 2.52604 33.8836 2.57979C33.5342 2.63354 33.1849 2.66041 32.8355 2.66041C32.7012 2.66041 32.5802 2.59323 32.4727 2.45886C32.3653 2.3245 32.3115 2.19013 32.3115 2.05577C32.3115 1.78704 32.4862 1.62581 32.8355 1.57206C33.9373 1.3302 35.0391 1.14209 36.1409 1.00773C37.2695 0.846493 38.3713 0.604638 39.4462 0.282163C39.6612 0.201546 39.8762 0.161237 40.0912 0.161237C40.4674 0.161237 40.6555 0.33591 40.6555 0.685255V12.3749C41.4348 11.6494 42.3485 11.0044 43.3965 10.4401C44.4446 9.87576 45.5061 9.59359 46.581 9.59359C48.4083 9.59359 49.8191 9.82201 50.8134 10.2788C51.8346 10.7357 52.5467 11.4881 52.9498 12.5362C53.3798 13.5842 53.5948 15.0085 53.5948 16.8089V29.587C53.5948 29.9901 53.7829 30.1916 54.1591 30.1916C54.401 30.1916 54.6428 30.1782 54.8847 30.1513C55.1265 30.0975 55.3684 30.0707 55.6102 30.0707C55.7984 30.0707 55.9462 30.1379 56.0536 30.2722C56.188 30.4066 56.2552 30.5544 56.2552 30.7156Z" fill="#7B7C7D"/>
<path d="M75.5932 20.6786C75.5932 19.7918 75.526 18.7841 75.3917 17.6554C75.2842 16.4999 75.0423 15.3847 74.6661 14.3098C74.2899 13.2349 73.739 12.3481 73.0134 11.6494C72.3147 10.9238 71.3608 10.561 70.1515 10.561C69.0497 10.561 68.1629 10.9104 67.4911 11.6091C66.8192 12.3077 66.2952 13.1811 65.919 14.2292C65.5697 15.2772 65.3278 16.3655 65.1934 17.4942C65.0591 18.596 64.9919 19.55 64.9919 20.3562C64.9919 21.243 65.0456 22.2641 65.1531 23.4197C65.2875 24.5483 65.5428 25.6501 65.919 26.725C66.2952 27.7999 66.8461 28.6867 67.5717 29.3854C68.2973 30.0841 69.2647 30.4335 70.474 30.4335C71.6026 30.4335 72.5028 30.0975 73.1747 29.4257C73.8734 28.727 74.3974 27.8671 74.7467 26.8459C75.0961 25.7979 75.3245 24.723 75.432 23.6212C75.5395 22.4925 75.5932 21.5117 75.5932 20.6786ZM81.0753 20.8802C81.0753 22.9494 80.605 24.7902 79.6645 26.4025C78.7239 27.988 77.434 29.2376 75.7948 30.1513C74.1824 31.065 72.3416 31.5218 70.2724 31.5218C68.2032 31.5218 66.3758 31.0381 64.7903 30.0707C63.2049 29.1033 61.9553 27.7999 61.0416 26.1607C60.1548 24.5214 59.7114 22.6807 59.7114 20.6383C59.7114 18.5154 60.1548 16.6208 61.0416 14.9547C61.9284 13.2617 63.178 11.9315 64.7903 10.9641C66.4027 9.96981 68.2838 9.47267 70.4336 9.47267C72.7984 9.47267 74.7602 9.95638 76.3188 10.9238C77.9043 11.8643 79.0867 13.1946 79.866 14.9144C80.6722 16.6074 81.0753 18.596 81.0753 20.8802Z" fill="#7B7C7D"/>
<path d="M101.235 20.5577C101.235 19.9934 101.221 19.3216 101.194 18.5422C101.167 17.7361 101.087 16.9164 100.952 16.0834C100.845 15.2234 100.643 14.4307 100.348 13.7051C100.079 12.9527 99.6894 12.3481 99.1788 11.8912C98.6683 11.4344 98.0099 11.206 97.2037 11.206C96.1288 11.206 95.242 11.515 94.5433 12.1331C93.8715 12.7511 93.3206 13.5305 92.8906 14.471V24.9917C92.8906 25.6635 93.0115 26.4025 93.2534 27.2087C93.5221 27.988 93.9252 28.6599 94.4627 29.2242C95.0001 29.7616 95.6719 30.0304 96.4781 30.0304C97.6605 30.0304 98.5742 29.7079 99.2191 29.0629C99.891 28.3911 100.361 27.5581 100.63 26.5638C100.926 25.5695 101.1 24.5349 101.154 23.46C101.208 22.3582 101.235 21.3908 101.235 20.5577ZM106.757 19.9934C106.757 22.1701 106.394 24.1049 105.669 25.7979C104.943 27.464 103.828 28.7808 102.323 29.7482C100.818 30.6888 98.9101 31.159 96.5991 31.159C96.0079 31.159 95.3495 31.0247 94.6239 30.7559C93.9252 30.4603 93.334 30.1647 92.8503 29.8691C92.8503 30.4603 92.8369 31.0515 92.81 31.6427C92.81 32.2608 92.8234 32.8789 92.8503 33.497V36.762C92.8503 37.0039 92.8906 37.2457 92.9712 37.4876C93.0787 37.7294 93.2803 37.8504 93.5759 37.8504C93.7908 37.8504 94.0058 37.8369 94.2208 37.81C94.4627 37.81 94.6911 37.81 94.9061 37.81C95.2823 37.81 95.4704 38.0116 95.4704 38.4147C95.4704 38.8447 95.2688 39.0596 94.8658 39.0596C94.1133 39.0596 93.3609 39.0328 92.6084 38.979C91.856 38.9253 91.0901 38.8984 90.3108 38.8984C89.5315 38.8984 88.7388 38.9253 87.9326 38.979C87.1264 39.0328 86.3336 39.0596 85.5543 39.0596C85.3662 39.0596 85.2318 38.979 85.1512 38.8178C85.0706 38.6834 85.0303 38.549 85.0303 38.4147C85.0303 38.0116 85.2318 37.81 85.6349 37.81C85.8499 37.81 86.0649 37.81 86.2799 37.81C86.4949 37.8369 86.6964 37.8504 86.8845 37.8504C87.1801 37.8504 87.3951 37.7429 87.5295 37.5279C87.6638 37.3398 87.731 37.1114 87.731 36.8426C87.731 32.9192 87.731 28.9958 87.731 25.0723C87.7579 21.122 87.7713 17.1852 87.7713 13.2617C87.7713 12.9661 87.731 12.6437 87.6504 12.2943C87.5698 11.945 87.3279 11.7703 86.9248 11.7703C86.6561 11.7703 86.3874 11.7837 86.1187 11.8106C85.8768 11.8375 85.6215 11.8509 85.3528 11.8509C85.1915 11.8509 85.0034 11.824 84.7884 11.7703C84.6003 11.6897 84.5063 11.5419 84.5063 11.3269C84.5063 11.1657 84.56 11.0447 84.6675 10.9641C84.775 10.8835 84.8959 10.8297 85.0303 10.8029C85.3259 10.6954 85.6349 10.6282 85.9574 10.6013C86.2799 10.5745 86.5889 10.5341 86.8845 10.4804C88.255 10.2385 89.5718 9.91607 90.8348 9.51298C90.9423 9.45923 91.0498 9.41892 91.1573 9.39205C91.2648 9.3383 91.3723 9.31143 91.4798 9.31143C91.6679 9.31143 91.8291 9.47267 91.9635 9.79514C92.1247 10.1176 92.2457 10.467 92.3263 10.8432C92.4338 11.2194 92.5144 11.4881 92.5681 11.6494C92.9443 11.4344 93.4818 11.1925 94.1805 10.9238C94.8792 10.6282 95.5779 10.3729 96.2766 10.1579C97.0021 9.91607 97.5665 9.79514 97.9696 9.79514C99.3401 9.79514 100.563 10.0907 101.638 10.6819C102.713 11.2731 103.626 12.0659 104.379 13.0602C105.158 14.0276 105.749 15.116 106.152 16.3252C106.555 17.5345 106.757 18.7572 106.757 19.9934Z" fill="#7B7C7D"/>
<path d="M121.687 30.7962C121.687 31.2262 121.472 31.4412 121.042 31.4412C120.263 31.4412 119.47 31.4009 118.664 31.3203C117.858 31.2665 117.052 31.2396 116.246 31.2396C115.44 31.2396 114.62 31.2665 113.787 31.3203C112.981 31.4009 112.174 31.4412 111.368 31.4412C111.18 31.4412 111.046 31.374 110.965 31.2396C110.885 31.0784 110.844 30.9306 110.844 30.7962C110.844 30.3663 111.046 30.1513 111.449 30.1513C111.718 30.1513 111.973 30.1647 112.215 30.1916C112.457 30.2185 112.698 30.2319 112.94 30.2319C113.263 30.2319 113.464 30.1244 113.545 29.9094C113.652 29.6945 113.706 29.4526 113.706 29.1839V13.1811C113.706 12.9124 113.679 12.6168 113.626 12.2943C113.572 11.945 113.357 11.7703 112.981 11.7703C112.631 11.7703 112.269 11.7972 111.892 11.8509C111.516 11.9047 111.14 11.9315 110.764 11.9315C110.602 11.9315 110.441 11.8912 110.28 11.8106C110.146 11.73 110.078 11.5956 110.078 11.4075C110.078 11.0582 110.253 10.8297 110.602 10.7223C110.898 10.6685 111.207 10.6282 111.53 10.6013C111.879 10.5476 112.201 10.5073 112.497 10.4804C113.437 10.346 114.351 10.1848 115.238 9.99669C116.152 9.7817 117.065 9.56672 117.979 9.35174C118.06 9.35174 118.14 9.35174 118.221 9.35174C118.301 9.32487 118.369 9.31143 118.422 9.31143C118.825 9.31143 119.027 9.47267 119.027 9.79514C119.027 13.0199 119.014 16.2581 118.987 19.5097C118.96 22.7344 118.946 25.9591 118.946 29.1839C118.946 29.6676 119.054 29.9766 119.269 30.111C119.484 30.2185 119.753 30.2588 120.075 30.2319C120.424 30.205 120.774 30.1916 121.123 30.1916C121.499 30.1916 121.687 30.3932 121.687 30.7962ZM119.148 3.10381C119.148 3.93687 118.839 4.66243 118.221 5.28051C117.63 5.89858 116.904 6.20762 116.044 6.20762C115.211 6.20762 114.486 5.89858 113.867 5.28051C113.249 4.66243 112.94 3.93687 112.94 3.10381C112.94 2.24388 113.249 1.51831 113.867 0.927112C114.486 0.309037 115.211 0 116.044 0C116.904 0 117.63 0.309037 118.221 0.927112C118.839 1.51831 119.148 2.24388 119.148 3.10381Z" fill="#7B7C7D"/>
<path d="M137.156 27.0072C137.075 25.7442 137.022 24.4811 136.995 23.2181C136.968 21.9282 136.968 20.6383 136.995 19.3484C135.893 19.5365 134.818 19.8859 133.77 20.3965C132.749 20.8802 131.902 21.5386 131.231 22.3716C130.559 23.2047 130.223 24.2661 130.223 25.556C130.223 26.0935 130.29 26.6713 130.424 27.2893C130.586 27.9074 130.854 28.4314 131.231 28.8614C131.634 29.2645 132.171 29.466 132.843 29.466C133.327 29.466 133.837 29.3317 134.375 29.0629C134.912 28.7673 135.423 28.4314 135.907 28.0552C136.417 27.679 136.834 27.3297 137.156 27.0072ZM145.46 29.3854C145.46 29.4929 145.406 29.6138 145.299 29.7482C145.218 29.8826 145.137 29.9901 145.057 30.0707C144.224 31.0381 143.149 31.5218 141.832 31.5218C140.676 31.5218 139.749 31.2665 139.051 30.7559C138.352 30.2453 137.814 29.4526 137.438 28.3777C136.578 29.2914 135.651 30.0169 134.657 30.5544C133.69 31.0918 132.547 31.3606 131.231 31.3606C130.29 31.3606 129.336 31.159 128.369 30.7559C127.428 30.326 126.635 29.7213 125.99 28.942C125.372 28.1627 125.063 27.2625 125.063 26.2413C125.063 25.2201 125.319 24.3199 125.829 23.5406C126.367 22.7344 127.038 22.0491 127.845 21.4848C128.651 20.8936 129.47 20.4099 130.304 20.0337C131.378 19.5768 132.48 19.2275 133.609 18.9856C134.738 18.7169 135.866 18.4482 136.995 18.1795V18.0182C136.995 17.5345 136.981 16.8896 136.955 16.0834C136.955 15.2503 136.874 14.4307 136.713 13.6245C136.551 12.7915 136.283 12.0928 135.907 11.5284C135.53 10.9372 134.979 10.6416 134.254 10.6416C133.421 10.6416 132.668 10.8835 131.997 11.3672C131.352 11.8509 130.895 12.4959 130.626 13.302C130.572 13.5439 130.532 13.7858 130.505 14.0276C130.478 14.2426 130.438 14.471 130.384 14.7129C130.33 15.1428 130.075 15.4384 129.618 15.5997C129.188 15.734 128.785 15.8012 128.409 15.8012C127.952 15.8012 127.509 15.7072 127.079 15.519C126.649 15.3041 126.434 14.9144 126.434 14.3501C126.434 14.1351 126.461 13.947 126.514 13.7858C126.595 13.5976 126.676 13.4095 126.756 13.2214C127.186 12.2003 127.831 11.4478 128.691 10.9641C129.551 10.4804 130.492 10.1579 131.513 9.99669C132.561 9.83545 133.555 9.75483 134.496 9.75483C136.699 9.75483 138.513 10.346 139.937 11.5284C141.362 12.7108 142.074 14.4576 142.074 16.7686V22.8553C142.047 23.6078 142.034 24.3871 142.034 25.1933C142.06 25.9726 142.101 26.7519 142.154 27.5312C142.208 27.988 142.316 28.4314 142.477 28.8614C142.638 29.2645 143.001 29.466 143.565 29.466C143.941 29.466 144.251 29.3854 144.492 29.2242C144.761 29.0629 145.003 28.9823 145.218 28.9823C145.325 28.9823 145.393 29.0361 145.419 29.1436C145.446 29.2511 145.46 29.3317 145.46 29.3854Z" fill="#7B7C7D"/>
<path d="M34.2741 45.4919V44.6258H36.8316V45.4919H34.2741ZM34.2741 47.7634V46.9218H36.7499V47.7634H34.2741ZM33.6776 44.6258H34.6255V50.3453H33.6776V44.6258Z" fill="#7B7C7D"/>
<path d="M41.3187 48.8746L41.4985 48.0575H44.154L44.3419 48.8746H41.3187ZM42.814 46.2436L41.9152 48.3435L41.8989 48.5559L41.1063 50.3453H40.0196L42.814 44.3071L45.6084 50.3453H44.5217L43.7455 48.605L43.7209 48.368L42.814 46.2436Z" fill="#7B7C7D"/>
<path d="M49.9179 48.5069C50.0432 48.7248 50.1767 48.9182 50.3183 49.087C50.4654 49.2505 50.626 49.3785 50.8004 49.4711C50.9747 49.5582 51.1708 49.6018 51.3887 49.6018C51.6501 49.6018 51.8626 49.531 52.026 49.3894C52.1894 49.2477 52.2711 49.0653 52.2711 48.8419C52.2711 48.6295 52.2193 48.4606 52.1159 48.3353C52.0124 48.2046 51.868 48.0957 51.6828 48.0085C51.503 47.9159 51.2933 47.826 51.0536 47.7389C50.912 47.6898 50.7541 47.6245 50.5797 47.5428C50.4054 47.4556 50.2393 47.3494 50.0813 47.2241C49.9234 47.0934 49.7926 46.9354 49.6891 46.7502C49.5856 46.5595 49.5339 46.3308 49.5339 46.0638C49.5339 45.7588 49.6129 45.4919 49.7708 45.2631C49.9288 45.0289 50.1412 44.8491 50.4082 44.7238C50.6805 44.5931 50.9883 44.5277 51.3315 44.5277C51.6692 44.5277 51.9633 44.5877 52.2139 44.7075C52.4645 44.8273 52.6742 44.9799 52.8431 45.1651C53.0174 45.3503 53.1535 45.5436 53.2516 45.7452L52.4672 46.1864C52.3964 46.0448 52.3065 45.9141 52.1976 45.7942C52.0886 45.6689 51.9606 45.5709 51.8135 45.5001C51.6719 45.4238 51.5058 45.3857 51.3151 45.3857C51.0482 45.3857 50.8521 45.4483 50.7268 45.5736C50.6015 45.6934 50.5389 45.8351 50.5389 45.9985C50.5389 46.1456 50.5825 46.279 50.6696 46.3989C50.7622 46.5132 50.9039 46.6222 51.0945 46.7257C51.2852 46.8292 51.533 46.9354 51.838 47.0443C52.0069 47.1043 52.1758 47.1805 52.3446 47.2731C52.5189 47.3657 52.6769 47.4828 52.8185 47.6245C52.9602 47.7606 53.0718 47.9213 53.1535 48.1065C53.2407 48.2917 53.2843 48.5096 53.2843 48.7602C53.2843 49.0271 53.2325 49.2668 53.129 49.4792C53.0255 49.6917 52.8839 49.8714 52.7041 50.0185C52.5244 50.1601 52.3201 50.2691 52.0913 50.3453C51.868 50.427 51.6338 50.4679 51.3887 50.4679C51.0509 50.4679 50.7377 50.4025 50.449 50.2718C50.1658 50.1356 49.9179 49.9559 49.7055 49.7325C49.493 49.5092 49.3242 49.2668 49.1989 49.0053L49.9179 48.5069Z" fill="#7B7C7D"/>
<path d="M57.9261 47.7225V46.8319H62.0033V47.7225H57.9261ZM61.3824 44.6258H62.3465V50.3453H61.3824V44.6258ZM57.5421 44.6258H58.5062V50.3453H57.5421V44.6258Z" fill="#7B7C7D"/>
<path d="M66.8906 44.6258H67.8629V50.3453H66.8906V44.6258Z" fill="#7B7C7D"/>
<path d="M73.1036 47.4856C73.1036 47.8778 73.1853 48.2291 73.3487 48.5396C73.5176 48.8446 73.7491 49.0843 74.0432 49.2586C74.3374 49.4329 74.6724 49.5201 75.0483 49.5201C75.4296 49.5201 75.7646 49.4329 76.0533 49.2586C76.3474 49.0843 76.5762 48.8446 76.7396 48.5396C76.9085 48.2291 76.9929 47.8778 76.9929 47.4856C76.9929 47.0934 76.9112 46.7447 76.7478 46.4397C76.5844 46.1292 76.3556 45.8868 76.0614 45.7125C75.7727 45.5382 75.435 45.451 75.0483 45.451C74.6724 45.451 74.3374 45.5382 74.0432 45.7125C73.7491 45.8868 73.5176 46.1292 73.3487 46.4397C73.1853 46.7447 73.1036 47.0934 73.1036 47.4856ZM72.0823 47.4856C72.0823 47.0552 72.1558 46.6603 72.3029 46.3008C72.4499 45.9413 72.6569 45.6308 72.9238 45.3693C73.1962 45.1024 73.5121 44.8954 73.8717 44.7484C74.2366 44.6013 74.6288 44.5277 75.0483 44.5277C75.4786 44.5277 75.8735 44.6013 76.233 44.7484C76.5925 44.8954 76.9057 45.1024 77.1727 45.3693C77.445 45.6308 77.6547 45.9413 77.8018 46.3008C77.9489 46.6603 78.0224 47.0552 78.0224 47.4856C78.0224 47.9104 77.9489 48.3054 77.8018 48.6703C77.6547 49.0353 77.4477 49.3512 77.1808 49.6181C76.9139 49.8851 76.598 50.0948 76.233 50.2473C75.8735 50.3944 75.4786 50.4679 75.0483 50.4679C74.6234 50.4679 74.2284 50.3944 73.8635 50.2473C73.4985 50.0948 73.1826 49.8851 72.9157 49.6181C72.6542 49.3512 72.4499 49.0353 72.3029 48.6703C72.1558 48.3054 72.0823 47.9104 72.0823 47.4856Z" fill="#7B7C7D"/>
<path d="M86.4037 44.6258H87.3515V50.6313L83.1762 46.5051V50.3453H82.2284V44.3398L86.4037 48.4661V44.6258Z" fill="#7B7C7D"/>
<path d="M97.9901 47.7225V46.8319H102.067V47.7225H97.9901ZM101.446 44.6258H102.41V50.3453H101.446V44.6258ZM97.6061 44.6258H98.5702V50.3453H97.6061V44.6258Z" fill="#7B7C7D"/>
<path d="M106.914 44.6258H107.878V48.4252C107.878 48.7793 107.97 49.0653 108.156 49.2831C108.346 49.4956 108.627 49.6018 108.997 49.6018C109.362 49.6018 109.64 49.4956 109.831 49.2831C110.021 49.0653 110.117 48.7793 110.117 48.4252V44.6258H111.081V48.4661C111.081 48.782 111.029 49.0653 110.926 49.3158C110.828 49.5609 110.686 49.7707 110.501 49.945C110.316 50.1193 110.095 50.2527 109.839 50.3453C109.583 50.4379 109.302 50.4842 108.997 50.4842C108.692 50.4842 108.412 50.4379 108.156 50.3453C107.9 50.2527 107.676 50.1193 107.486 49.945C107.3 49.7707 107.159 49.5609 107.061 49.3158C106.963 49.0653 106.914 48.782 106.914 48.4661V44.6258Z" fill="#7B7C7D"/>
<path d="M116.32 47.3957V46.9218H117.244C117.423 46.9218 117.581 46.8918 117.718 46.8319C117.854 46.772 117.96 46.6876 118.036 46.5786C118.112 46.4642 118.151 46.328 118.151 46.1701C118.151 45.9304 118.066 45.7452 117.897 45.6145C117.728 45.4837 117.511 45.4184 117.244 45.4184H116.549V49.5528H117.35C117.568 49.5528 117.761 49.5174 117.93 49.4466C118.099 49.3757 118.232 49.2695 118.33 49.1279C118.428 48.9863 118.477 48.8092 118.477 48.5968C118.477 48.4443 118.447 48.3108 118.388 48.1964C118.333 48.0766 118.254 47.9785 118.151 47.9023C118.053 47.8206 117.935 47.7634 117.799 47.7307C117.663 47.6926 117.513 47.6735 117.35 47.6735H116.32V47.1424H117.407C117.685 47.1424 117.946 47.1724 118.191 47.2323C118.437 47.2922 118.654 47.3848 118.845 47.5101C119.041 47.6354 119.194 47.7961 119.303 47.9922C119.412 48.1883 119.466 48.4225 119.466 48.6948C119.466 49.0707 119.376 49.3812 119.196 49.6263C119.022 49.8714 118.78 50.0539 118.469 50.1738C118.164 50.2881 117.81 50.3453 117.407 50.3453H115.585V44.6258H117.309C117.669 44.6258 117.984 44.6775 118.257 44.781C118.535 44.8845 118.75 45.0425 118.902 45.2549C119.06 45.4674 119.139 45.737 119.139 46.0638C119.139 46.3471 119.06 46.5895 118.902 46.791C118.75 46.9871 118.535 47.1369 118.257 47.2404C117.984 47.3439 117.669 47.3957 117.309 47.3957H116.32Z" fill="#7B7C7D"/>
<path d="M27.4189 48.4385H1M128.464 48.4385H151.887" stroke="#7B7C7D" stroke-width="0.737897" stroke-linecap="round"/>
</svg>
