<svg width="150" height="30" viewBox="0 0 150 30" fill="none" xmlns="http://www.w3.org/2000/svg">
<circle cx="135" cy="15" r="15" fill="#E01035"/>
<path d="M142.248 18.7814V20.8745C142.248 21.0688 142.208 21.2611 142.131 21.4391C142.053 21.6172 141.939 21.777 141.795 21.9083C141.652 22.0397 141.483 22.1397 141.299 22.2019C141.115 22.2642 140.92 22.2873 140.727 22.2698C138.58 22.0365 136.517 21.3029 134.706 20.128C133.02 19.0568 131.591 17.6276 130.52 15.9419C129.341 14.1218 128.607 12.0496 128.378 9.89307C128.36 9.70014 128.383 9.50569 128.445 9.32211C128.507 9.13853 128.606 8.96983 128.737 8.82676C128.867 8.68369 129.026 8.56938 129.204 8.49111C129.381 8.41284 129.572 8.37232 129.766 8.37214H131.859C132.198 8.36881 132.526 8.4887 132.783 8.70949C133.039 8.93027 133.207 9.23687 133.254 9.57214C133.343 10.242 133.507 10.8996 133.743 11.5326C133.837 11.7823 133.857 12.0537 133.801 12.3146C133.746 12.5755 133.616 12.815 133.429 13.0047L132.543 13.8907C133.536 15.6374 134.982 17.0836 136.729 18.0768L137.615 17.1907C137.805 17.0032 138.044 16.8739 138.305 16.8183C138.566 16.7626 138.837 16.7829 139.087 16.8768C139.72 17.113 140.378 17.2768 141.048 17.3652C141.386 17.413 141.696 17.5837 141.917 17.8448C142.138 18.1059 142.256 18.4393 142.248 18.7814Z" stroke="white" stroke-linecap="round" stroke-linejoin="round"/>
<circle cx="95" cy="15" r="15" fill="white"/>
<path d="M103.023 11.8605L98.1395 15.3488L103.023 18.8372V11.8605Z" stroke="#7B7C7D" stroke-linecap="round" stroke-linejoin="round"/>
<path d="M96.7442 10.4651H89.0698C88.2992 10.4651 87.6744 11.0898 87.6744 11.8604V18.8372C87.6744 19.6078 88.2992 20.2325 89.0698 20.2325H96.7442C97.5148 20.2325 98.1396 19.6078 98.1396 18.8372V11.8604C98.1396 11.0898 97.5148 10.4651 96.7442 10.4651Z" stroke="#7B7C7D" stroke-linecap="round" stroke-linejoin="round"/>
<circle cx="55" cy="15" r="15" fill="white"/>
<path d="M55.3489 7.67444C54.7938 7.67444 54.2614 7.89495 53.8689 8.28747C53.4764 8.67999 53.2559 9.21236 53.2559 9.76746V15.3489C53.2559 15.904 53.4764 16.4363 53.8689 16.8288C54.2614 17.2214 54.7938 17.4419 55.3489 17.4419C55.904 17.4419 56.4364 17.2214 56.8289 16.8288C57.2214 16.4363 57.4419 15.904 57.4419 15.3489V9.76746C57.4419 9.21236 57.2214 8.67999 56.8289 8.28747C56.4364 7.89495 55.904 7.67444 55.3489 7.67444Z" stroke="#7B7C7D" stroke-linecap="round" stroke-linejoin="round"/>
<path d="M60.2325 13.9535V15.3488C60.2325 16.6441 59.718 17.8863 58.8021 18.8022C57.8862 19.718 56.6441 20.2326 55.3488 20.2326C54.0536 20.2326 52.8114 19.718 51.8955 18.8022C50.9796 17.8863 50.4651 16.6441 50.4651 15.3488V13.9535" stroke="#7B7C7D" stroke-linecap="round" stroke-linejoin="round"/>
<path d="M55.3489 20.2325V23.0232" stroke="#7B7C7D" stroke-linecap="round" stroke-linejoin="round"/>
<path d="M52.5581 23.0233H58.1395" stroke="#7B7C7D" stroke-linecap="round" stroke-linejoin="round"/>
<circle cx="15" cy="15" r="15" fill="#15CB66"/>
<path d="M15.1302 9V22" stroke="white" stroke-linecap="round" stroke-linejoin="round"/>
<path d="M9 15.5H21.2602" stroke="white" stroke-linecap="round" stroke-linejoin="round"/>
</svg>
