<svg width="279" height="304" viewBox="0 0 279 304" fill="none" xmlns="http://www.w3.org/2000/svg">
<path d="M206.914 0.986846C225.807 13.8438 241.831 30.5796 253.956 50.1165C266.08 69.6534 274.036 91.5583 277.311 114.421C280.586 137.283 279.108 160.597 272.971 182.859C266.834 205.122 256.175 225.841 241.68 243.682C227.185 261.522 209.175 276.09 188.811 286.445C168.446 296.801 146.178 302.715 123.441 303.808C100.703 304.9 77.9999 301.146 56.793 292.788C35.5862 284.43 16.3458 271.653 0.310748 255.279L77.1826 177.683C82.5629 183.177 89.0186 187.464 96.1342 190.268C103.25 193.073 110.867 194.332 118.497 193.966C126.126 193.599 133.597 191.615 140.43 188.14C147.263 184.666 153.306 179.778 158.17 173.792C163.033 167.806 166.61 160.854 168.669 153.384C170.728 145.914 171.224 138.092 170.125 130.421C169.026 122.749 166.357 115.4 162.288 108.844C158.22 102.289 152.844 96.6738 146.505 92.3599L206.914 0.986846Z" fill="url(#paint0_linear_49_1098)"/>
<defs>
<linearGradient id="paint0_linear_49_1098" x1="107.117" y1="303.761" x2="87.7375" y2="-15.7393" gradientUnits="userSpaceOnUse">
<stop stop-color="#FFB606" stop-opacity="0.6"/>
<stop offset="1" stop-color="#FFB606" stop-opacity="0"/>
</linearGradient>
</defs>
</svg>
