<svg width="79" height="19" viewBox="0 0 79 19" fill="none" xmlns="http://www.w3.org/2000/svg">
<path d="M8.65893 1.45557C8.80905 0.995847 9.45942 0.995846 9.60954 1.45557L11.0724 5.9355C11.1396 6.14116 11.3314 6.2803 11.5477 6.2803L16.2764 6.2803C16.7613 6.2803 16.9623 6.90138 16.5693 7.1855L12.748 9.94805C12.5719 10.0754 12.4982 10.3019 12.5657 10.5085L14.0263 14.9814C14.1765 15.4417 13.6504 15.8255 13.258 15.5419L9.42717 12.7724C9.25233 12.646 9.01614 12.646 8.8413 12.7724L5.01045 15.5419C4.6181 15.8255 4.09193 15.4417 4.24221 14.9814L5.70281 10.5085C5.77027 10.3019 5.69656 10.0754 5.52045 9.94805L1.69917 7.1855C1.30616 6.90138 1.50715 6.2803 1.99211 6.2803L6.72076 6.2803C6.9371 6.2803 7.12891 6.14116 7.19606 5.93551L8.65893 1.45557Z" fill="#FFB606"/>
<path d="M23.8418 1.45557C23.9919 0.995847 24.6423 0.995846 24.7924 1.45557L26.2553 5.9355C26.3224 6.14116 26.5143 6.2803 26.7306 6.2803L31.4592 6.2803C31.9442 6.2803 32.1452 6.90138 31.7522 7.1855L27.9309 9.94805C27.7548 10.0754 27.6811 10.3019 27.7485 10.5085L29.2091 14.9814C29.3594 15.4417 28.8333 15.8255 28.4409 15.5419L24.6101 12.7724C24.4352 12.646 24.199 12.646 24.0242 12.7724L20.1933 15.5419C19.801 15.8255 19.2748 15.4417 19.4251 14.9814L20.8857 10.5085C20.9532 10.3019 20.8794 10.0754 20.7033 9.94805L16.8821 7.1855C16.489 6.90138 16.69 6.2803 17.175 6.2803L21.9036 6.2803C22.12 6.2803 22.3118 6.14116 22.3789 5.93551L23.8418 1.45557Z" fill="#FFB606"/>
<path d="M39.0247 1.45557C39.1748 0.995847 39.8252 0.995846 39.9753 1.45557L41.4382 5.9355C41.5053 6.14116 41.6971 6.2803 41.9135 6.2803L46.6421 6.2803C47.1271 6.2803 47.3281 6.90138 46.9351 7.1855L43.1138 9.94805C42.9377 10.0754 42.864 10.3019 42.9314 10.5085L44.392 14.9814C44.5423 15.4417 44.0161 15.8255 43.6238 15.5419L39.7929 12.7724C39.6181 12.646 39.3819 12.646 39.2071 12.7724L35.3762 15.5419C34.9839 15.8255 34.4577 15.4417 34.608 14.9814L36.0686 10.5085C36.136 10.3019 36.0623 10.0754 35.8862 9.94805L32.0649 7.1855C31.6719 6.90138 31.8729 6.2803 32.3579 6.2803L37.0865 6.2803C37.3029 6.2803 37.4947 6.14116 37.5618 5.93551L39.0247 1.45557Z" fill="#FFB606"/>
<path d="M54.2076 1.45557C54.3577 0.995847 55.0081 0.995846 55.1582 1.45557L56.6211 5.9355C56.6882 6.14116 56.88 6.2803 57.0964 6.2803L61.825 6.2803C62.31 6.2803 62.511 6.90138 62.1179 7.1855L58.2967 9.94805C58.1206 10.0754 58.0468 10.3019 58.1143 10.5085L59.5749 14.9814C59.7252 15.4417 59.199 15.8255 58.8067 15.5419L54.9758 12.7724C54.801 12.646 54.5648 12.646 54.3899 12.7724L50.5591 15.5419C50.1667 15.8255 49.6406 15.4417 49.7909 14.9814L51.2515 10.5085C51.3189 10.3019 51.2452 10.0754 51.0691 9.94805L47.2478 7.1855C46.8548 6.90138 47.0558 6.2803 47.5408 6.2803L52.2694 6.2803C52.4857 6.2803 52.6776 6.14116 52.7447 5.93551L54.2076 1.45557Z" fill="#FFB606"/>
<path d="M69.3905 1.45557C69.5406 0.995847 70.1909 0.995846 70.3411 1.45557L71.8039 5.9355C71.8711 6.14116 72.0629 6.2803 72.2792 6.2803L77.0079 6.2803C77.4929 6.2803 77.6938 6.90138 77.3008 7.1855L73.4796 9.94805C73.3034 10.0754 73.2297 10.3019 73.2972 10.5085L74.7578 14.9814C74.9081 15.4417 74.3819 15.8255 73.9896 15.5419L70.1587 12.7724C69.9839 12.646 69.7477 12.646 69.5728 12.7724L65.742 15.5419C65.3496 15.8255 64.8235 15.4417 64.9737 14.9814L66.4343 10.5085C66.5018 10.3019 66.4281 10.0754 66.252 9.94805L62.4307 7.1855C62.0377 6.90138 62.2387 6.2803 62.7236 6.2803L67.4523 6.2803C67.6686 6.2803 67.8604 6.14116 67.9276 5.93551L69.3905 1.45557Z" fill="#FFB606"/>
</svg>
