<svg width="98" height="51" viewBox="0 0 98 51" fill="none" xmlns="http://www.w3.org/2000/svg">
<path d="M1.39179 33.9228H0.818909L15.0933 0.504571L15.6184 0.265869L27.649 33.9228H23.591L19.8673 23.4199H5.92712L1.39179 33.9228ZM13.6133 5.66053L6.11808 22.9425H19.7241L13.6133 5.66053Z" fill="#7B7C7D"/>
<path d="M58.4448 15.2086V14.7312H70.2367V15.2086H67.611C65.8923 19.8871 63.0438 24.0883 59.0654 27.812C57.124 29.6262 54.8484 31.1061 52.2386 32.2519C49.6288 33.3658 46.9394 33.9228 44.1705 33.9228C41.5288 33.9228 39.11 33.4136 36.9139 32.3951C35.6409 31.8222 34.511 31.0902 33.5244 30.1991C32.5696 29.2761 31.7739 28.0507 31.1374 26.523C30.5008 24.9635 30.1826 23.1812 30.1826 21.1761C30.1826 17.2614 31.3761 13.9673 33.7631 11.2939C36.1819 8.5886 38.919 7.23596 41.9744 7.23596C47.5123 7.23596 50.3767 9.70254 50.5677 14.6357L58.4926 8.38172L58.8267 8.66817L35.1476 27.2869C35.9432 29.1965 37.0731 30.7083 38.5371 31.8222C40.033 32.9043 41.8948 33.4454 44.1227 33.4454C46.3824 33.4454 48.6262 32.8884 50.8541 31.7745C53.1138 30.6287 55.0712 29.1488 56.7262 27.3346C60.068 23.6427 62.4232 19.6007 63.7917 15.2086H58.4448ZM46.7962 17.6433C46.7644 14.0151 46.3983 11.453 45.6982 9.95715C45.0298 8.46129 43.884 7.71336 42.2609 7.71336C40.6695 7.71336 39.3169 8.14302 38.2029 9.00235C37.1208 9.82985 36.2774 10.9279 35.6727 12.2964C34.5588 14.9381 34.0018 17.8184 34.0018 20.9374L34.0973 23.038C34.2564 24.4702 34.5428 25.7751 34.9566 26.9527L46.7962 17.6433Z" fill="#7B7C7D"/>
<path d="M78.4189 33.9228H74.4565V0.504571H78.4189V15.877H93.9345V0.504571H97.897V33.9228H93.9345V16.3544H78.4189V33.9228Z" fill="#7B7C7D"/>
<rect x="12.759" y="39.5507" width="74.1455" height="11.0221" stroke="#7B7C7D" stroke-width="0.64771"/>
<path d="M18.2205 44.8433H18.386V46.3328H18.2205L18.0996 45.8554C18.0868 45.8045 18.072 45.7684 18.055 45.7472C18.0423 45.7218 18.0147 45.7069 17.9723 45.7027C17.9298 45.6942 17.8577 45.6899 17.7558 45.6899H16.9665V47.1985C16.9665 47.3471 16.9729 47.4362 16.9856 47.4659C16.9984 47.4913 17.0387 47.5062 17.1066 47.5104L17.584 47.5486V47.7141H15.9226V47.5486L16.2727 47.5104C16.3406 47.502 16.3809 47.485 16.3936 47.4595C16.4064 47.4341 16.4127 47.3471 16.4127 47.1985V43.9013C16.4127 43.7527 16.4064 43.6658 16.3936 43.6403C16.3809 43.6148 16.3406 43.5979 16.2727 43.5894L15.9226 43.5575V43.3857H18.8316V44.4232H18.6661L18.4815 43.7549C18.4645 43.6827 18.4391 43.6382 18.4051 43.6212C18.3754 43.6 18.2863 43.5894 18.1378 43.5894H16.9665V45.4862H17.7558C17.8577 45.4862 17.9298 45.4841 17.9723 45.4799C18.0147 45.4714 18.0423 45.4565 18.055 45.4353C18.072 45.4099 18.0868 45.3717 18.0996 45.3207L18.2205 44.8433Z" fill="#7B7C7D"/>
<path d="M21.8797 47.5486V47.7141H20.6703V47.5486L21.014 47.5104C21.0607 47.5062 21.0946 47.4998 21.1159 47.4913C21.1371 47.4786 21.1562 47.4531 21.1731 47.415C21.1944 47.3725 21.2198 47.3004 21.2495 47.1985L22.478 43.3857H22.8791L24.1203 47.1985C24.15 47.3004 24.1734 47.3725 24.1903 47.415C24.2116 47.4531 24.2328 47.4786 24.254 47.4913C24.2752 47.4998 24.307 47.5062 24.3495 47.5104L24.6996 47.5486V47.7141H23.1528V47.5486L23.5029 47.5104C23.5708 47.502 23.6068 47.485 23.6111 47.4595C23.6196 47.4298 23.6005 47.3428 23.5538 47.1985L23.2928 46.3838H21.7397L21.4787 47.1985C21.432 47.3428 21.4108 47.4298 21.415 47.4595C21.4235 47.485 21.4617 47.502 21.5296 47.5104L21.8797 47.5486ZM21.8033 46.1801H23.2292L22.5162 43.9649L21.8033 46.1801Z" fill="#7B7C7D"/>
<path d="M28.2446 47.5741C28.529 47.5741 28.7581 47.5041 28.9321 47.364C29.1103 47.224 29.1994 47.0182 29.1994 46.7466C29.1994 46.5302 29.1337 46.3498 29.0021 46.2055C28.8706 46.057 28.6414 45.9382 28.3147 45.8491L27.8754 45.7218C27.5529 45.6327 27.3068 45.482 27.1371 45.2698C26.9673 45.0576 26.8824 44.7988 26.8824 44.4933C26.8824 44.2896 26.9291 44.0986 27.0225 43.9204C27.1201 43.7421 27.2665 43.5979 27.4617 43.4875C27.6611 43.3772 27.9136 43.322 28.2192 43.322C28.5587 43.322 28.8324 43.3857 29.0403 43.513C29.2482 43.636 29.3925 43.7973 29.4731 43.9968C29.5538 44.1962 29.5729 44.4105 29.5304 44.6397L28.9957 44.7542C29.0509 44.3596 29.0106 44.0562 28.8748 43.844C28.7433 43.6318 28.5141 43.5257 28.1873 43.5257C27.9285 43.5257 27.7248 43.5957 27.5763 43.7358C27.4277 43.8716 27.3535 44.071 27.3535 44.3341C27.3535 44.5421 27.4129 44.7203 27.5317 44.8688C27.6505 45.0131 27.8606 45.1277 28.1619 45.2125L28.6011 45.3398C29.3098 45.5351 29.6641 45.9488 29.6641 46.5811C29.6641 46.806 29.6111 47.0097 29.505 47.1922C29.4031 47.3704 29.2461 47.5126 29.0339 47.6186C28.826 47.7247 28.5629 47.7778 28.2446 47.7778C28.024 47.7778 27.8118 47.7438 27.6081 47.6759C27.4086 47.608 27.2368 47.4913 27.0925 47.3258C26.9525 47.1603 26.8591 46.9312 26.8124 46.6384L27.1943 46.5111C27.2156 46.7912 27.2771 47.0076 27.3789 47.1603C27.4808 47.3131 27.6081 47.4213 27.7609 47.485C27.9136 47.5444 28.0749 47.5741 28.2446 47.5741Z" fill="#7B7C7D"/>
<path d="M36.1749 47.5486V47.7141H34.6409V47.5486L34.991 47.5104C35.0589 47.502 35.0992 47.485 35.1119 47.4595C35.1247 47.4341 35.131 47.3471 35.131 47.1985V45.6327H33.2087V47.1985C33.2087 47.3471 33.215 47.4341 33.2278 47.4595C33.2405 47.485 33.2808 47.502 33.3487 47.5104L33.6988 47.5486V47.7141H32.1648V47.5486L32.5149 47.5104C32.5828 47.502 32.6231 47.485 32.6358 47.4595C32.6485 47.4341 32.6549 47.3471 32.6549 47.1985V43.9013C32.6549 43.7527 32.6485 43.6658 32.6358 43.6403C32.6231 43.6148 32.5828 43.5979 32.5149 43.5894L32.1648 43.5575V43.3857H33.6988V43.5575L33.3487 43.5894C33.2808 43.5979 33.2405 43.6148 33.2278 43.6403C33.215 43.6658 33.2087 43.7527 33.2087 43.9013V45.429H35.131V43.9013C35.131 43.7527 35.1247 43.6658 35.1119 43.6403C35.0992 43.6148 35.0589 43.5979 34.991 43.5894L34.6409 43.5575V43.3857H36.1749V43.5575L35.8249 43.5894C35.757 43.5979 35.7166 43.6148 35.7039 43.6403C35.6912 43.6658 35.6848 43.7527 35.6848 43.9013V47.1985C35.6848 47.3471 35.6912 47.4341 35.7039 47.4595C35.7166 47.485 35.757 47.502 35.8249 47.5104L36.1749 47.5486Z" fill="#7B7C7D"/>
<path d="M38.6293 43.5575V43.3857H40.1634V43.5575L39.8133 43.5894C39.7454 43.5979 39.7051 43.6148 39.6924 43.6403C39.6796 43.6658 39.6733 43.7527 39.6733 43.9013V47.1985C39.6733 47.3471 39.6796 47.4341 39.6924 47.4595C39.7051 47.485 39.7454 47.502 39.8133 47.5104L40.1634 47.5486V47.7141H38.6293V47.5486L38.9794 47.5104C39.0473 47.502 39.0877 47.485 39.1004 47.4595C39.1131 47.4341 39.1195 47.3471 39.1195 47.1985V43.9013C39.1195 43.7527 39.1131 43.6658 39.1004 43.6403C39.0877 43.6148 39.0473 43.5979 38.9794 43.5894L38.6293 43.5575Z" fill="#7B7C7D"/>
<path d="M46.0827 45.308V45.7854C46.0827 46.405 45.9405 46.893 45.6562 47.2495C45.3719 47.6017 44.9645 47.7778 44.434 47.7778C43.8993 47.7778 43.4898 47.6017 43.2055 47.2495C42.9254 46.893 42.7854 46.405 42.7854 45.7854V45.308C42.7854 44.6927 42.9254 44.2089 43.2055 43.8567C43.4898 43.5003 43.8993 43.322 44.434 43.322C44.9645 43.322 45.3719 43.5003 45.6562 43.8567C45.9405 44.2089 46.0827 44.6927 46.0827 45.308ZM45.4779 44.9897C45.4779 44.4593 45.3888 44.0837 45.2106 43.8631C45.0366 43.6382 44.7778 43.5257 44.434 43.5257C44.0903 43.5257 43.8293 43.6382 43.6511 43.8631C43.4771 44.0837 43.3901 44.4593 43.3901 44.9897V46.1037C43.3901 46.6341 43.4771 47.0118 43.6511 47.2367C43.8293 47.4616 44.0903 47.5741 44.434 47.5741C44.7778 47.5741 45.0366 47.4616 45.2106 47.2367C45.3888 47.0118 45.4779 46.6341 45.4779 46.1037V44.9897Z" fill="#7B7C7D"/>
<path d="M51.3342 43.5575V43.3857H52.55V43.5575L52.1999 43.5894C52.132 43.5979 52.0917 43.617 52.0789 43.6467C52.0662 43.6721 52.0598 43.757 52.0598 43.9013V47.7141H51.7479L49.4309 43.8058V47.1985C49.4309 47.3428 49.4373 47.4298 49.45 47.4595C49.4628 47.485 49.5031 47.502 49.571 47.5104L49.9211 47.5486V47.7141H48.7053V47.5486L49.0554 47.5104C49.1233 47.502 49.1636 47.485 49.1763 47.4595C49.1891 47.4298 49.1954 47.3428 49.1954 47.1985V43.9013C49.1954 43.757 49.1891 43.6721 49.1763 43.6467C49.1636 43.617 49.1233 43.5979 49.0554 43.5894L48.7053 43.5575V43.3857H49.8065L51.8243 46.7975V43.9013C51.8243 43.757 51.818 43.6721 51.8052 43.6467C51.7925 43.617 51.7522 43.5979 51.6843 43.5894L51.3342 43.5575Z" fill="#7B7C7D"/>
<path d="M59.6535 47.5741C59.9379 47.5741 60.167 47.5041 60.341 47.364C60.5192 47.224 60.6083 47.0182 60.6083 46.7466C60.6083 46.5302 60.5426 46.3498 60.411 46.2055C60.2795 46.057 60.0503 45.9382 59.7235 45.8491L59.2843 45.7218C58.9618 45.6327 58.7157 45.482 58.546 45.2698C58.3762 45.0576 58.2913 44.7988 58.2913 44.4933C58.2913 44.2896 58.338 44.0986 58.4314 43.9204C58.529 43.7421 58.6754 43.5979 58.8706 43.4875C59.07 43.3772 59.3225 43.322 59.6281 43.322C59.9676 43.322 60.2413 43.3857 60.4492 43.513C60.6571 43.636 60.8014 43.7973 60.882 43.9968C60.9627 44.1962 60.9818 44.4105 60.9393 44.6397L60.4046 44.7542C60.4598 44.3596 60.4195 44.0562 60.2837 43.844C60.1521 43.6318 59.923 43.5257 59.5962 43.5257C59.3374 43.5257 59.1337 43.5957 58.9852 43.7358C58.8366 43.8716 58.7624 44.071 58.7624 44.3341C58.7624 44.5421 58.8218 44.7203 58.9406 44.8688C59.0594 45.0131 59.2695 45.1277 59.5708 45.2125L60.01 45.3398C60.7187 45.5351 61.073 45.9488 61.073 46.5811C61.073 46.806 61.02 47.0097 60.9139 47.1922C60.812 47.3704 60.655 47.5126 60.4428 47.6186C60.2349 47.7247 59.9718 47.7778 59.6535 47.7778C59.4329 47.7778 59.2207 47.7438 59.017 47.6759C58.8175 47.608 58.6457 47.4913 58.5014 47.3258C58.3614 47.1603 58.268 46.9312 58.2213 46.6384L58.6032 46.5111C58.6245 46.7912 58.686 47.0076 58.7878 47.1603C58.8897 47.3131 59.017 47.4213 59.1698 47.485C59.3225 47.5444 59.4838 47.5741 59.6535 47.5741Z" fill="#7B7C7D"/>
<path d="M63.3509 43.3857H66.7372V44.4232H66.5718L66.3872 43.7549C66.3744 43.7039 66.3596 43.6679 66.3426 43.6467C66.3299 43.6212 66.3023 43.6063 66.2598 43.6021C66.2174 43.5936 66.1453 43.5894 66.0434 43.5894H65.3241V47.1985C65.3241 47.3471 65.3305 47.4341 65.3432 47.4595C65.356 47.485 65.3963 47.502 65.4642 47.5104L65.8143 47.5486V47.7141H64.2802V47.5486L64.6303 47.5104C64.6982 47.502 64.7385 47.485 64.7513 47.4595C64.764 47.4341 64.7703 47.3471 64.7703 47.1985V43.5894H64.0447C63.9471 43.5894 63.875 43.5936 63.8283 43.6021C63.7858 43.6063 63.7561 43.6212 63.7392 43.6467C63.7264 43.6679 63.7137 43.7039 63.701 43.7549L63.5164 44.4232H63.3509V43.3857Z" fill="#7B7C7D"/>
<path d="M72.438 45.308V45.7854C72.438 46.405 72.2959 46.893 72.0116 47.2495C71.7272 47.6017 71.3199 47.7778 70.7894 47.7778C70.2547 47.7778 69.8452 47.6017 69.5609 47.2495C69.2808 46.893 69.1408 46.405 69.1408 45.7854V45.308C69.1408 44.6927 69.2808 44.2089 69.5609 43.8567C69.8452 43.5003 70.2547 43.322 70.7894 43.322C71.3199 43.322 71.7272 43.5003 72.0116 43.8567C72.2959 44.2089 72.438 44.6927 72.438 45.308ZM71.8333 44.9897C71.8333 44.4593 71.7442 44.0837 71.566 43.8631C71.392 43.6382 71.1331 43.5257 70.7894 43.5257C70.4457 43.5257 70.1847 43.6382 70.0065 43.8631C69.8325 44.0837 69.7455 44.4593 69.7455 44.9897V46.1037C69.7455 46.6341 69.8325 47.0118 70.0065 47.2367C70.1847 47.4616 70.4457 47.5741 70.7894 47.5741C71.1331 47.5741 71.392 47.4616 71.566 47.2367C71.7442 47.0118 71.8333 46.6341 71.8333 46.1037V44.9897Z" fill="#7B7C7D"/>
<path d="M75.0607 43.5575V43.3857H76.8302C77.2461 43.3857 77.5644 43.4854 77.7851 43.6848C78.01 43.8801 78.1224 44.141 78.1224 44.4678V44.6651C78.1224 44.924 78.0503 45.1446 77.906 45.3271C77.766 45.5053 77.5644 45.6284 77.3013 45.6963L78.1161 47.1985C78.1712 47.3004 78.2115 47.3725 78.237 47.415C78.2625 47.4531 78.2858 47.4786 78.307 47.4913C78.3325 47.4998 78.3664 47.5062 78.4089 47.5104L78.6953 47.5486V47.7141H77.7341L76.7284 45.7536H76.1046V47.1985C76.1046 47.3471 76.111 47.4341 76.1237 47.4595C76.1364 47.485 76.1767 47.502 76.2446 47.5104L76.5947 47.5486V47.7141H75.0607V47.5486L75.4108 47.5104C75.4787 47.502 75.519 47.485 75.5317 47.4595C75.5444 47.4341 75.5508 47.3471 75.5508 47.1985V43.9013C75.5508 43.7527 75.5444 43.6658 75.5317 43.6403C75.519 43.6148 75.4787 43.5979 75.4108 43.5894L75.0607 43.5575ZM76.8302 43.5894H76.1046V45.5499H76.8302C77.0509 45.5499 77.2228 45.4799 77.3458 45.3398C77.4732 45.1956 77.5368 44.9791 77.5368 44.6906V44.4423C77.5368 44.1538 77.4732 43.9395 77.3458 43.7994C77.2228 43.6594 77.0509 43.5894 76.8302 43.5894Z" fill="#7B7C7D"/>
<path d="M83.7685 46.6766H83.934V47.7141H80.885V47.5486L81.2351 47.5104C81.303 47.502 81.3433 47.485 81.356 47.4595C81.3688 47.4341 81.3751 47.3471 81.3751 47.1985V43.9013C81.3751 43.7527 81.3688 43.6658 81.356 43.6403C81.3433 43.6148 81.303 43.5979 81.2351 43.5894L80.885 43.5575V43.3857H83.8513V44.4232H83.6921L83.5075 43.7549C83.4948 43.7039 83.4799 43.6679 83.463 43.6467C83.4502 43.6212 83.4227 43.6063 83.3802 43.6021C83.3378 43.5936 83.2656 43.5894 83.1638 43.5894H81.9289V45.429H82.7819C82.8837 45.429 82.9559 45.4268 82.9983 45.4226C83.0407 45.4141 83.0683 45.3993 83.081 45.378C83.098 45.3526 83.1129 45.3144 83.1256 45.2635L83.2466 44.7861H83.412V46.2756H83.2466L83.1256 45.7982C83.1129 45.7472 83.098 45.7112 83.081 45.6899C83.0683 45.6645 83.0407 45.6496 82.9983 45.6454C82.9559 45.6369 82.8837 45.6327 82.7819 45.6327H81.9289V47.5104H83.2402C83.342 47.5104 83.4142 47.5083 83.4566 47.5041C83.499 47.4956 83.5266 47.4807 83.5394 47.4595C83.5563 47.4341 83.5712 47.3959 83.5839 47.3449L83.7685 46.6766Z" fill="#7B7C7D"/>
</svg>
