<svg width="163" height="52" viewBox="0 0 163 52" fill="none" xmlns="http://www.w3.org/2000/svg">
<rect x="1.53727" y="1.37095" width="160.544" height="49.1553" stroke="#7B7C7D" stroke-width="1.47579"/>
<path d="M27.8368 32.1366C26.7168 32.1366 25.7304 31.8834 24.8777 31.3769C24.0313 30.8705 23.3695 30.1172 22.8922 29.117C22.415 28.1169 22.1763 26.8764 22.1763 25.3954C22.1763 23.9081 22.4118 22.6643 22.8827 21.6642C23.36 20.6641 24.025 19.9108 24.8777 19.4043C25.7304 18.8915 26.7168 18.635 27.8368 18.635C29.4531 18.635 30.6845 19.0197 31.5309 19.789C32.3772 20.5583 32.88 21.5552 33.039 22.7797L29.7936 23.3471C29.6472 22.7958 29.415 22.3406 29.0968 21.9816C28.785 21.6161 28.365 21.4334 27.8368 21.4334C27.3659 21.4334 26.9491 21.5777 26.5863 21.8662C26.23 22.1483 25.9531 22.581 25.7559 23.1644C25.5586 23.7478 25.46 24.4915 25.46 25.3954C25.46 26.2802 25.5618 27.0142 25.7654 27.5976C25.9691 28.1746 26.2491 28.6042 26.6054 28.8862C26.9681 29.1683 27.3786 29.3094 27.8368 29.3094C28.4922 29.3094 28.9822 29.1363 29.3068 28.7901C29.6313 28.4375 29.7936 28.0111 29.7936 27.5111H33.02C33.02 28.5048 32.8195 29.3478 32.4186 30.0402C32.024 30.7262 31.4418 31.2487 30.6718 31.6077C29.9018 31.9603 28.9568 32.1366 27.8368 32.1366Z" fill="#7B7C7D"/>
<path d="M44.1742 32.1366C42.9588 32.1366 41.8961 31.8802 40.9861 31.3673C40.0824 30.848 39.3793 30.0851 38.8765 29.0786C38.3738 28.0656 38.1224 26.8187 38.1224 25.3377C38.1224 23.8183 38.3738 22.565 38.8765 21.5777C39.3793 20.584 40.0824 19.8467 40.9861 19.3659C41.8961 18.8786 42.9588 18.635 44.1742 18.635C45.4024 18.635 46.4715 18.8882 47.3815 19.3947C48.2979 19.9012 49.0074 20.6513 49.5101 21.645C50.0129 22.6387 50.2642 23.8696 50.2642 25.3377C50.2642 26.8443 50.0129 28.1041 49.5101 29.117C49.0074 30.1236 48.2979 30.8801 47.3815 31.3865C46.4715 31.8866 45.4024 32.1366 44.1742 32.1366ZM44.1742 29.3767C45.0652 29.3767 45.7779 29.0241 46.3124 28.3189C46.847 27.6072 47.1142 26.6071 47.1142 25.3185C47.1142 24.1068 46.847 23.1516 46.3124 22.4528C45.7779 21.7476 45.0652 21.395 44.1742 21.395C43.3088 21.395 42.6088 21.7476 42.0743 22.4528C41.5397 23.1516 41.2724 24.1132 41.2724 25.3377C41.2724 26.6135 41.5397 27.6072 42.0743 28.3189C42.6088 29.0241 43.3088 29.3767 44.1742 29.3767Z" fill="#7B7C7D"/>
<path d="M56.0713 18.9235H59.2595L64.4045 26.7321H64.1945V18.9235H67.249V31.8289H64.2995L58.6199 23.251H59.1258V31.8289H56.0713V18.9235Z" fill="#7B7C7D"/>
<path d="M78.7886 32.1366C77.6686 32.1366 76.6822 31.8834 75.8295 31.3769C74.9831 30.8705 74.3213 30.1172 73.844 29.117C73.3667 28.1169 73.1281 26.8764 73.1281 25.3954C73.1281 23.9081 73.3636 22.6643 73.8345 21.6642C74.3117 20.6641 74.9767 19.9108 75.8295 19.4043C76.6822 18.8915 77.6686 18.635 78.7886 18.635C80.4049 18.635 81.6363 19.0197 82.4826 19.789C83.329 20.5583 83.8317 21.5552 83.9908 22.7797L80.7454 23.3471C80.599 22.7958 80.3667 22.3406 80.0486 21.9816C79.7367 21.6161 79.3167 21.4334 78.7886 21.4334C78.3176 21.4334 77.9008 21.5777 77.5381 21.8662C77.1817 22.1483 76.9049 22.581 76.7076 23.1644C76.5104 23.7478 76.4117 24.4915 76.4117 25.3954C76.4117 26.2802 76.5136 27.0142 76.7172 27.5976C76.9208 28.1746 77.2008 28.6042 77.5572 28.8862C77.9199 29.1683 78.3304 29.3094 78.7886 29.3094C79.444 29.3094 79.934 29.1363 80.2586 28.7901C80.5831 28.4375 80.7454 28.0111 80.7454 27.5111H83.9717C83.9717 28.5048 83.7713 29.3478 83.3704 30.0402C82.9758 30.7262 82.3935 31.2487 81.6235 31.6077C80.8535 31.9603 79.9086 32.1366 78.7886 32.1366Z" fill="#7B7C7D"/>
<path d="M92.921 18.9235V29.1363H97.7606V31.8289H89.8665V18.9235H92.921Z" fill="#7B7C7D"/>
<path d="M103.172 18.9235H106.227V26.7514C106.227 27.6681 106.459 28.3285 106.923 28.7324C107.388 29.1363 107.97 29.3382 108.67 29.3382C109.383 29.3382 109.972 29.1363 110.436 28.7324C110.907 28.3285 111.143 27.6681 111.143 26.7514V18.9235H114.188V26.7514C114.188 27.8412 113.974 28.7901 113.548 29.5979C113.122 30.4057 112.498 31.0307 111.677 31.4731C110.856 31.9155 109.854 32.1366 108.67 32.1366C107.487 32.1366 106.484 31.9155 105.663 31.4731C104.849 31.0307 104.228 30.4057 103.802 29.5979C103.382 28.7901 103.172 27.8412 103.172 26.7514V18.9235Z" fill="#7B7C7D"/>
<path d="M119.352 31.8289L123.666 18.9235H127.551L131.627 31.8289H128.411L127.714 29.5594H123.294L122.597 31.8289H119.352ZM124.067 27.2803H127.017L125.566 22.5586L124.067 27.2803Z" fill="#7B7C7D"/>
<path d="M141.835 32.1366C140.919 32.1366 140.07 31.9828 139.287 31.675C138.504 31.3609 137.868 30.8737 137.378 30.2133C136.888 29.5466 136.617 28.6811 136.566 27.6169H139.583C139.583 28.0079 139.681 28.3317 139.879 28.5881C140.076 28.8446 140.343 29.0337 140.68 29.1555C141.024 29.2773 141.403 29.3382 141.816 29.3382C142.147 29.3382 142.456 29.3094 142.742 29.2517C143.035 29.194 143.27 29.0914 143.449 28.9439C143.627 28.7965 143.716 28.5945 143.716 28.3381C143.716 28.024 143.62 27.79 143.43 27.6361C143.245 27.4822 142.908 27.3059 142.418 27.1072L139.63 25.8859C138.714 25.4884 138.001 25.0204 137.492 24.4819C136.983 23.9433 136.729 23.2093 136.729 22.2797C136.729 21.1898 137.168 20.3115 138.046 19.6447C138.93 18.9716 140.14 18.635 141.673 18.635C143.232 18.635 144.429 19.0068 145.262 19.7505C146.096 20.4878 146.564 21.5424 146.665 22.9144H143.668C143.592 22.4912 143.404 22.1354 143.105 21.8469C142.812 21.5584 142.335 21.4142 141.673 21.4142C141.196 21.4142 140.811 21.5039 140.518 21.6835C140.225 21.8566 140.079 22.0745 140.079 22.3374C140.079 22.581 140.171 22.7733 140.356 22.9144C140.547 23.0554 140.83 23.2093 141.205 23.376L144.155 24.6357C145.135 25.0653 145.864 25.5685 146.341 26.1455C146.825 26.7225 147.066 27.4149 147.066 28.2227C147.066 29.0882 146.86 29.8126 146.446 30.396C146.039 30.973 145.444 31.409 144.661 31.7039C143.885 31.9924 142.943 32.1366 141.835 32.1366Z" fill="#7B7C7D"/>
</svg>
