<svg width="131" height="54" viewBox="0 0 131 54" fill="none" xmlns="http://www.w3.org/2000/svg">
<path d="M46.8425 34.226C43.482 21.8213 46.7034 -1.97156 86.4721 2.09477M46.8425 34.226C72.706 47.1511 84.0387 18.1906 86.4721 2.09477M46.8425 34.226C44.8146 37.6146 40.4808 45.8804 39.3684 51.8347C37.862 50.8825 37.2479 46.0278 46.8425 34.226ZM46.8425 34.226C48.0366 31.9008 49.5153 29.6576 51.2006 27.5093C61.0935 14.8986 78.1058 5.55887 86.4721 2.09477" stroke="#7B7C7D" stroke-width="1.47579" stroke-linecap="round"/>
<path d="M0.887192 12.677H5.23131V34.5448H15.4657V38.4472H0.887192V12.677Z" fill="#7B7C7D"/>
<path d="M24.9803 38.4472V34.6185H37.9758V38.4472H24.9803ZM24.9803 16.5057V12.677H37.9758V16.5057H24.9803ZM24.9803 26.5193V22.7642H37.2395V26.5193H24.9803ZM22.2928 12.677H26.5633V38.4472H22.2928V12.677Z" fill="#7B7C7D"/>
<path d="M93.8493 16.5793V12.677H105.372V16.5793H93.8493ZM93.8493 26.8138V23.0219H105.004V26.8138H93.8493ZM91.1619 12.677H95.4323V38.4472H91.1619V12.677Z" fill="#7B7C7D"/>
<path d="M116.729 38.4472V34.6185H129.725V38.4472H116.729ZM116.729 16.5057V12.677H129.725V16.5057H116.729ZM116.729 26.5193V22.7642H128.988V26.5193H116.729ZM114.042 12.677H118.312V38.4472H114.042V12.677Z" fill="#7B7C7D"/>
<path d="M73.1725 44.5455V43.2447H77.0134V44.5455H73.1725ZM73.1725 47.957V46.693H76.8907V47.957H73.1725ZM72.2766 43.2447H73.7001V51.8348H72.2766V43.2447Z" fill="#7B7C7D"/>
<path d="M80.0712 49.6259L80.3411 48.3987H84.3294L84.6116 49.6259H80.0712ZM82.3168 45.6745L80.967 48.8282L80.9424 49.1473L79.7521 51.8348H78.12L82.3168 42.7661L86.5137 51.8348H84.8816L83.7158 49.2209L83.679 48.8651L82.3168 45.6745Z" fill="#7B7C7D"/>
<path d="M89.3046 49.0737C89.4928 49.4009 89.6932 49.6913 89.9059 49.9449C90.1268 50.1904 90.3681 50.3826 90.6299 50.5217C90.8917 50.6526 91.1862 50.7181 91.5135 50.7181C91.9062 50.7181 92.2252 50.6117 92.4707 50.399C92.7161 50.1863 92.8388 49.9122 92.8388 49.5768C92.8388 49.2577 92.7611 49.0041 92.6056 48.816C92.4502 48.6196 92.2334 48.456 91.9552 48.3251C91.6853 48.186 91.3703 48.051 91.0103 47.9201C90.7976 47.8465 90.5604 47.7483 90.2986 47.6256C90.0368 47.4947 89.7873 47.3352 89.55 47.147C89.3128 46.9507 89.1164 46.7134 88.961 46.4353C88.8056 46.149 88.7278 45.8054 88.7278 45.4045C88.7278 44.9464 88.8465 44.5455 89.0837 44.2019C89.321 43.8501 89.64 43.5801 90.0409 43.392C90.4499 43.1956 90.9122 43.0974 91.4276 43.0974C91.9348 43.0974 92.3766 43.1874 92.7529 43.3674C93.1292 43.5474 93.4442 43.7765 93.6978 44.0546C93.9596 44.3328 94.1641 44.6232 94.3114 44.9259L93.1333 45.5886C93.027 45.3759 92.892 45.1795 92.7284 44.9995C92.5647 44.8114 92.3725 44.6641 92.1516 44.5578C91.9389 44.4432 91.6894 44.386 91.403 44.386C91.0022 44.386 90.7076 44.48 90.5195 44.6682C90.3313 44.8482 90.2372 45.0609 90.2372 45.3063C90.2372 45.5272 90.3027 45.7276 90.4336 45.9076C90.5727 46.0794 90.7854 46.243 91.0717 46.3985C91.358 46.5539 91.7303 46.7134 92.1884 46.8771C92.442 46.9671 92.6956 47.0816 92.9492 47.2207C93.211 47.3597 93.4483 47.5356 93.661 47.7483C93.8737 47.9529 94.0414 48.1942 94.1641 48.4724C94.295 48.7505 94.3605 49.0778 94.3605 49.4541C94.3605 49.855 94.2827 50.2149 94.1273 50.534C93.9719 50.853 93.7592 51.123 93.4892 51.3439C93.2192 51.5566 92.9124 51.7202 92.5688 51.8348C92.2334 51.9575 91.8816 52.0188 91.5135 52.0188C91.0063 52.0188 90.5358 51.9207 90.1023 51.7243C89.6768 51.5198 89.3046 51.2498 88.9855 50.9144C88.6665 50.579 88.4129 50.2149 88.2247 49.8222L89.3046 49.0737Z" fill="#7B7C7D"/>
<path d="M97.6505 47.8956V46.558H103.774V47.8956H97.6505ZM102.841 43.2447H104.289V51.8348H102.841V43.2447ZM97.0737 43.2447H98.5218V51.8348H97.0737V43.2447Z" fill="#7B7C7D"/>
<path d="M107.433 43.2447H108.893V51.8348H107.433V43.2447Z" fill="#7B7C7D"/>
<path d="M113.082 47.5397C113.082 48.1288 113.205 48.6564 113.45 49.1228C113.704 49.5809 114.052 49.9409 114.494 50.2026C114.935 50.4644 115.438 50.5953 116.003 50.5953C116.576 50.5953 117.079 50.4644 117.512 50.2026C117.954 49.9409 118.298 49.5809 118.543 49.1228C118.797 48.6564 118.924 48.1288 118.924 47.5397C118.924 46.9507 118.801 46.4271 118.555 45.969C118.31 45.5027 117.966 45.1386 117.525 44.8768C117.091 44.615 116.584 44.4841 116.003 44.4841C115.438 44.4841 114.935 44.615 114.494 44.8768C114.052 45.1386 113.704 45.5027 113.45 45.969C113.205 46.4271 113.082 46.9507 113.082 47.5397ZM111.548 47.5397C111.548 46.8934 111.659 46.3003 111.88 45.7604C112.101 45.2204 112.411 44.7541 112.812 44.3614C113.221 43.9605 113.696 43.6497 114.236 43.4288C114.784 43.2079 115.373 43.0974 116.003 43.0974C116.649 43.0974 117.242 43.2079 117.782 43.4288C118.322 43.6497 118.793 43.9605 119.193 44.3614C119.603 44.7541 119.918 45.2204 120.138 45.7604C120.359 46.3003 120.47 46.8934 120.47 47.5397C120.47 48.1778 120.359 48.771 120.138 49.3191C119.918 49.8672 119.607 50.3417 119.206 50.7426C118.805 51.1435 118.33 51.4584 117.782 51.6875C117.242 51.9084 116.649 52.0188 116.003 52.0188C115.365 52.0188 114.772 51.9084 114.224 51.6875C113.675 51.4584 113.201 51.1435 112.8 50.7426C112.407 50.3417 112.101 49.8672 111.88 49.3191C111.659 48.771 111.548 48.1778 111.548 47.5397Z" fill="#7B7C7D"/>
<path d="M129.376 43.2447H130.799V52.2643L124.529 46.0671V51.8348H123.105V42.8152L129.376 49.0123V43.2447Z" fill="#7B7C7D"/>
</svg>
