<svg width="34" height="37" viewBox="0 0 34 37" fill="none" xmlns="http://www.w3.org/2000/svg">
<path d="M8.00284 19.3044V3.59C8.00284 2.15958 9.16242 1 10.5928 1H30.7201C32.1505 1 33.3101 2.15958 33.3101 3.59V18.5865C33.3101 20.0169 32.1505 21.1765 30.7201 21.1765H23.3952M8.00284 19.3044H12.0936M8.00284 19.3044H6.20013C4.70671 19.3044 3.49606 20.5151 3.49606 22.0085V22.0085M23.3952 21.1765C24.2272 21.292 25.919 22.0085 26.0299 23.9499C26.1409 25.8913 24.3197 26.7002 23.3952 26.862M23.3952 21.1765V26.862M23.3952 21.1765V17.3577C23.3952 16.0709 22.0893 15.1958 20.8992 15.685V15.685M23.3952 26.862V30.7501C23.3952 32.0369 22.0893 32.912 20.8992 32.4228V32.4228M12.0936 19.3044L20.8992 15.685M12.0936 19.3044V28.8033M12.0936 28.8033L20.8992 32.4228M12.0936 28.8033H9.2162M20.8992 32.4228V15.685M3.49606 22.0085H3.01072C1.90023 22.0085 1 22.9087 1 24.0192V24.0192C1 25.1297 1.90023 26.0299 3.01072 26.0299H3.49606M3.49606 22.0085V26.0299M3.49606 26.0299V26.0299C3.49606 27.5616 4.73775 28.8033 6.26946 28.8033H6.3388M6.61614 21.1765V23.3952M8.76552 21.1765V23.3952M6.3388 28.8033V34.2115C6.45436 34.9973 7.19855 36.4302 9.25087 35.8755L9.2162 28.8033M6.3388 28.8033H9.2162M22.2165 5.02143H29.7047M22.2165 8.14151H29.7047M22.2165 11.2616H29.7047M24.8512 14.3817H29.7047M15.179 14.659V14.659C17.1128 14.659 18.6804 13.0914 18.6804 11.1576V8.52285C18.6804 6.58907 17.1128 5.02143 15.179 5.02143V5.02143C13.2452 5.02143 11.6776 6.58907 11.6776 8.52285V11.1576C11.6776 13.0914 13.2452 14.659 15.179 14.659Z" stroke="#0F252A"/>
</svg>
