<svg width="153" height="51" viewBox="0 0 153 51" fill="none" xmlns="http://www.w3.org/2000/svg">
<path d="M29.3791 23.8631C29.3791 25.4217 29.0297 26.725 28.3311 27.7731C27.6324 28.7942 26.7053 29.6004 25.5497 30.1916C24.4211 30.7828 23.1849 31.1993 21.8413 31.4412C20.4976 31.683 19.1809 31.804 17.891 31.804C16.8967 31.804 15.9427 31.6562 15.029 31.3606C14.1153 31.0918 13.1882 30.7828 12.2477 30.4335C11.7908 30.2722 11.334 30.1782 10.8772 30.1513C10.4472 30.0975 9.99036 30.0707 9.50665 30.0707C9.42603 29.4257 9.34541 28.7942 9.26479 28.1761C9.18418 27.5312 9.09012 26.8862 8.98263 26.2413C8.92888 25.7845 8.8617 25.3411 8.78108 24.9111C8.70047 24.4811 8.66016 24.0512 8.66016 23.6212C8.66016 23.245 8.72734 22.9359 8.8617 22.6941C9.02294 22.4522 9.3051 22.3313 9.7082 22.3313C10.0844 22.3313 10.3666 22.4119 10.5547 22.5732C10.7697 22.7075 10.9309 22.9494 11.0384 23.2987C11.2265 23.7824 11.3743 24.2796 11.4818 24.7902C11.6162 25.3008 11.7774 25.8113 11.9655 26.3219C12.4224 27.5849 13.1614 28.5927 14.1825 29.3451C15.2306 30.0975 16.4533 30.4738 17.8507 30.4738C19.7318 30.4738 21.1695 29.9363 22.1637 28.8614C23.1849 27.7596 23.6955 26.2816 23.6955 24.4274C23.6955 23.3525 23.4671 22.4657 23.0102 21.767C22.5534 21.0414 21.9622 20.4233 21.2366 19.9128C20.5111 19.4022 19.7318 18.9185 18.8987 18.4616C18.1194 18.0317 17.3266 17.6286 16.5205 17.2523C15.7143 16.8761 14.9215 16.4865 14.1422 16.0834C13.2823 15.6265 12.4358 15.0622 11.6027 14.3904C10.7965 13.6917 10.1247 12.8989 9.58727 12.0121C9.07668 11.0985 8.82139 10.1176 8.82139 9.06958C8.82139 7.29597 9.27823 5.8314 10.1919 4.67587C11.1325 3.52034 12.3283 2.66041 13.7794 2.09608C15.2574 1.53175 16.7892 1.24958 18.3747 1.24958C19.3958 1.24958 20.3767 1.39739 21.3173 1.69299C22.2847 1.96171 23.2252 2.28419 24.1389 2.66041C24.4345 2.7679 24.7032 2.84852 24.9451 2.90226C25.2138 2.95601 25.496 2.98288 25.7916 2.98288C26.0066 2.98288 26.2081 2.98288 26.3962 2.98288C26.5843 2.95601 26.7724 2.92914 26.9605 2.90226C27.0412 3.76219 27.1352 4.62212 27.2427 5.48205C27.3502 6.34198 27.4577 7.20191 27.5652 8.06184C27.5921 8.19621 27.6055 8.34401 27.6055 8.50525C27.6324 8.63961 27.6458 8.77397 27.6458 8.90834C27.6458 9.28456 27.5652 9.6339 27.4039 9.95638C27.2427 10.252 26.9337 10.3998 26.4768 10.3998C26.1275 10.3998 25.8722 10.3192 25.711 10.1579C25.5497 9.99669 25.4019 9.76827 25.2676 9.47267C24.9451 8.63961 24.636 7.81999 24.3404 7.0138C24.0448 6.20762 23.6149 5.45518 23.0505 4.75649C22.4593 4.00405 21.7203 3.45316 20.8335 3.10381C19.9467 2.72759 19.0331 2.53948 18.0925 2.53948C17.1788 2.53948 16.413 2.79477 15.7949 3.30536C15.1768 3.78907 14.72 4.42058 14.4244 5.19989C14.1288 5.9792 13.981 6.78539 13.981 7.61844C13.981 8.90834 14.3169 9.91607 14.9887 10.6416C15.6874 11.3403 16.5473 11.9853 17.5685 12.5765C18.1328 12.8721 18.6972 13.1677 19.2615 13.4633C19.8527 13.732 20.4304 14.0007 20.9948 14.2695C22.3384 14.8875 23.6417 15.64 24.9048 16.5268C26.1947 17.3867 27.2561 18.4213 28.0892 19.6306C28.9491 20.813 29.3791 22.2238 29.3791 23.8631Z" fill="#0F252A"/>
<path d="M56.2553 30.7156C56.2553 31.1993 56.0268 31.4412 55.57 31.4412C55.1938 31.4412 54.8041 31.4143 54.401 31.3606C54.0248 31.3337 53.6486 31.3068 53.2724 31.28C52.7349 31.2531 52.184 31.2531 51.6197 31.28C51.0822 31.28 50.5448 31.28 50.0073 31.28C49.3624 31.28 48.7174 31.3068 48.0725 31.3606C47.4544 31.4412 46.8363 31.4815 46.2183 31.4815C46.057 31.4815 45.8958 31.4143 45.7346 31.28C45.6002 31.1187 45.533 30.9709 45.533 30.8366C45.533 30.3797 45.7614 30.1513 46.2183 30.1513C46.487 30.1513 46.7423 30.1647 46.9841 30.1916C47.226 30.2185 47.4813 30.2319 47.75 30.2319C48.1531 30.2319 48.3547 30.0169 48.3547 29.587C48.3547 27.5178 48.3547 25.462 48.3547 23.4197C48.3815 21.3504 48.395 19.2947 48.395 17.2523C48.395 16.5268 48.3681 15.734 48.3144 14.8741C48.2606 13.9873 48.0994 13.208 47.8306 12.5362C47.5888 11.9181 47.2797 11.5016 46.9035 11.2866C46.5273 11.0716 46.0167 10.9641 45.3718 10.9641C44.7806 10.9641 44.1625 11.1791 43.5176 11.6091C42.8995 12.039 42.3486 12.563 41.8649 13.1811C41.3812 13.7723 41.0184 14.3232 40.7765 14.8338V29.7482C40.7765 30.0438 40.9646 30.1916 41.3409 30.1916C41.6096 30.1916 41.8649 30.1782 42.1067 30.1513C42.3486 30.0975 42.6039 30.0707 42.8726 30.0707C43.007 30.0707 43.1413 30.1513 43.2757 30.3125C43.4369 30.4469 43.5176 30.5813 43.5176 30.7156C43.5176 31.1993 43.2891 31.4412 42.8323 31.4412C42.4561 31.4412 42.0664 31.4143 41.6633 31.3606C41.2871 31.3337 40.9109 31.3203 40.5347 31.3203C40.2659 31.3203 39.9972 31.3203 39.7285 31.3203C39.4598 31.3203 39.1776 31.3203 38.882 31.3203H36.7456C36.235 31.3203 35.7244 31.3471 35.2139 31.4009C34.7033 31.4546 34.1927 31.4815 33.6821 31.4815C33.2521 31.4815 33.0372 31.2396 33.0372 30.7559C33.0372 30.326 33.2656 30.111 33.7224 30.111C33.9911 30.111 34.2464 30.1244 34.4883 30.1513C34.7301 30.1782 34.9854 30.1916 35.2542 30.1916C35.5766 30.1916 35.7379 30.0438 35.7379 29.7482V4.07123C35.7379 3.8025 35.6976 3.48003 35.6169 3.10381C35.5632 2.70072 35.3482 2.49917 34.972 2.49917C34.6227 2.49917 34.2599 2.52604 33.8836 2.57979C33.5343 2.63354 33.185 2.66041 32.8356 2.66041C32.7012 2.66041 32.5803 2.59323 32.4728 2.45886C32.3653 2.3245 32.3116 2.19013 32.3116 2.05577C32.3116 1.78704 32.4863 1.62581 32.8356 1.57206C33.9374 1.3302 35.0392 1.14209 36.141 1.00773C37.2696 0.846493 38.3714 0.604638 39.4463 0.282163C39.6613 0.201546 39.8763 0.161237 40.0913 0.161237C40.4675 0.161237 40.6556 0.33591 40.6556 0.685255V12.3749C41.4349 11.6494 42.3486 11.0044 43.3966 10.4401C44.4447 9.87576 45.5061 9.59359 46.5811 9.59359C48.4084 9.59359 49.8192 9.82201 50.8135 10.2788C51.8347 10.7357 52.5468 11.4881 52.9499 12.5362C53.3799 13.5842 53.5949 15.0085 53.5949 16.8089V29.587C53.5949 29.9901 53.783 30.1916 54.1592 30.1916C54.401 30.1916 54.6429 30.1782 54.8848 30.1513C55.1266 30.0975 55.3685 30.0707 55.6103 30.0707C55.7984 30.0707 55.9462 30.1379 56.0537 30.2722C56.1881 30.4066 56.2553 30.5544 56.2553 30.7156Z" fill="#0F252A"/>
<path d="M75.5933 20.6786C75.5933 19.7918 75.5261 18.7841 75.3918 17.6554C75.2843 16.4999 75.0424 15.3847 74.6662 14.3098C74.29 13.2349 73.7391 12.3481 73.0135 11.6494C72.3148 10.9238 71.3608 10.561 70.1516 10.561C69.0498 10.561 68.163 10.9104 67.4911 11.6091C66.8193 12.3077 66.2953 13.1811 65.9191 14.2292C65.5697 15.2772 65.3279 16.3655 65.1935 17.4942C65.0592 18.596 64.992 19.55 64.992 20.3562C64.992 21.243 65.0457 22.2641 65.1532 23.4197C65.2876 24.5483 65.5429 25.6501 65.9191 26.725C66.2953 27.7999 66.8462 28.6867 67.5718 29.3854C68.2973 30.0841 69.2648 30.4335 70.474 30.4335C71.6027 30.4335 72.5029 30.0975 73.1747 29.4257C73.8734 28.727 74.3975 27.8671 74.7468 26.8459C75.0961 25.7979 75.3246 24.723 75.4321 23.6212C75.5396 22.4925 75.5933 21.5117 75.5933 20.6786ZM81.0754 20.8802C81.0754 22.9494 80.6051 24.7902 79.6645 26.4025C78.724 27.988 77.4341 29.2376 75.7948 30.1513C74.1825 31.065 72.3417 31.5218 70.2725 31.5218C68.2033 31.5218 66.3759 31.0381 64.7904 30.0707C63.2049 29.1033 61.9553 27.7999 61.0417 26.1607C60.1549 24.5214 59.7115 22.6807 59.7115 20.6383C59.7115 18.5154 60.1549 16.6208 61.0417 14.9547C61.9285 13.2617 63.1781 11.9315 64.7904 10.9641C66.4028 9.96981 68.2839 9.47267 70.4337 9.47267C72.7985 9.47267 74.7602 9.95638 76.3189 10.9238C77.9044 11.8643 79.0868 13.1946 79.8661 14.9144C80.6723 16.6074 81.0754 18.596 81.0754 20.8802Z" fill="#0F252A"/>
<path d="M101.235 20.5577C101.235 19.9934 101.221 19.3216 101.194 18.5422C101.168 17.7361 101.087 16.9164 100.953 16.0834C100.845 15.2234 100.643 14.4307 100.348 13.7051C100.079 12.9527 99.6895 12.3481 99.1789 11.8912C98.6683 11.4344 98.0099 11.206 97.2038 11.206C96.1289 11.206 95.2421 11.515 94.5434 12.1331C93.8715 12.7511 93.3206 13.5305 92.8907 14.471V24.9917C92.8907 25.6635 93.0116 26.4025 93.2535 27.2087C93.5222 27.988 93.9253 28.6599 94.4627 29.2242C95.0002 29.7616 95.672 30.0304 96.4782 30.0304C97.6606 30.0304 98.5743 29.7079 99.2192 29.0629C99.891 28.3911 100.361 27.5581 100.63 26.5638C100.926 25.5695 101.1 24.5349 101.154 23.46C101.208 22.3582 101.235 21.3908 101.235 20.5577ZM106.757 19.9934C106.757 22.1701 106.394 24.1049 105.669 25.7979C104.943 27.464 103.828 28.7808 102.323 29.7482C100.818 30.6888 98.9102 31.159 96.5991 31.159C96.0079 31.159 95.3495 31.0247 94.624 30.7559C93.9253 30.4603 93.3341 30.1647 92.8504 29.8691C92.8504 30.4603 92.8369 31.0515 92.8101 31.6427C92.8101 32.2608 92.8235 32.8789 92.8504 33.497V36.762C92.8504 37.0039 92.8907 37.2457 92.9713 37.4876C93.0788 37.7294 93.2803 37.8504 93.5759 37.8504C93.7909 37.8504 94.0059 37.8369 94.2209 37.81C94.4627 37.81 94.6912 37.81 94.9061 37.81C95.2824 37.81 95.4705 38.0116 95.4705 38.4147C95.4705 38.8447 95.2689 39.0596 94.8658 39.0596C94.1134 39.0596 93.361 39.0328 92.6085 38.979C91.8561 38.9253 91.0902 38.8984 90.3109 38.8984C89.5316 38.8984 88.7388 38.9253 87.9326 38.979C87.1265 39.0328 86.3337 39.0596 85.5544 39.0596C85.3663 39.0596 85.2319 38.979 85.1513 38.8178C85.0707 38.6834 85.0304 38.549 85.0304 38.4147C85.0304 38.0116 85.2319 37.81 85.635 37.81C85.85 37.81 86.065 37.81 86.28 37.81C86.4949 37.8369 86.6965 37.8504 86.8846 37.8504C87.1802 37.8504 87.3952 37.7429 87.5295 37.5279C87.6639 37.3398 87.7311 37.1114 87.7311 36.8426C87.7311 32.9192 87.7311 28.9958 87.7311 25.0723C87.758 21.122 87.7714 17.1852 87.7714 13.2617C87.7714 12.9661 87.7311 12.6437 87.6505 12.2943C87.5699 11.945 87.328 11.7703 86.9249 11.7703C86.6562 11.7703 86.3875 11.7837 86.1187 11.8106C85.8769 11.8375 85.6216 11.8509 85.3529 11.8509C85.1916 11.8509 85.0035 11.824 84.7885 11.7703C84.6004 11.6897 84.5064 11.5419 84.5064 11.3269C84.5064 11.1657 84.5601 11.0447 84.6676 10.9641C84.7751 10.8835 84.896 10.8297 85.0304 10.8029C85.326 10.6954 85.635 10.6282 85.9575 10.6013C86.28 10.5745 86.589 10.5341 86.8846 10.4804C88.2551 10.2385 89.5719 9.91607 90.8349 9.51298C90.9424 9.45923 91.0499 9.41892 91.1574 9.39205C91.2649 9.3383 91.3724 9.31143 91.4799 9.31143C91.668 9.31143 91.8292 9.47267 91.9636 9.79514C92.1248 10.1176 92.2457 10.467 92.3263 10.8432C92.4338 11.2194 92.5145 11.4881 92.5682 11.6494C92.9444 11.4344 93.4819 11.1925 94.1806 10.9238C94.8793 10.6282 95.578 10.3729 96.2766 10.1579C97.0022 9.91607 97.5665 9.79514 97.9696 9.79514C99.3401 9.79514 100.563 10.0907 101.638 10.6819C102.713 11.2731 103.626 12.0659 104.379 13.0602C105.158 14.0276 105.749 15.116 106.152 16.3252C106.556 17.5345 106.757 18.7572 106.757 19.9934Z" fill="#0F252A"/>
<path d="M121.688 30.7962C121.688 31.2262 121.473 31.4412 121.043 31.4412C120.263 31.4412 119.471 31.4009 118.664 31.3203C117.858 31.2665 117.052 31.2396 116.246 31.2396C115.44 31.2396 114.62 31.2665 113.787 31.3203C112.981 31.4009 112.175 31.4412 111.368 31.4412C111.18 31.4412 111.046 31.374 110.965 31.2396C110.885 31.0784 110.844 30.9306 110.844 30.7962C110.844 30.3663 111.046 30.1513 111.449 30.1513C111.718 30.1513 111.973 30.1647 112.215 30.1916C112.457 30.2185 112.699 30.2319 112.94 30.2319C113.263 30.2319 113.464 30.1244 113.545 29.9094C113.653 29.6945 113.706 29.4526 113.706 29.1839V13.1811C113.706 12.9124 113.679 12.6168 113.626 12.2943C113.572 11.945 113.357 11.7703 112.981 11.7703C112.631 11.7703 112.269 11.7972 111.892 11.8509C111.516 11.9047 111.14 11.9315 110.764 11.9315C110.602 11.9315 110.441 11.8912 110.28 11.8106C110.146 11.73 110.078 11.5956 110.078 11.4075C110.078 11.0582 110.253 10.8297 110.602 10.7223C110.898 10.6685 111.207 10.6282 111.53 10.6013C111.879 10.5476 112.201 10.5073 112.497 10.4804C113.438 10.346 114.351 10.1848 115.238 9.99669C116.152 9.7817 117.065 9.56672 117.979 9.35174C118.06 9.35174 118.14 9.35174 118.221 9.35174C118.302 9.32487 118.369 9.31143 118.422 9.31143C118.826 9.31143 119.027 9.47267 119.027 9.79514C119.027 13.0199 119.014 16.2581 118.987 19.5097C118.96 22.7344 118.946 25.9591 118.946 29.1839C118.946 29.6676 119.054 29.9766 119.269 30.111C119.484 30.2185 119.753 30.2588 120.075 30.2319C120.424 30.205 120.774 30.1916 121.123 30.1916C121.499 30.1916 121.688 30.3932 121.688 30.7962ZM119.148 3.10381C119.148 3.93687 118.839 4.66243 118.221 5.28051C117.63 5.89858 116.904 6.20762 116.044 6.20762C115.211 6.20762 114.486 5.89858 113.868 5.28051C113.249 4.66243 112.94 3.93687 112.94 3.10381C112.94 2.24388 113.249 1.51831 113.868 0.927112C114.486 0.309037 115.211 0 116.044 0C116.904 0 117.63 0.309037 118.221 0.927112C118.839 1.51831 119.148 2.24388 119.148 3.10381Z" fill="#0F252A"/>
<path d="M137.156 27.0072C137.076 25.7442 137.022 24.4811 136.995 23.2181C136.968 21.9282 136.968 20.6383 136.995 19.3484C135.893 19.5365 134.818 19.8859 133.77 20.3965C132.749 20.8802 131.903 21.5386 131.231 22.3716C130.559 23.2047 130.223 24.2661 130.223 25.556C130.223 26.0935 130.29 26.6713 130.425 27.2893C130.586 27.9074 130.854 28.4314 131.231 28.8614C131.634 29.2645 132.171 29.466 132.843 29.466C133.327 29.466 133.837 29.3317 134.375 29.0629C134.912 28.7673 135.423 28.4314 135.907 28.0552C136.417 27.679 136.834 27.3297 137.156 27.0072ZM145.46 29.3854C145.46 29.4929 145.406 29.6138 145.299 29.7482C145.218 29.8826 145.137 29.9901 145.057 30.0707C144.224 31.0381 143.149 31.5218 141.832 31.5218C140.677 31.5218 139.749 31.2665 139.051 30.7559C138.352 30.2453 137.815 29.4526 137.438 28.3777C136.578 29.2914 135.651 30.0169 134.657 30.5544C133.69 31.0918 132.547 31.3606 131.231 31.3606C130.29 31.3606 129.336 31.159 128.369 30.7559C127.428 30.326 126.635 29.7213 125.991 28.942C125.372 28.1627 125.063 27.2625 125.063 26.2413C125.063 25.2201 125.319 24.3199 125.829 23.5406C126.367 22.7344 127.039 22.0491 127.845 21.4848C128.651 20.8936 129.471 20.4099 130.304 20.0337C131.379 19.5768 132.48 19.2275 133.609 18.9856C134.738 18.7169 135.866 18.4482 136.995 18.1795V18.0182C136.995 17.5345 136.982 16.8896 136.955 16.0834C136.955 15.2503 136.874 14.4307 136.713 13.6245C136.552 12.7915 136.283 12.0928 135.907 11.5284C135.53 10.9372 134.979 10.6416 134.254 10.6416C133.421 10.6416 132.668 10.8835 131.997 11.3672C131.352 11.8509 130.895 12.4959 130.626 13.302C130.572 13.5439 130.532 13.7858 130.505 14.0276C130.478 14.2426 130.438 14.471 130.384 14.7129C130.33 15.1428 130.075 15.4384 129.618 15.5997C129.188 15.734 128.785 15.8012 128.409 15.8012C127.952 15.8012 127.509 15.7072 127.079 15.519C126.649 15.3041 126.434 14.9144 126.434 14.3501C126.434 14.1351 126.461 13.947 126.515 13.7858C126.595 13.5976 126.676 13.4095 126.756 13.2214C127.186 12.2003 127.831 11.4478 128.691 10.9641C129.551 10.4804 130.492 10.1579 131.513 9.99669C132.561 9.83545 133.555 9.75483 134.496 9.75483C136.699 9.75483 138.513 10.346 139.938 11.5284C141.362 12.7108 142.074 14.4576 142.074 16.7686V22.8553C142.047 23.6078 142.034 24.3871 142.034 25.1933C142.06 25.9726 142.101 26.7519 142.155 27.5312C142.208 27.988 142.316 28.4314 142.477 28.8614C142.638 29.2645 143.001 29.466 143.565 29.466C143.942 29.466 144.251 29.3854 144.492 29.2242C144.761 29.0629 145.003 28.9823 145.218 28.9823C145.326 28.9823 145.393 29.0361 145.42 29.1436C145.446 29.2511 145.46 29.3317 145.46 29.3854Z" fill="#0F252A"/>
<path d="M34.2742 45.4919V44.6258H36.8317V45.4919H34.2742ZM34.2742 47.7634V46.9218H36.75V47.7634H34.2742ZM33.6777 44.6258H34.6255V50.3453H33.6777V44.6258Z" fill="#0F252A"/>
<path d="M41.3188 48.8746L41.4986 48.0575H44.1541L44.342 48.8746H41.3188ZM42.8141 46.2436L41.9153 48.3435L41.8989 48.5559L41.1064 50.3453H40.0197L42.8141 44.3071L45.6085 50.3453H44.5218L43.7455 48.605L43.721 48.368L42.8141 46.2436Z" fill="#0F252A"/>
<path d="M49.918 48.5069C50.0433 48.7248 50.1767 48.9182 50.3184 49.087C50.4654 49.2505 50.6261 49.3785 50.8004 49.4711C50.9748 49.5582 51.1709 49.6018 51.3887 49.6018C51.6502 49.6018 51.8626 49.531 52.0261 49.3894C52.1895 49.2477 52.2712 49.0653 52.2712 48.8419C52.2712 48.6295 52.2194 48.4606 52.1159 48.3353C52.0124 48.2046 51.8681 48.0957 51.6829 48.0085C51.5031 47.9159 51.2934 47.826 51.0537 47.7389C50.9121 47.6898 50.7541 47.6245 50.5798 47.5428C50.4055 47.4556 50.2394 47.3494 50.0814 47.2241C49.9234 47.0934 49.7927 46.9354 49.6892 46.7502C49.5857 46.5595 49.534 46.3308 49.534 46.0638C49.534 45.7588 49.613 45.4919 49.7709 45.2631C49.9289 45.0289 50.1413 44.8491 50.4082 44.7238C50.6806 44.5931 50.9884 44.5277 51.3315 44.5277C51.6693 44.5277 51.9634 44.5877 52.214 44.7075C52.4646 44.8273 52.6743 44.9799 52.8431 45.1651C53.0175 45.3503 53.1536 45.5436 53.2517 45.7452L52.4673 46.1864C52.3965 46.0448 52.3066 45.9141 52.1977 45.7942C52.0887 45.6689 51.9607 45.5709 51.8136 45.5001C51.672 45.4238 51.5059 45.3857 51.3152 45.3857C51.0483 45.3857 50.8522 45.4483 50.7269 45.5736C50.6016 45.6934 50.539 45.8351 50.539 45.9985C50.539 46.1456 50.5826 46.279 50.6697 46.3989C50.7623 46.5132 50.9039 46.6222 51.0946 46.7257C51.2852 46.8292 51.5331 46.9354 51.8381 47.0443C52.007 47.1043 52.1759 47.1805 52.3447 47.2731C52.519 47.3657 52.677 47.4828 52.8186 47.6245C52.9603 47.7606 53.0719 47.9213 53.1536 48.1065C53.2408 48.2917 53.2844 48.5096 53.2844 48.7602C53.2844 49.0271 53.2326 49.2668 53.1291 49.4792C53.0256 49.6917 52.884 49.8714 52.7042 50.0185C52.5245 50.1601 52.3202 50.2691 52.0914 50.3453C51.8681 50.427 51.6339 50.4679 51.3887 50.4679C51.051 50.4679 50.7378 50.4025 50.4491 50.2718C50.1658 50.1356 49.918 49.9559 49.7056 49.7325C49.4931 49.5092 49.3243 49.2668 49.199 49.0053L49.918 48.5069Z" fill="#0F252A"/>
<path d="M57.9262 47.7225V46.8319H62.0034V47.7225H57.9262ZM61.3824 44.6258H62.3466V50.3453H61.3824V44.6258ZM57.5422 44.6258H58.5063V50.3453H57.5422V44.6258Z" fill="#0F252A"/>
<path d="M66.8907 44.6258H67.863V50.3453H66.8907V44.6258Z" fill="#0F252A"/>
<path d="M73.1037 47.4856C73.1037 47.8778 73.1854 48.2291 73.3488 48.5396C73.5177 48.8446 73.7492 49.0843 74.0433 49.2586C74.3375 49.4329 74.6725 49.5201 75.0483 49.5201C75.4296 49.5201 75.7646 49.4329 76.0533 49.2586C76.3475 49.0843 76.5763 48.8446 76.7397 48.5396C76.9086 48.2291 76.993 47.8778 76.993 47.4856C76.993 47.0934 76.9113 46.7447 76.7479 46.4397C76.5844 46.1292 76.3557 45.8868 76.0615 45.7125C75.7728 45.5382 75.4351 45.451 75.0483 45.451C74.6725 45.451 74.3375 45.5382 74.0433 45.7125C73.7492 45.8868 73.5177 46.1292 73.3488 46.4397C73.1854 46.7447 73.1037 47.0934 73.1037 47.4856ZM72.0823 47.4856C72.0823 47.0552 72.1559 46.6603 72.303 46.3008C72.45 45.9413 72.657 45.6308 72.9239 45.3693C73.1963 45.1024 73.5122 44.8954 73.8717 44.7484C74.2367 44.6013 74.6289 44.5277 75.0483 44.5277C75.4787 44.5277 75.8736 44.6013 76.2331 44.7484C76.5926 44.8954 76.9058 45.1024 77.1727 45.3693C77.4451 45.6308 77.6548 45.9413 77.8019 46.3008C77.949 46.6603 78.0225 47.0552 78.0225 47.4856C78.0225 47.9104 77.949 48.3054 77.8019 48.6703C77.6548 49.0353 77.4478 49.3512 77.1809 49.6181C76.914 49.8851 76.5981 50.0948 76.2331 50.2473C75.8736 50.3944 75.4787 50.4679 75.0483 50.4679C74.6235 50.4679 74.2285 50.3944 73.8636 50.2473C73.4986 50.0948 73.1827 49.8851 72.9158 49.6181C72.6543 49.3512 72.45 49.0353 72.303 48.6703C72.1559 48.3054 72.0823 47.9104 72.0823 47.4856Z" fill="#0F252A"/>
<path d="M86.4038 44.6258H87.3516V50.6313L83.1763 46.5051V50.3453H82.2285V44.3398L86.4038 48.4661V44.6258Z" fill="#0F252A"/>
<path d="M97.9902 47.7225V46.8319H102.067V47.7225H97.9902ZM101.446 44.6258H102.411V50.3453H101.446V44.6258ZM97.6062 44.6258H98.5703V50.3453H97.6062V44.6258Z" fill="#0F252A"/>
<path d="M106.914 44.6258H107.878V48.4252C107.878 48.7793 107.971 49.0653 108.156 49.2831C108.346 49.4956 108.627 49.6018 108.997 49.6018C109.362 49.6018 109.64 49.4956 109.831 49.2831C110.021 49.0653 110.117 48.7793 110.117 48.4252V44.6258H111.081V48.4661C111.081 48.782 111.029 49.0653 110.926 49.3158C110.828 49.5609 110.686 49.7707 110.501 49.945C110.316 50.1193 110.095 50.2527 109.839 50.3453C109.583 50.4379 109.302 50.4842 108.997 50.4842C108.692 50.4842 108.412 50.4379 108.156 50.3453C107.9 50.2527 107.676 50.1193 107.486 49.945C107.301 49.7707 107.159 49.5609 107.061 49.3158C106.963 49.0653 106.914 48.782 106.914 48.4661V44.6258Z" fill="#0F252A"/>
<path d="M116.32 47.3957V46.9218H117.244C117.424 46.9218 117.581 46.8918 117.718 46.8319C117.854 46.772 117.96 46.6876 118.036 46.5786C118.113 46.4642 118.151 46.328 118.151 46.1701C118.151 45.9304 118.066 45.7452 117.897 45.6145C117.729 45.4837 117.511 45.4184 117.244 45.4184H116.549V49.5528H117.35C117.568 49.5528 117.761 49.5174 117.93 49.4466C118.099 49.3757 118.232 49.2695 118.33 49.1279C118.429 48.9863 118.478 48.8092 118.478 48.5968C118.478 48.4443 118.448 48.3108 118.388 48.1964C118.333 48.0766 118.254 47.9785 118.151 47.9023C118.053 47.8206 117.936 47.7634 117.799 47.7307C117.663 47.6926 117.513 47.6735 117.35 47.6735H116.32V47.1424H117.407C117.685 47.1424 117.946 47.1724 118.192 47.2323C118.437 47.2922 118.655 47.3848 118.845 47.5101C119.041 47.6354 119.194 47.7961 119.303 47.9922C119.412 48.1883 119.466 48.4225 119.466 48.6948C119.466 49.0707 119.376 49.3812 119.197 49.6263C119.022 49.8714 118.78 50.0539 118.469 50.1738C118.164 50.2881 117.81 50.3453 117.407 50.3453H115.585V44.6258H117.309C117.669 44.6258 117.985 44.6775 118.257 44.781C118.535 44.8845 118.75 45.0425 118.902 45.2549C119.06 45.4674 119.139 45.737 119.139 46.0638C119.139 46.3471 119.06 46.5895 118.902 46.791C118.75 46.9871 118.535 47.1369 118.257 47.2404C117.985 47.3439 117.669 47.3957 117.309 47.3957H116.32Z" fill="#0F252A"/>
<path d="M27.4189 48.4385H1M128.464 48.4385H151.887" stroke="#0F252A" stroke-width="0.737897" stroke-linecap="round"/>
</svg>
