<svg width="163" height="52" viewBox="0 0 163 52" fill="none" xmlns="http://www.w3.org/2000/svg">
<rect x="1.53721" y="1.37071" width="160.544" height="49.1553" stroke="#0F252A" stroke-width="1.47579"/>
<path d="M27.8367 32.1364C26.7167 32.1364 25.7304 31.8832 24.8776 31.3767C24.0313 30.8702 23.3694 30.1169 22.8922 29.1168C22.4149 28.1167 22.1763 26.8761 22.1763 25.3952C22.1763 23.9078 22.4117 22.6641 22.8826 21.664C23.3599 20.6639 24.0249 19.9106 24.8776 19.4041C25.7304 18.8912 26.7167 18.6348 27.8367 18.6348C29.4531 18.6348 30.6844 19.0194 31.5308 19.7888C32.3772 20.5581 32.8799 21.555 33.039 22.7795L29.7935 23.3469C29.6472 22.7955 29.4149 22.3403 29.0967 21.9813C28.7849 21.6159 28.3649 21.4332 27.8367 21.4332C27.3658 21.4332 26.949 21.5774 26.5863 21.8659C26.2299 22.148 25.9531 22.5808 25.7558 23.1642C25.5585 23.7476 25.4599 24.4912 25.4599 25.3952C25.4599 26.2799 25.5617 27.014 25.7654 27.5974C25.969 28.1744 26.249 28.6039 26.6054 28.886C26.9681 29.1681 27.3785 29.3091 27.8367 29.3091C28.4922 29.3091 28.9822 29.136 29.3067 28.7898C29.6313 28.4372 29.7935 28.0109 29.7935 27.5108H33.0199C33.0199 28.5045 32.8194 29.3476 32.4185 30.04C32.024 30.726 31.4417 31.2485 30.6717 31.6075C29.9017 31.9601 28.9567 32.1364 27.8367 32.1364Z" fill="#0F252A"/>
<path d="M44.1742 32.1364C42.9587 32.1364 41.896 31.8799 40.986 31.3671C40.0824 30.8478 39.3792 30.0849 38.8765 29.0783C38.3737 28.0654 38.1224 26.8184 38.1224 25.3375C38.1224 23.8181 38.3737 22.5647 38.8765 21.5774C39.3792 20.5837 40.0824 19.8465 40.986 19.3656C41.896 18.8784 42.9587 18.6348 44.1742 18.6348C45.4024 18.6348 46.4715 18.888 47.3815 19.3945C48.2978 19.9009 49.0074 20.651 49.5101 21.6447C50.0128 22.6385 50.2642 23.8694 50.2642 25.3375C50.2642 26.8441 50.0128 28.1039 49.5101 29.1168C49.0074 30.1233 48.2978 30.8798 47.3815 31.3863C46.4715 31.8864 45.4024 32.1364 44.1742 32.1364ZM44.1742 29.3764C45.0651 29.3764 45.7778 29.0238 46.3124 28.3186C46.8469 27.607 47.1142 26.6069 47.1142 25.3183C47.1142 24.1066 46.8469 23.1513 46.3124 22.4525C45.7778 21.7473 45.0651 21.3947 44.1742 21.3947C43.3087 21.3947 42.6087 21.7473 42.0742 22.4525C41.5396 23.1513 41.2724 24.113 41.2724 25.3375C41.2724 26.6133 41.5396 27.607 42.0742 28.3186C42.6087 29.0238 43.3087 29.3764 44.1742 29.3764Z" fill="#0F252A"/>
<path d="M56.0712 18.9233H59.2594L64.4044 26.7319H64.1944V18.9233H67.2489V31.8287H64.2994L58.6199 23.2507H59.1258V31.8287H56.0712V18.9233Z" fill="#0F252A"/>
<path d="M78.7885 32.1364C77.6685 32.1364 76.6821 31.8832 75.8294 31.3767C74.983 30.8702 74.3212 30.1169 73.844 29.1168C73.3667 28.1167 73.128 26.8761 73.128 25.3952C73.128 23.9078 73.3635 22.6641 73.8344 21.664C74.3117 20.6639 74.9767 19.9106 75.8294 19.4041C76.6821 18.8912 77.6685 18.6348 78.7885 18.6348C80.4049 18.6348 81.6362 19.0194 82.4826 19.7888C83.3289 20.5581 83.8317 21.555 83.9908 22.7795L80.7453 23.3469C80.5989 22.7955 80.3667 22.3403 80.0485 21.9813C79.7367 21.6159 79.3167 21.4332 78.7885 21.4332C78.3176 21.4332 77.9008 21.5774 77.538 21.8659C77.1817 22.148 76.9049 22.5808 76.7076 23.1642C76.5103 23.7476 76.4117 24.4912 76.4117 25.3952C76.4117 26.2799 76.5135 27.014 76.7171 27.5974C76.9208 28.1744 77.2008 28.6039 77.5571 28.886C77.9199 29.1681 78.3303 29.3091 78.7885 29.3091C79.4439 29.3091 79.9339 29.136 80.2585 28.7898C80.583 28.4372 80.7453 28.0109 80.7453 27.5108H83.9717C83.9717 28.5045 83.7712 29.3476 83.3703 30.04C82.9758 30.726 82.3935 31.2485 81.6235 31.6075C80.8535 31.9601 79.9085 32.1364 78.7885 32.1364Z" fill="#0F252A"/>
<path d="M92.921 18.9233V29.136H97.7605V31.8287H89.8664V18.9233H92.921Z" fill="#0F252A"/>
<path d="M103.172 18.9233H106.227V26.7511C106.227 27.6679 106.459 28.3282 106.923 28.7321C107.388 29.136 107.97 29.338 108.67 29.338C109.383 29.338 109.972 29.136 110.436 28.7321C110.907 28.3282 111.142 27.6679 111.142 26.7511V18.9233H114.187V26.7511C114.187 27.841 113.974 28.7898 113.548 29.5976C113.122 30.4054 112.498 31.0305 111.677 31.4728C110.856 31.9152 109.854 32.1364 108.67 32.1364C107.487 32.1364 106.484 31.9152 105.663 31.4728C104.849 31.0305 104.228 30.4054 103.802 29.5976C103.382 28.7898 103.172 27.841 103.172 26.7511V18.9233Z" fill="#0F252A"/>
<path d="M119.352 31.8287L123.666 18.9233H127.551L131.627 31.8287H128.41L127.714 29.5592H123.294L122.597 31.8287H119.352ZM124.067 27.28H127.017L125.566 22.5583L124.067 27.28Z" fill="#0F252A"/>
<path d="M141.835 32.1364C140.919 32.1364 140.069 31.9825 139.287 31.6748C138.504 31.3607 137.868 30.8734 137.378 30.2131C136.888 29.5463 136.617 28.6808 136.566 27.6166H139.583C139.583 28.0077 139.681 28.3314 139.879 28.5879C140.076 28.8443 140.343 29.0335 140.68 29.1553C141.024 29.2771 141.403 29.338 141.816 29.338C142.147 29.338 142.456 29.3091 142.742 29.2514C143.035 29.1937 143.27 29.0912 143.449 28.9437C143.627 28.7962 143.716 28.5943 143.716 28.3379C143.716 28.0237 143.62 27.7897 143.429 27.6358C143.245 27.482 142.908 27.3057 142.418 27.1069L139.63 25.8856C138.714 25.4882 138.001 25.0202 137.492 24.4816C136.983 23.9431 136.729 23.209 136.729 22.2794C136.729 21.1896 137.168 20.3112 138.046 19.6445C138.93 18.9713 140.139 18.6348 141.673 18.6348C143.232 18.6348 144.429 19.0066 145.262 19.7503C146.096 20.4876 146.564 21.5422 146.665 22.9141H143.668C143.592 22.491 143.404 22.1352 143.105 21.8467C142.812 21.5582 142.335 21.4139 141.673 21.4139C141.196 21.4139 140.811 21.5037 140.518 21.6832C140.225 21.8563 140.079 22.0743 140.079 22.3371C140.079 22.5808 140.171 22.7731 140.356 22.9141C140.547 23.0552 140.83 23.209 141.205 23.3757L144.155 24.6355C145.135 25.065 145.864 25.5683 146.341 26.1453C146.824 26.7223 147.066 27.4147 147.066 28.2225C147.066 29.0879 146.859 29.8124 146.446 30.3958C146.039 30.9728 145.444 31.4087 144.661 31.7036C143.884 31.9921 142.943 32.1364 141.835 32.1364Z" fill="#0F252A"/>
</svg>
