<svg width="66" height="53" viewBox="0 0 66 53" fill="none" xmlns="http://www.w3.org/2000/svg">
<path d="M44.208 8.55826C39.6138 4.04886 33.3037 1.26562 26.3404 1.26562C12.2884 1.26562 0.896973 12.5998 0.896973 26.5812C0.896973 40.5626 12.2884 51.8967 26.3404 51.8967C32.7307 51.8967 38.5709 49.5527 43.0396 45.6816" stroke="#0F252A" stroke-width="0.737897"/>
<path d="M27.937 10.4648C28.7563 10.4952 29.8487 10.5255 31.2142 10.5559C32.5797 10.5862 33.9452 10.6014 35.3107 10.6014C36.7976 10.6014 38.2238 10.5862 39.5893 10.5559C40.9852 10.5255 41.9714 10.5104 42.5479 10.5104C46.4927 10.5104 49.4361 11.1779 51.3782 12.5131C53.3506 13.8483 54.3368 15.5627 54.3368 17.6565C54.3368 18.7186 53.9878 19.811 53.2899 20.9337C52.592 22.0261 51.5147 23.0123 50.0582 23.8923C48.632 24.742 46.7962 25.3337 44.5507 25.6675V25.7585C47.5244 25.9406 49.8913 26.4564 51.6513 27.3061C53.4416 28.1254 54.7313 29.1116 55.5202 30.2647C56.3092 31.4178 56.7037 32.6164 56.7037 33.8605C56.7037 35.8329 56.1726 37.4715 55.1106 38.7763C54.0789 40.0811 52.5768 41.0673 50.6044 41.7349C48.6623 42.3722 46.3258 42.6908 43.5948 42.6908C42.8665 42.6908 41.8045 42.6756 40.4086 42.6453C39.0128 42.5846 37.3438 42.5542 35.4018 42.5542C33.9756 42.5542 32.5797 42.5694 31.2142 42.5997C29.8487 42.5997 28.7563 42.6301 27.937 42.6908V41.7804C28.8777 41.7197 29.5756 41.5984 30.0308 41.4163C30.5163 41.2342 30.8349 40.8701 30.9866 40.3239C31.1687 39.7777 31.2597 38.9584 31.2597 37.866V15.2896C31.2597 14.1669 31.1687 13.3476 30.9866 12.8317C30.8349 12.2855 30.5163 11.9214 30.0308 11.7393C29.5756 11.5269 28.8777 11.4055 27.937 11.3752V10.4648ZM42.1383 11.3752C41.0459 11.3752 40.3328 11.6331 39.999 12.149C39.6652 12.6648 39.4983 13.7117 39.4983 15.2896V37.866C39.4983 38.928 39.5742 39.7322 39.7259 40.2784C39.9079 40.8246 40.2114 41.1887 40.6362 41.3708C41.061 41.5528 41.6983 41.6439 42.5479 41.6439C44.49 41.6439 45.901 40.9611 46.781 39.5956C47.6913 38.1998 48.1465 36.2274 48.1465 33.6784C48.1465 31.3419 47.5699 29.5364 46.4168 28.2619C45.2941 26.9875 43.4127 26.3502 40.7728 26.3502H37.1769C37.1769 26.3502 37.1769 26.2288 37.1769 25.9861C37.1769 25.713 37.1769 25.5764 37.1769 25.5764H41.0914C42.3962 25.5764 43.3976 25.2426 44.0955 24.5751C44.7934 23.8771 45.2789 22.9668 45.552 21.8441C45.8251 20.691 45.9617 19.462 45.9617 18.1572C45.9617 15.9117 45.6582 14.2276 45.0513 13.1048C44.4748 11.9517 43.5038 11.3752 42.1383 11.3752Z" fill="#0F252A"/>
<circle cx="20.8429" cy="25.5585" r="8.69423" fill="#0F252A"/>
<circle cx="61.6292" cy="37.9608" r="3.70783" fill="#0F252A"/>
<path d="M20.2293 41.9474H19.8201V40.3466H20.2293V41.9474ZM21.6612 41.9474H21.2521V40.3978H21.6612V41.9474ZM19.8201 42.1878V41.7531H23.4001V42.1878H19.8201Z" fill="#0F252A"/>
<path d="M22.3261 37.8576L21.917 37.7042V36.1188L22.3261 35.9653V37.8576ZM20.6282 36.9217L22.0499 37.5252L22.142 37.5661L23.4001 38.098V38.5838L19.6411 36.9217L23.4001 35.2596V35.7454L22.1727 36.2671L22.0704 36.308L20.6282 36.9217Z" fill="#0F252A"/>
<path d="M22.3159 32.9011C22.4591 32.8193 22.5852 32.734 22.6943 32.6454C22.8034 32.5533 22.8887 32.451 22.95 32.3385C23.0114 32.226 23.0421 32.0982 23.0421 31.955C23.0421 31.764 22.9892 31.6106 22.8835 31.4947C22.7779 31.3787 22.6432 31.3208 22.4795 31.3208C22.3193 31.3208 22.1914 31.3583 22.096 31.4333C22.0005 31.5083 21.9238 31.6072 21.8658 31.7299C21.8044 31.8493 21.7499 31.9771 21.7022 32.1135C21.6715 32.2021 21.6323 32.301 21.5845 32.4101C21.5334 32.5192 21.4703 32.6232 21.3953 32.7221C21.3169 32.821 21.2214 32.9028 21.1089 32.9676C20.9964 33.0289 20.8583 33.0596 20.6946 33.0596C20.5174 33.0596 20.3588 33.0153 20.219 32.9267C20.0792 32.838 19.9701 32.7153 19.8917 32.5584C19.8099 32.4016 19.769 32.2226 19.769 32.0214C19.769 31.8271 19.8065 31.6583 19.8815 31.5151C19.9531 31.3685 20.0468 31.2441 20.1628 31.1418C20.2753 31.0395 20.3946 30.9594 20.5208 30.9014L20.7356 31.2748C20.6469 31.3191 20.56 31.3753 20.4747 31.4435C20.3895 31.5117 20.3196 31.5953 20.2651 31.6941C20.2105 31.7896 20.1832 31.9072 20.1832 32.047C20.1832 32.2414 20.231 32.3828 20.3264 32.4715C20.4185 32.5601 20.5225 32.6045 20.6384 32.6045C20.7373 32.6045 20.8293 32.5789 20.9146 32.5278C20.9964 32.4766 21.0748 32.3914 21.1498 32.272C21.2214 32.1493 21.293 31.9839 21.3646 31.776C21.3987 31.6805 21.443 31.5799 21.4976 31.4742C21.5521 31.3685 21.622 31.2713 21.7073 31.1827C21.7891 31.0906 21.8897 31.0156 22.009 30.9577C22.1249 30.8997 22.2647 30.8707 22.4284 30.8707C22.5852 30.8707 22.7267 30.9014 22.8529 30.9628C22.979 31.0207 23.0864 31.1026 23.1751 31.2083C23.2637 31.3106 23.3319 31.4282 23.3796 31.5612C23.4274 31.6907 23.4512 31.8271 23.4512 31.9703C23.4512 32.1646 23.4103 32.3453 23.3285 32.5124C23.2433 32.6761 23.1324 32.821 22.9961 32.9471C22.8563 33.0699 22.708 33.1704 22.5511 33.2489L22.3159 32.9011Z" fill="#0F252A"/>
<path d="M21.6612 28.2019H21.2521V25.747H21.6612V28.2019ZM19.8201 26.0385V25.6038H23.4001V26.0385H19.8201ZM19.8201 28.4422V28.0075H23.4001V28.4422H19.8201Z" fill="#0F252A"/>
<path d="M19.8201 22.9963V22.5616H23.4001V22.9963H19.8201Z" fill="#0F252A"/>
<path d="M21.6101 19.6971C21.8795 19.6971 22.1198 19.6391 22.3312 19.5232C22.5426 19.4038 22.7097 19.2419 22.8324 19.0373C22.9551 18.8327 23.0165 18.6009 23.0165 18.3418C23.0165 18.0792 22.9551 17.8474 22.8324 17.6462C22.7097 17.4417 22.5426 17.2814 22.3312 17.1655C22.1198 17.0462 21.8795 16.9865 21.6101 16.9865C21.3407 16.9865 21.1004 17.0462 20.889 17.1655C20.6776 17.2814 20.5105 17.4417 20.3878 17.6462C20.2651 17.8474 20.2037 18.0792 20.2037 18.3418C20.2037 18.6009 20.2651 18.8327 20.3878 19.0373C20.5105 19.2419 20.6776 19.4038 20.889 19.5232C21.1004 19.6391 21.3407 19.6971 21.6101 19.6971ZM21.6101 20.1573C21.3476 20.1573 21.1055 20.113 20.8839 20.0244C20.6588 19.9323 20.4645 19.8045 20.3009 19.6408C20.1338 19.4771 20.0042 19.2845 19.9122 19.0629C19.8167 18.8413 19.769 18.6009 19.769 18.3418C19.769 18.0792 19.8167 17.8389 19.9122 17.6207C20.0042 17.399 20.1338 17.2064 20.3009 17.0428C20.4645 16.8791 20.6588 16.7529 20.8839 16.6643C21.1055 16.5722 21.3476 16.5262 21.6101 16.5262C21.8692 16.5262 22.1113 16.5722 22.3363 16.6643C22.5614 16.7529 22.7574 16.8791 22.9245 17.0428C23.0881 17.2064 23.2177 17.399 23.3131 17.6207C23.4052 17.8389 23.4512 18.0792 23.4512 18.3418C23.4512 18.6009 23.4052 18.8413 23.3131 19.0629C23.2177 19.2845 23.0881 19.4771 22.9245 19.6408C22.7574 19.8045 22.5614 19.9323 22.3363 20.0244C22.1113 20.113 21.8692 20.1573 21.6101 20.1573Z" fill="#0F252A"/>
<path d="M19.8201 11.4118V10.9771H23.5791L20.7356 13.6876H23.4001V14.1223H19.6411L22.4846 11.4118H19.8201Z" fill="#0F252A"/>
</svg>
