<svg width="105" height="26" viewBox="0 0 105 26" fill="none" xmlns="http://www.w3.org/2000/svg">
<path fill-rule="evenodd" clip-rule="evenodd" d="M13 26C20.1797 26 26 20.1797 26 13C26 5.8203 20.1797 0 13 0C5.8203 0 0 5.8203 0 13C0 20.1797 5.8203 26 13 26ZM7.46741 24.6975C8.83761 25.2468 10.1723 25.454 11.4714 25.3191C13.366 25.1223 14.9713 24.511 16.2873 23.4851C17.6575 22.4535 18.7959 21.2978 19.7025 20.018C20.6583 18.6837 21.263 17.6575 21.5167 16.9395C21.8246 16.2159 21.8432 15.8681 21.5725 15.8963C21.0853 15.9468 20.2928 16.7455 19.195 18.2922C18.7146 18.9349 18.1065 19.665 17.3707 20.4825C16.6298 21.2511 15.8762 21.8975 15.1099 22.4217C14.5991 22.7711 14.002 23.0802 13.3186 23.3488C12.6352 23.6173 11.9687 23.7854 11.3191 23.8528C10.5613 23.9315 9.89397 23.8279 9.31714 23.542C8.73522 23.2072 8.39604 22.5755 8.2996 21.6469C8.24884 21.1581 8.2742 20.612 8.37568 20.0087C8.78668 17.644 9.8278 15.2881 11.499 12.9408C13.1652 10.5446 15.0123 8.57426 17.0405 7.02975C17.7476 6.46229 18.4259 6.14483 19.0755 6.07737C19.8333 5.99866 20.2452 6.27701 20.3112 6.91239C20.3721 7.4989 20.0863 8.17083 19.4536 8.92817C18.64 10.0501 17.5236 11.1541 16.1044 12.2402C14.7342 13.2717 13.4258 14.371 12.1791 15.5379C10.9324 16.7048 10.1146 18.0496 9.72556 19.5721C9.60378 19.9799 9.73234 20.1642 10.1113 20.1248C10.3278 20.1023 10.4775 19.9633 10.5604 19.7077C10.8581 18.8863 11.6159 18.0172 12.8338 17.1002C14.1008 16.1288 15.5031 15.1433 17.0407 14.1438C18.5732 13.0953 19.9163 12.0666 21.07 11.0575C21.7669 10.3923 22.3209 9.66786 22.7319 8.88413C23.1379 8.05152 23.3079 7.31752 23.2419 6.68214C23.186 6.1445 22.9458 5.67542 22.5212 5.27489C22.3517 5.11501 22.1591 5.13169 21.9252 5.15195C21.602 5.17994 21.1999 5.21476 20.6708 4.80012C20.3914 4.58117 20.1844 4.38675 20.006 4.21917C19.602 3.8397 19.3445 3.59783 18.7244 3.52026C18.0627 3.43748 17.0227 3.6969 17.0227 3.6969C17.0227 3.6969 14.0692 4.49766 12.5468 5.64383C11.0244 6.79 9.61364 8.22098 8.31455 9.9368C7.06958 11.647 6.07835 13.4296 5.34086 15.2847C4.65243 17.0853 4.38436 18.7188 4.53663 20.185C4.58232 20.6249 4.64238 20.9398 4.71681 21.1297C5.2294 22.9044 6.14627 24.0936 7.46741 24.6975Z" fill="#FFB606"/>
<path d="M25.2143 24.4761V1.26179H28.2167V24.4761H25.2143ZM37.9761 24.7237C36.5317 24.7237 35.2317 24.4348 34.0761 23.857C32.9412 23.2586 32.0332 22.4332 31.3523 21.3808C30.6713 20.3078 30.3309 19.0594 30.3309 17.6356C30.3309 16.2737 30.661 15.0562 31.3213 13.9832C31.9817 12.9102 32.869 12.0642 33.9832 11.4451C35.0975 10.8054 36.3459 10.4856 37.7285 10.4856C39.0491 10.4856 40.2563 10.8054 41.3499 11.4451C42.4436 12.0642 43.3205 12.8999 43.9809 13.9523C44.6618 15.0046 45.0023 16.2015 45.0023 17.5427V18.4094H32.5904V16.1808H41.9999C41.8348 15.2729 41.3602 14.5094 40.5761 13.8904C39.792 13.2507 38.8531 12.9308 37.7594 12.9308C36.8721 12.9308 36.0983 13.1372 35.438 13.5499C34.7983 13.9419 34.3031 14.4888 33.9523 15.1904C33.6015 15.8713 33.4261 16.6554 33.4261 17.5427C33.4261 18.4919 33.6221 19.3173 34.0142 20.0189C34.4269 20.7205 34.9531 21.2673 35.5928 21.6594C36.2531 22.0308 36.9547 22.2166 37.6975 22.2166C38.3372 22.2166 38.9253 22.1443 39.4618 21.9999C40.019 21.8348 40.5142 21.6181 40.9475 21.3499C41.4015 21.0816 41.7832 20.7515 42.0928 20.3594L44.0737 22.0308C43.6404 22.5673 43.0936 23.0419 42.4332 23.4546C41.7729 23.8467 41.061 24.1562 40.2975 24.3832C39.534 24.6102 38.7602 24.7237 37.9761 24.7237ZM52.5264 24.7856C51.247 24.7856 50.1018 24.4554 49.0907 23.7951C48.0796 23.1142 47.2851 22.2372 46.7073 21.1642C46.1502 20.0705 45.8716 18.9046 45.8716 17.6665C45.8716 16.4078 46.1502 15.2419 46.7073 14.1689C47.2851 13.0959 48.0796 12.2292 49.0907 11.5689C50.1018 10.888 51.247 10.5475 52.5264 10.5475C53.5581 10.5475 54.497 10.7539 55.343 11.1666C56.1891 11.5792 56.9113 12.1777 57.5097 12.9618V10.857H60.5121V24.4761H57.5097V22.3713C57.1589 22.8666 56.7256 23.2999 56.2097 23.6713C55.6938 24.0427 55.1264 24.3213 54.5073 24.507C53.8883 24.6927 53.228 24.7856 52.5264 24.7856ZM53.2383 22.0927C54.0637 22.0927 54.7962 21.8864 55.4359 21.4737C56.0756 21.061 56.5811 20.5245 56.9526 19.8642C57.324 19.1832 57.5097 18.4507 57.5097 17.6665C57.5097 16.8824 57.324 16.1602 56.9526 15.4999C56.5811 14.8189 56.0756 14.2721 55.4359 13.8594C54.7962 13.4467 54.0637 13.2404 53.2383 13.2404C52.4129 13.2404 51.6803 13.4467 51.0407 13.8594C50.401 14.2721 49.8954 14.8189 49.524 15.4999C49.1526 16.1602 48.9669 16.8824 48.9669 17.6665C48.9669 18.4507 49.1526 19.1832 49.524 19.8642C49.8954 20.5245 50.401 21.061 51.0407 21.4737C51.6803 21.8864 52.4129 22.0927 53.2383 22.0927ZM63.4226 24.4761V10.857H66.394V13.1785C66.6623 12.5594 66.9718 12.0642 67.3226 11.6927C67.694 11.3007 68.1067 11.0118 68.5607 10.8261C69.0147 10.6404 69.4996 10.5475 70.0154 10.5475C70.2424 10.5475 70.4797 10.5785 70.7273 10.6404C70.975 10.6816 71.1916 10.7539 71.3773 10.857V14.138C71.1504 13.8904 70.8821 13.715 70.5726 13.6118C70.2837 13.488 69.9845 13.4261 69.675 13.4261C69.0353 13.4261 68.4678 13.6427 67.9726 14.0761C67.4773 14.4888 67.0853 15.015 66.7964 15.6546C66.5281 16.2943 66.394 16.965 66.394 17.6665V24.4761H63.4226ZM73.0964 24.4761V10.857H76.0678V12.9618C76.5218 12.2808 77.1099 11.7134 77.8321 11.2594C78.575 10.7848 79.4313 10.5475 80.4012 10.5475C81.5155 10.5475 82.444 10.7745 83.1869 11.2285C83.9504 11.6824 84.5178 12.3324 84.8893 13.1785C85.2607 14.0245 85.4464 15.0356 85.4464 16.2118V24.4761H82.475V16.2118C82.475 15.6753 82.3924 15.18 82.2274 14.7261C82.0829 14.2721 81.8353 13.911 81.4845 13.6427C81.1337 13.3745 80.6488 13.2404 80.0297 13.2404C79.1424 13.2404 78.3996 13.4777 77.8012 13.9523C77.2234 14.4062 76.7901 15.0253 76.5012 15.8094C76.2123 16.5935 76.0678 17.4602 76.0678 18.4094V24.4761H73.0964ZM93.8502 24.7856C92.5709 24.7856 91.4256 24.4554 90.4145 23.7951C89.4034 23.1142 88.609 22.2372 88.0312 21.1642C87.474 20.0705 87.1955 18.9046 87.1955 17.6665C87.1955 16.4078 87.474 15.2419 88.0312 14.1689C88.609 13.0959 89.4034 12.2292 90.4145 11.5689C91.4256 10.888 92.5709 10.5475 93.8502 10.5475C94.882 10.5475 95.8209 10.7539 96.6669 11.1666C97.5129 11.5792 98.2351 12.1777 98.8336 12.9618V10.857H101.836V24.4761H98.8336V22.3713C98.4828 22.8666 98.0494 23.2999 97.5336 23.6713C97.0177 24.0427 96.4502 24.3213 95.8312 24.507C95.2121 24.6927 94.5518 24.7856 93.8502 24.7856ZM94.5621 22.0927C95.3875 22.0927 96.1201 21.8864 96.7598 21.4737C97.3994 21.061 97.905 20.5245 98.2764 19.8642C98.6478 19.1832 98.8336 18.4507 98.8336 17.6665C98.8336 16.8824 98.6478 16.1602 98.2764 15.4999C97.905 14.8189 97.3994 14.2721 96.7598 13.8594C96.1201 13.4467 95.3875 13.2404 94.5621 13.2404C93.7367 13.2404 93.0042 13.4467 92.3645 13.8594C91.7248 14.2721 91.2193 14.8189 90.8478 15.4999C90.4764 16.1602 90.2907 16.8824 90.2907 17.6665C90.2907 18.4507 90.4764 19.1832 90.8478 19.8642C91.2193 20.5245 91.7248 21.061 92.3645 21.4737C93.0042 21.8864 93.7367 22.0927 94.5621 22.0927Z" fill="white"/>
</svg>
