<svg width="16" height="16" viewBox="0 0 16 16" fill="none" xmlns="http://www.w3.org/2000/svg">
<path d="M2.15073 2.70409V1.71354C2.15073 1.31946 2.47019 1 2.86427 1H5.37715H14.2108C14.6049 1 14.9243 1.31946 14.9243 1.71354V14.2799C14.9243 14.6765 14.6008 14.997 14.2042 14.9934L5.37715 14.9122L2.8577 14.889C2.46621 14.8854 2.15073 14.567 2.15073 14.1755V13.4428H1.54866C1.20384 13.4428 0.924316 13.1633 0.924316 12.8185C0.924316 12.4737 1.20384 12.1941 1.54866 12.1941H2.15073V10.1815H1.46052C1.16438 10.1815 0.924316 9.94147 0.924316 9.64533C0.924316 9.34919 1.16438 9.10913 1.46052 9.10913H2.15073V7.03778H1.47521C1.17096 7.03778 0.924316 6.79113 0.924316 6.48688C0.924316 6.18263 1.17096 5.93599 1.47521 5.93599H2.15073V3.87933H1.51193C1.1874 3.87933 0.924316 3.61624 0.924316 3.29171C0.924316 2.96718 1.1874 2.70409 1.51193 2.70409H2.15073Z" fill="white"/>
<path d="M2.15073 2.70409V1.71354C2.15073 1.31946 2.47019 1 2.86427 1H5.37715M2.15073 2.70409H1.51193C1.1874 2.70409 0.924316 2.96718 0.924316 3.29171V3.29171C0.924316 3.61624 1.1874 3.87933 1.51193 3.87933H2.15073M2.15073 2.70409H2.95934C3.28387 2.70409 3.54696 2.96718 3.54696 3.29171V3.29171C3.54696 3.61624 3.28387 3.87933 2.95934 3.87933H2.15073M2.15073 13.4428V14.1755C2.15073 14.567 2.46621 14.8854 2.8577 14.889L5.37715 14.9122M2.15073 13.4428H1.54866C1.20384 13.4428 0.924316 13.1633 0.924316 12.8185V12.8185C0.924316 12.4737 1.20384 12.1941 1.54866 12.1941H2.15073M2.15073 13.4428H2.92261C3.26743 13.4428 3.54696 13.1633 3.54696 12.8185V12.8185C3.54696 12.4737 3.26743 12.1941 2.92261 12.1941H2.15073M2.15073 12.1941V10.1815M2.15073 10.1815H1.46052C1.16438 10.1815 0.924316 9.94147 0.924316 9.64533V9.64533C0.924316 9.34919 1.16438 9.10913 1.46052 9.10913H2.15073M2.15073 10.1815H3.01076C3.30689 10.1815 3.54696 9.94147 3.54696 9.64533V9.64533C3.54696 9.34919 3.30689 9.10913 3.01076 9.10913H2.15073M2.15073 9.10913V7.03778M2.15073 7.03778H1.47521C1.17096 7.03778 0.924316 6.79113 0.924316 6.48688V6.48688C0.924316 6.18263 1.17096 5.93599 1.47521 5.93599H2.15073M2.15073 7.03778H2.99607C3.30032 7.03778 3.54696 6.79113 3.54696 6.48688V6.48688C3.54696 6.18263 3.30031 5.93599 2.99607 5.93599H2.15073M2.15073 5.93599V3.87933M5.37715 14.9122L14.2042 14.9934C14.6008 14.997 14.9243 14.6765 14.9243 14.2799V1.71354C14.9243 1.31946 14.6049 1 14.2108 1H5.37715M5.37715 14.9122V1M7.29975 12.6936H13.2093C13.302 12.6936 13.3771 12.6184 13.3771 12.5257V10.3494C13.3771 10.2567 13.302 10.1815 13.2093 10.1815H7.29975C7.20703 10.1815 7.13186 10.2567 7.13186 10.3494V12.5257C7.13186 12.6184 7.20703 12.6936 7.29975 12.6936Z" stroke="white" stroke-width="0.5"/>
</svg>
