<svg width="13" height="14" viewBox="0 0 13 14" fill="none" xmlns="http://www.w3.org/2000/svg">
<path d="M3.31663 3.24151C3.36489 1.43595 4.76844 0.0583582 6.52099 0.0017313C8.33228 -0.0567938 9.88323 1.37543 9.93303 3.24151C9.98415 5.15683 8.38007 6.72481 6.52099 6.66466C4.71909 6.60637 3.26702 5.09791 3.31663 3.24151Z" fill="white"/>
<path d="M3.55399 6.60353C4.45596 7.55713 5.90781 7.85666 6.52099 7.88722C7.66031 8.13803 9.09238 7.13593 9.666 6.60353C10.924 6.60353 11.6143 7.45932 11.8022 7.88722C13.5809 12.6552 11.673 13.9491 10.4968 14H2.90125C-0.718482 14 0.705675 9.44598 1.35841 7.88722C1.88061 6.64021 3.03971 6.51184 3.55399 6.60353Z" fill="white"/>
</svg>
