<svg width="47" height="47" viewBox="0 0 47 47" fill="none" xmlns="http://www.w3.org/2000/svg">
<path d="M45.9971 24.851C46.0934 19.8009 43.6461 8.38852 33.0857 3.13907C22.5252 -2.11038 11.9199 3.52506 7.93725 6.99896L5.14298 4.39354L2.73413 14.8152L12.7549 12.4993L10.1534 9.89389C11.5023 8.06044 16.0888 4.39354 23.643 4.39354M28.6534 14.8152C24.9277 13.0461 16.4549 12.2291 13.5258 21.5701C12.5622 26.0089 14.7977 34.52 25.6664 33.4392C28.6534 33.2462 34.3961 29.8495 33.0857 20.1226M18.7289 22.342L22.4867 26.7809L34.2419 14.1398" stroke="black"/>
<path d="M1.00291 22.149C0.906556 27.1991 3.35395 38.6115 13.9143 43.8609C24.4748 49.1104 35.0801 43.4749 39.0628 40.001L41.857 42.6065L44.2659 32.1848L34.2451 34.5007L36.8466 37.1061C35.4977 38.9396 30.9112 42.6065 23.357 42.6065" stroke="black"/>
</svg>
