<svg width="160" height="52" viewBox="0 0 160 52" fill="none" xmlns="http://www.w3.org/2000/svg">
<path d="M61.2347 25.2256C60.0029 26.4222 58.5424 27.3607 56.8531 28.0411C55.1638 28.7215 53.3279 29.0617 51.3453 29.0617C49.3392 29.0617 47.4916 28.7215 45.8022 28.0411C44.1129 27.3489 42.6407 26.387 41.3854 25.1552C40.1419 23.9117 39.1741 22.457 38.4819 20.7912C37.7898 19.1253 37.4437 17.307 37.4437 15.3361C37.4437 13.3653 37.7898 11.5469 38.4819 9.88108C39.1741 8.20351 40.1419 6.74883 41.3854 5.51705C42.6407 4.28527 44.1129 3.32917 45.8022 2.64876C47.4916 1.95661 49.3392 1.61054 51.3453 1.61054C53.3161 1.61054 55.1403 1.95075 56.8179 2.63116C58.5072 3.31157 59.9677 4.25594 61.1995 5.46426L57.4162 9.26519C56.6771 8.36188 55.7738 7.65214 54.7063 7.13596C53.6505 6.60806 52.5008 6.3441 51.2573 6.3441C50.0724 6.3441 48.9756 6.57286 47.9667 7.03038C46.9695 7.47617 46.0955 8.10966 45.3447 8.93085C44.5939 9.7403 44.0132 10.6905 43.6026 11.7815C43.192 12.8726 42.9867 14.0515 42.9867 15.3185C42.9867 16.609 43.192 17.7997 43.6026 18.8907C44.0132 19.9817 44.5939 20.9378 45.3447 21.759C46.0955 22.5684 46.9695 23.2019 47.9667 23.6594C48.9756 24.1052 50.0724 24.3281 51.2573 24.3281C52.5008 24.3281 53.6505 24.07 54.7063 23.5539C55.7621 23.026 56.6595 22.3104 57.3986 21.407L61.2347 25.2256Z" fill="#7B7C7D"/>
<path d="M80.0986 28.5338H75.6994L75.4354 26.4398C74.7902 27.214 73.9925 27.8182 73.0422 28.2522C72.092 28.6746 71.0479 28.8857 69.91 28.8857C68.6782 28.8857 67.5813 28.6511 66.6194 28.1819C65.6574 27.7009 64.9007 27.0439 64.3494 26.211C63.798 25.3663 63.5223 24.4102 63.5223 23.3427C63.5223 22.2165 63.8215 21.2252 64.4198 20.3688C65.0181 19.5124 65.8392 18.8438 66.8833 18.3628C67.9391 17.8701 69.1357 17.6237 70.4731 17.6237C71.2591 17.6237 72.0451 17.7117 72.8311 17.8877C73.6288 18.0636 74.3679 18.31 75.0483 18.6267V18.1692C75.0483 17.4653 74.8489 16.8612 74.45 16.3567C74.0629 15.8406 73.5232 15.4417 72.8311 15.1601C72.1507 14.8786 71.3881 14.7378 70.5435 14.7378C69.734 14.7378 68.9304 14.8669 68.1327 15.125C67.3467 15.383 66.6194 15.7702 65.9507 16.2863L64.5781 12.4326C65.763 11.8226 66.9596 11.3651 68.1679 11.0601C69.388 10.7433 70.5669 10.585 71.7049 10.585C73.4176 10.585 74.9016 10.9252 76.1569 11.6056C77.4121 12.2743 78.38 13.2245 79.0604 14.4563C79.7525 15.6763 80.0986 17.1251 80.0986 18.8027V28.5338ZM71.0186 24.9968C71.6873 24.9968 72.3266 24.8502 72.9367 24.5569C73.5467 24.2636 74.0394 23.8647 74.4148 23.3603C74.8019 22.8559 75.0072 22.2986 75.0307 21.6886V21.5654C74.5145 21.2135 73.9397 20.9437 73.3062 20.756C72.6844 20.5565 72.0509 20.4568 71.4057 20.4568C70.4438 20.4568 69.6578 20.668 69.0477 21.0903C68.4377 21.5126 68.1327 22.0581 68.1327 22.7268C68.1327 23.1609 68.2559 23.5539 68.5022 23.9058C68.7603 24.246 69.1064 24.5158 69.5405 24.7153C69.9745 24.903 70.4672 24.9968 71.0186 24.9968Z" fill="#7B7C7D"/>
<path d="M89.0906 28.5338H84.0403V10.9369H88.4395L88.6155 13.9812C89.2021 12.9136 89.9998 12.0807 91.0087 11.4824C92.0176 10.8841 93.1731 10.585 94.4753 10.585C94.8507 10.585 95.2261 10.6143 95.6015 10.6729C95.9886 10.7199 96.3816 10.7961 96.7804 10.9017L96.147 15.4417C95.3727 15.2188 94.6395 15.1074 93.9473 15.1074C92.9737 15.1074 92.1173 15.3303 91.3782 15.776C90.6509 16.2101 90.0878 16.8201 89.6889 17.6061C89.29 18.3804 89.0906 19.2896 89.0906 20.3336V28.5338Z" fill="#7B7C7D"/>
<path d="M104.505 28.5338H99.1032V1.43457H104.505V28.5338Z" fill="#7B7C7D"/>
<path d="M124.513 28.5338H120.114L119.85 26.4398C119.205 27.214 118.407 27.8182 117.457 28.2522C116.507 28.6746 115.462 28.8857 114.325 28.8857C113.093 28.8857 111.996 28.6511 111.034 28.1819C110.072 27.7009 109.315 27.0439 108.764 26.211C108.213 25.3663 107.937 24.4102 107.937 23.3427C107.937 22.2165 108.236 21.2252 108.834 20.3688C109.433 19.5124 110.254 18.8438 111.298 18.3628C112.354 17.8701 113.55 17.6237 114.888 17.6237C115.674 17.6237 116.46 17.7117 117.246 17.8877C118.043 18.0636 118.782 18.31 119.463 18.6267V18.1692C119.463 17.4653 119.263 16.8612 118.865 16.3567C118.477 15.8406 117.938 15.4417 117.246 15.1601C116.565 14.8786 115.803 14.7378 114.958 14.7378C114.149 14.7378 113.345 14.8669 112.547 15.125C111.761 15.383 111.034 15.7702 110.365 16.2863L108.993 12.4326C110.178 11.8226 111.374 11.3651 112.582 11.0601C113.803 10.7433 114.981 10.585 116.119 10.585C117.832 10.585 119.316 10.9252 120.571 11.6056C121.827 12.2743 122.795 13.2245 123.475 14.4563C124.167 15.6763 124.513 17.1251 124.513 18.8027V28.5338ZM115.433 24.9968C116.102 24.9968 116.741 24.8502 117.351 24.5569C117.961 24.2636 118.454 23.8647 118.829 23.3603C119.216 22.8559 119.422 22.2986 119.445 21.6886V21.5654C118.929 21.2135 118.354 20.9437 117.721 20.756C117.099 20.5565 116.466 20.4568 115.82 20.4568C114.858 20.4568 114.072 20.668 113.462 21.0903C112.852 21.5126 112.547 22.0581 112.547 22.7268C112.547 23.1609 112.67 23.5539 112.917 23.9058C113.175 24.246 113.521 24.5158 113.955 24.7153C114.389 24.903 114.882 24.9968 115.433 24.9968Z" fill="#7B7C7D"/>
<path d="M50.0706 46.4689C50.0706 46.5096 50.056 46.5445 50.027 46.5736C49.9979 46.5968 49.963 46.6084 49.9224 46.6084C49.8991 46.6084 49.87 46.6055 49.8352 46.5997C49.8061 46.5939 49.7858 46.5794 49.7741 46.5561C49.7741 46.5503 49.7654 46.5125 49.748 46.4428C49.7363 46.3672 49.7189 46.28 49.6957 46.1812C49.6782 46.0824 49.6579 45.9894 49.6346 45.9022C49.6172 45.815 49.6027 45.754 49.591 45.7191C49.5678 45.6377 49.5358 45.5622 49.4951 45.4924C49.4602 45.4168 49.4137 45.3471 49.3556 45.2831C49.3033 45.225 49.2045 45.1843 49.0592 45.1611C48.9197 45.1378 48.7744 45.1262 48.6232 45.1262C48.4779 45.1204 48.3675 45.1175 48.2919 45.1175C48.2105 45.1175 48.1146 45.1204 48.0042 45.1262C47.8996 45.132 47.8065 45.1582 47.7252 45.2047C47.6496 45.2454 47.6118 45.3267 47.6118 45.4488C47.6118 46.3265 47.6118 47.2042 47.6118 48.0819C47.6176 48.9596 47.6205 49.8374 47.6205 50.7151C47.6205 50.7848 47.6496 50.84 47.7077 50.8807C47.7659 50.9156 47.8327 50.9389 47.9083 50.9505C47.9838 50.9621 48.0478 50.9679 48.1001 50.9679C48.1408 50.9679 48.1786 50.965 48.2134 50.9592C48.2541 50.9534 48.2948 50.9505 48.3355 50.9505C48.4285 50.9505 48.475 50.997 48.475 51.09C48.475 51.119 48.4663 51.151 48.4488 51.1859C48.4314 51.2208 48.4023 51.2382 48.3617 51.2382C48.1582 51.2382 47.9519 51.2324 47.7426 51.2208C47.5334 51.2091 47.3241 51.2033 47.1148 51.2033C46.83 51.2033 46.5481 51.2121 46.2691 51.2295C46.1993 51.2353 46.1296 51.2411 46.0598 51.2469C45.9901 51.2527 45.9232 51.2556 45.8593 51.2556C45.7663 51.2556 45.7198 51.215 45.7198 51.1336C45.7198 51.0871 45.7314 51.0464 45.7547 51.0115C45.7837 50.9766 45.8244 50.9592 45.8767 50.9592C45.9 50.9592 45.9203 50.9621 45.9378 50.9679C45.961 50.9679 45.9843 50.9679 46.0075 50.9679C46.0657 50.9679 46.1383 50.965 46.2255 50.9592C46.3127 50.9476 46.3912 50.9243 46.4609 50.8894C46.5365 50.8488 46.5743 50.7906 46.5743 50.7151C46.5743 50.2559 46.5743 49.7996 46.5743 49.3462C46.5801 48.887 46.583 48.4278 46.583 47.9686C46.583 47.5385 46.5801 47.1112 46.5743 46.6869C46.5743 46.2568 46.5743 45.8295 46.5743 45.4052C46.5743 45.3413 46.5394 45.2831 46.4696 45.2308C46.4057 45.1785 46.3447 45.1495 46.2865 45.1436C46.1877 45.1262 46.0831 45.1204 45.9727 45.1262C45.868 45.1262 45.7663 45.1262 45.6675 45.1262C45.4931 45.1262 45.3391 45.1291 45.2054 45.1349C45.0775 45.1407 44.9671 45.1785 44.8741 45.2483C44.7869 45.318 44.7113 45.4517 44.6474 45.6493C44.6299 45.7017 44.6067 45.7976 44.5776 45.9371C44.5544 46.0708 44.5282 46.2015 44.4991 46.3294C44.4701 46.4515 44.4468 46.5271 44.4294 46.5561C44.412 46.5794 44.3916 46.5939 44.3684 46.5997C44.3509 46.6055 44.3277 46.6084 44.2986 46.6084C44.2521 46.6084 44.2143 46.6026 44.1853 46.591C44.162 46.5794 44.1504 46.5474 44.1504 46.4951C44.1504 46.4195 44.1562 46.344 44.1678 46.2684C44.1795 46.1928 44.1882 46.1173 44.194 46.0417C44.2056 45.8789 44.2143 45.7162 44.2201 45.5534C44.226 45.3907 44.2289 45.2279 44.2289 45.0652C44.2289 44.9954 44.2347 44.9344 44.2463 44.8821C44.2579 44.8298 44.3102 44.8036 44.4032 44.8036C44.4614 44.8036 44.5166 44.8094 44.5689 44.821C44.627 44.8269 44.6852 44.8298 44.7433 44.8298C44.7898 44.8356 44.8363 44.8385 44.8828 44.8385C44.9351 44.8385 44.9845 44.8414 45.031 44.8472C45.3565 44.853 45.6995 44.8588 46.0598 44.8646C46.426 44.8646 46.7748 44.8646 47.1061 44.8646C47.4316 44.8646 47.7746 44.8646 48.135 44.8646C48.4953 44.8588 48.8354 44.853 49.1551 44.8472C49.2655 44.8414 49.3731 44.8385 49.4777 44.8385C49.5881 44.8327 49.6986 44.8298 49.809 44.8298C49.8962 44.8298 49.9514 44.853 49.9747 44.8995C50.0037 44.9402 50.0154 44.9925 50.0095 45.0565C50.0095 45.1204 50.0095 45.1843 50.0095 45.2483C50.0095 45.3936 50.0154 45.5389 50.027 45.6842C50.0386 45.8237 50.0473 45.9661 50.0531 46.1114C50.0531 46.1696 50.056 46.2277 50.0619 46.2858C50.0677 46.344 50.0706 46.405 50.0706 46.4689Z" fill="#7B7C7D"/>
<path d="M59.2554 49.6862C59.2554 49.7909 59.2438 49.8984 59.2205 50.0088C59.2031 50.1135 59.1857 50.2181 59.1682 50.3227C59.1566 50.439 59.1479 50.5581 59.1421 50.6802C59.1362 50.7964 59.1188 50.9127 59.0897 51.029C59.0839 51.0696 59.0607 51.1074 59.02 51.1423C58.9851 51.1772 58.9444 51.1946 58.8979 51.1946C58.276 51.1946 57.654 51.1917 57.0321 51.1859C56.4101 51.1743 55.7882 51.1685 55.1662 51.1685C54.9744 51.1685 54.7826 51.1772 54.5908 51.1946C54.4047 51.2062 54.2187 51.2121 54.0327 51.2121C53.9979 51.2121 53.9601 51.2033 53.9194 51.1859C53.8787 51.1626 53.8584 51.1307 53.8584 51.09C53.8584 51.0144 53.8874 50.965 53.9455 50.9418C54.0037 50.9185 54.0734 50.9069 54.1548 50.9069C54.242 50.9069 54.3263 50.9011 54.4077 50.8894C54.489 50.8778 54.5588 50.8429 54.6169 50.7848C54.675 50.7209 54.7041 50.6163 54.7041 50.4709L54.6954 45.5098C54.6954 45.3761 54.6576 45.2919 54.582 45.257C54.5065 45.2163 54.4135 45.196 54.303 45.196C54.2565 45.196 54.2071 45.1989 54.1548 45.2047C54.1083 45.2047 54.0618 45.2047 54.0153 45.2047C53.9572 45.2047 53.9049 45.1931 53.8584 45.1698C53.8119 45.1465 53.7886 45.103 53.7886 45.039C53.7886 44.9111 53.8496 44.8472 53.9717 44.8472C54.0705 44.8472 54.1693 44.8501 54.2681 44.8559C54.367 44.8617 54.4658 44.8646 54.5646 44.8646C55.1517 44.8646 55.7358 44.8617 56.3171 44.8559C56.9042 44.8443 57.4913 44.8385 58.0783 44.8385C58.3573 44.8385 58.6364 44.8298 58.9154 44.8123C58.9386 44.9809 58.9677 45.1524 59.0026 45.3267C59.0374 45.4953 59.0665 45.6668 59.0897 45.8412C59.1014 45.8702 59.1101 45.9022 59.1159 45.9371C59.1217 45.9719 59.1246 46.0039 59.1246 46.033C59.1246 46.1027 59.0985 46.1521 59.0461 46.1812C58.9996 46.2045 58.9444 46.2161 58.8805 46.2161C58.8224 46.2161 58.7788 46.2074 58.7497 46.1899C58.7206 46.1667 58.6945 46.126 58.6712 46.0679C58.5724 45.7307 58.4329 45.4953 58.2527 45.3616C58.0725 45.2279 57.8051 45.1611 57.4506 45.1611H55.6893V47.7245C55.9102 47.7186 56.1282 47.7157 56.3433 47.7157C56.5583 47.7099 56.7734 47.7012 56.9885 47.6896C57.2152 47.678 57.436 47.6576 57.6511 47.6286C57.8662 47.5937 58.0842 47.5559 58.305 47.5152C58.3108 47.5152 58.3138 47.5152 58.3138 47.5152C58.3196 47.5152 58.3254 47.5152 58.3312 47.5152C58.3486 47.5152 58.3719 47.521 58.4009 47.5326C58.4358 47.5443 58.4533 47.5617 58.4533 47.585C58.4533 47.6256 58.4329 47.6983 58.3922 47.8029C58.3573 47.9076 58.3312 47.9773 58.3138 48.0122C58.2731 48.0878 58.212 48.1255 58.1307 48.1255C58.0842 48.1255 58.0347 48.1255 57.9824 48.1255C57.9359 48.1197 57.8894 48.1139 57.8429 48.1081C57.7383 48.0965 57.6337 48.0878 57.529 48.0819C57.4244 48.0761 57.3198 48.0703 57.2152 48.0645C57.0698 48.0645 56.9274 48.0645 56.7879 48.0645C56.6484 48.0645 56.506 48.0645 56.3607 48.0645C56.2793 48.0645 56.1834 48.0703 56.073 48.0819C55.9683 48.0936 55.8783 48.1255 55.8027 48.1778C55.7271 48.2302 55.6893 48.3144 55.6893 48.4307V50.5145C55.6893 50.6831 55.7242 50.7877 55.794 50.8284C55.8695 50.8633 55.98 50.8807 56.1253 50.8807H56.8838C57.0408 50.8807 57.2152 50.872 57.407 50.8546C57.6046 50.8371 57.7935 50.8023 57.9737 50.7499C58.1597 50.6976 58.3108 50.6163 58.4271 50.5058C58.5492 50.3896 58.6422 50.2559 58.7061 50.1047C58.7759 49.9536 58.8456 49.8054 58.9154 49.6601C58.9444 49.5961 59.0026 49.5642 59.0897 49.5642C59.1304 49.5642 59.1682 49.5729 59.2031 49.5903C59.238 49.6078 59.2554 49.6397 59.2554 49.6862Z" fill="#7B7C7D"/>
<path d="M69.708 51.0464C69.708 51.1045 69.6847 51.1481 69.6382 51.1772C69.5975 51.2004 69.551 51.2121 69.4987 51.2121C69.4057 51.2121 69.3127 51.2091 69.2197 51.2033C69.1325 51.1975 69.0453 51.1946 68.9581 51.1946C68.7954 51.1888 68.6297 51.1888 68.4611 51.1946C68.2984 51.1946 68.1356 51.1946 67.9729 51.1946C67.9031 51.1946 67.8479 51.1859 67.8072 51.1685C67.7665 51.1452 67.7317 51.1016 67.7026 51.0377C67.4875 50.5959 67.2463 50.1687 66.9789 49.756C66.7173 49.3433 66.4558 48.9306 66.1942 48.5179C66.1593 48.5702 66.0896 48.6748 65.985 48.8318C65.8861 48.9887 65.7699 49.1689 65.6362 49.3723C65.5025 49.5758 65.3717 49.7763 65.2438 49.974C65.116 50.1716 65.0084 50.3402 64.9212 50.4797C64.8399 50.6133 64.7992 50.6889 64.7992 50.7063C64.7992 50.7877 64.8428 50.8429 64.93 50.872C65.0171 50.9011 65.1131 50.9156 65.2177 50.9156C65.3223 50.9156 65.4008 50.9156 65.4531 50.9156C65.488 50.9156 65.517 50.9301 65.5403 50.9592C65.5693 50.9825 65.5839 51.0115 65.5839 51.0464C65.5839 51.1452 65.5461 51.1975 65.4705 51.2033C65.395 51.2033 65.3165 51.2033 65.2351 51.2033C65.1072 51.2033 64.9736 51.2004 64.834 51.1946C64.7004 51.1888 64.5667 51.1859 64.433 51.1859C64.2295 51.1859 64.0232 51.1917 63.8139 51.2033C63.6105 51.215 63.407 51.2208 63.2036 51.2208C63.1629 51.2208 63.1251 51.2091 63.0903 51.1859C63.0554 51.1568 63.0379 51.122 63.0379 51.0813C63.0379 50.9708 63.0728 50.9156 63.1426 50.9156C63.2123 50.9156 63.2821 50.9156 63.3518 50.9156C63.4913 50.9156 63.6105 50.904 63.7093 50.8807C63.8081 50.8575 63.9127 50.7994 64.0232 50.7063C64.122 50.6192 64.2179 50.5291 64.3109 50.4361C64.4097 50.3372 64.4969 50.2355 64.5725 50.1309C64.8224 49.8228 65.0636 49.5118 65.2962 49.198C65.5345 48.8783 65.7612 48.5528 65.9762 48.2214C65.6623 47.7448 65.3514 47.2682 65.0433 46.7915C64.7352 46.3091 64.4184 45.8353 64.0929 45.3703C64.0406 45.2948 63.9912 45.2483 63.9447 45.2308C63.904 45.2076 63.8401 45.196 63.7529 45.196C63.689 45.196 63.625 45.2018 63.5611 45.2134C63.4971 45.2192 63.4332 45.2221 63.3693 45.2221C63.3169 45.2221 63.2675 45.2105 63.221 45.1872C63.1803 45.1582 63.16 45.1146 63.16 45.0565C63.16 44.9751 63.1978 44.9257 63.2734 44.9082C63.3489 44.8908 63.4274 44.8821 63.5088 44.8821C63.5901 44.8763 63.6686 44.8704 63.7442 44.8646C63.9127 44.853 64.0842 44.8385 64.2586 44.821C64.433 44.7978 64.6015 44.7862 64.7643 44.7862C64.8457 44.7862 64.9125 44.8181 64.9648 44.8821C65.0171 44.946 65.0636 45.007 65.1043 45.0652C65.3485 45.4604 65.5897 45.8586 65.828 46.2597C66.0663 46.6607 66.3017 47.0647 66.5343 47.4716C66.5808 47.396 66.6563 47.2798 66.7609 47.1229C66.8656 46.9659 66.9818 46.7886 67.1097 46.591C67.2376 46.3875 67.3596 46.1899 67.4759 45.9981C67.598 45.8005 67.6968 45.6261 67.7723 45.475C67.8479 45.318 67.8857 45.2105 67.8857 45.1524C67.8857 45.1059 67.8624 45.0797 67.8159 45.0739C67.7694 45.0623 67.7287 45.0565 67.6939 45.0565C67.6241 45.0565 67.5544 45.0623 67.4846 45.0739C67.4207 45.0797 67.3538 45.0826 67.2841 45.0826C67.1795 45.0826 67.1271 45.0303 67.1271 44.9257C67.1271 44.8792 67.1475 44.8472 67.1882 44.8298C67.2289 44.8123 67.2696 44.8036 67.3102 44.8036C67.4556 44.8036 67.598 44.8065 67.7375 44.8123C67.8828 44.8123 68.0281 44.8123 68.1734 44.8123C68.3478 44.8123 68.5222 44.8094 68.6966 44.8036C68.8767 44.792 69.054 44.7862 69.2284 44.7862C69.3447 44.7862 69.4028 44.8356 69.4028 44.9344C69.4028 45.0216 69.3563 45.0739 69.2633 45.0913C69.1703 45.103 69.0657 45.1088 68.9494 45.1088C68.8332 45.1088 68.7343 45.132 68.653 45.1785C68.6065 45.2018 68.5541 45.2425 68.496 45.3006C68.4437 45.3587 68.4001 45.411 68.3652 45.4575C68.1037 45.8412 67.8363 46.2248 67.5631 46.6084C67.2899 46.9863 67.0109 47.3641 66.7261 47.7419C66.9353 48.0325 67.1417 48.329 67.3451 48.6312C67.5486 48.9277 67.752 49.2241 67.9554 49.5206C68.0949 49.7182 68.2374 49.9187 68.3827 50.1222C68.528 50.3256 68.6791 50.5203 68.8361 50.7063C68.9 50.7819 68.9727 50.8284 69.054 50.8459C69.1354 50.8633 69.2197 50.872 69.3069 50.872C69.3476 50.872 69.3854 50.8691 69.4202 50.8633C69.4609 50.8575 69.5016 50.8546 69.5423 50.8546C69.5888 50.8546 69.6266 50.8749 69.6556 50.9156C69.6905 50.9563 69.708 50.9999 69.708 51.0464Z" fill="#7B7C7D"/>
<path d="M79.0952 46.4689C79.0952 46.5096 79.0807 46.5445 79.0516 46.5736C79.0226 46.5968 78.9877 46.6084 78.947 46.6084C78.9238 46.6084 78.8947 46.6055 78.8598 46.5997C78.8307 46.5939 78.8104 46.5794 78.7988 46.5561C78.7988 46.5503 78.7901 46.5125 78.7726 46.4428C78.761 46.3672 78.7436 46.28 78.7203 46.1812C78.7029 46.0824 78.6825 45.9894 78.6593 45.9022C78.6418 45.815 78.6273 45.754 78.6157 45.7191C78.5924 45.6377 78.5605 45.5622 78.5198 45.4924C78.4849 45.4168 78.4384 45.3471 78.3803 45.2831C78.328 45.225 78.2291 45.1843 78.0838 45.1611C77.9443 45.1378 77.799 45.1262 77.6479 45.1262C77.5026 45.1204 77.3921 45.1175 77.3166 45.1175C77.2352 45.1175 77.1393 45.1204 77.0288 45.1262C76.9242 45.132 76.8312 45.1582 76.7498 45.2047C76.6743 45.2454 76.6365 45.3267 76.6365 45.4488C76.6365 46.3265 76.6365 47.2042 76.6365 48.0819C76.6423 48.9596 76.6452 49.8374 76.6452 50.7151C76.6452 50.7848 76.6743 50.84 76.7324 50.8807C76.7905 50.9156 76.8574 50.9389 76.9329 50.9505C77.0085 50.9621 77.0724 50.9679 77.1247 50.9679C77.1654 50.9679 77.2032 50.965 77.2381 50.9592C77.2788 50.9534 77.3195 50.9505 77.3601 50.9505C77.4532 50.9505 77.4997 50.997 77.4997 51.09C77.4997 51.119 77.4909 51.151 77.4735 51.1859C77.4561 51.2208 77.427 51.2382 77.3863 51.2382C77.1829 51.2382 76.9765 51.2324 76.7673 51.2208C76.558 51.2091 76.3487 51.2033 76.1395 51.2033C75.8547 51.2033 75.5728 51.2121 75.2938 51.2295C75.224 51.2353 75.1542 51.2411 75.0845 51.2469C75.0147 51.2527 74.9479 51.2556 74.884 51.2556C74.791 51.2556 74.7445 51.215 74.7445 51.1336C74.7445 51.0871 74.7561 51.0464 74.7793 51.0115C74.8084 50.9766 74.8491 50.9592 74.9014 50.9592C74.9247 50.9592 74.945 50.9621 74.9624 50.9679C74.9857 50.9679 75.0089 50.9679 75.0322 50.9679C75.0903 50.9679 75.163 50.965 75.2502 50.9592C75.3373 50.9476 75.4158 50.9243 75.4856 50.8894C75.5611 50.8488 75.5989 50.7906 75.5989 50.7151C75.5989 50.2559 75.5989 49.7996 75.5989 49.3462C75.6047 48.887 75.6076 48.4278 75.6076 47.9686C75.6076 47.5385 75.6047 47.1112 75.5989 46.6869C75.5989 46.2568 75.5989 45.8295 75.5989 45.4052C75.5989 45.3413 75.564 45.2831 75.4943 45.2308C75.4304 45.1785 75.3693 45.1495 75.3112 45.1436C75.2124 45.1262 75.1077 45.1204 74.9973 45.1262C74.8927 45.1262 74.791 45.1262 74.6921 45.1262C74.5178 45.1262 74.3637 45.1291 74.23 45.1349C74.1022 45.1407 73.9917 45.1785 73.8987 45.2483C73.8115 45.318 73.736 45.4517 73.672 45.6493C73.6546 45.7017 73.6313 45.7976 73.6023 45.9371C73.579 46.0708 73.5529 46.2015 73.5238 46.3294C73.4947 46.4515 73.4715 46.5271 73.4541 46.5561C73.4366 46.5794 73.4163 46.5939 73.393 46.5997C73.3756 46.6055 73.3523 46.6084 73.3233 46.6084C73.2768 46.6084 73.239 46.6026 73.2099 46.591C73.1867 46.5794 73.175 46.5474 73.175 46.4951C73.175 46.4195 73.1809 46.344 73.1925 46.2684C73.2041 46.1928 73.2128 46.1173 73.2186 46.0417C73.2303 45.8789 73.239 45.7162 73.2448 45.5534C73.2506 45.3907 73.2535 45.2279 73.2535 45.0652C73.2535 44.9954 73.2593 44.9344 73.271 44.8821C73.2826 44.8298 73.3349 44.8036 73.4279 44.8036C73.486 44.8036 73.5412 44.8094 73.5936 44.821C73.6517 44.8269 73.7098 44.8298 73.7679 44.8298C73.8144 44.8356 73.8609 44.8385 73.9074 44.8385C73.9597 44.8385 74.0092 44.8414 74.0557 44.8472C74.3812 44.853 74.7241 44.8588 75.0845 44.8646C75.4507 44.8646 75.7995 44.8646 76.1308 44.8646C76.4563 44.8646 76.7992 44.8646 77.1596 44.8646C77.52 44.8588 77.86 44.853 78.1797 44.8472C78.2902 44.8414 78.3977 44.8385 78.5023 44.8385C78.6128 44.8327 78.7232 44.8298 78.8337 44.8298C78.9208 44.8298 78.9761 44.853 78.9993 44.8995C79.0284 44.9402 79.04 44.9925 79.0342 45.0565C79.0342 45.1204 79.0342 45.1843 79.0342 45.2483C79.0342 45.3936 79.04 45.5389 79.0516 45.6842C79.0633 45.8237 79.072 45.9661 79.0778 46.1114C79.0778 46.1696 79.0807 46.2277 79.0865 46.2858C79.0923 46.344 79.0952 46.405 79.0952 46.4689Z" fill="#7B7C7D"/>
<path d="M89.152 44.9431C89.152 45.0012 89.1345 45.039 89.0996 45.0565C89.0706 45.0681 89.0328 45.0739 88.9863 45.0739C88.9514 45.0739 88.9136 45.0739 88.8729 45.0739C88.8381 45.0681 88.8003 45.0652 88.7596 45.0652C88.5968 45.0652 88.4864 45.0884 88.4283 45.1349C88.376 45.1814 88.3498 45.2483 88.3498 45.3355C88.3498 45.4226 88.3498 45.5331 88.3498 45.6668C88.3498 46.1841 88.3527 46.7014 88.3585 47.2188C88.3702 47.7303 88.376 48.2447 88.376 48.762C88.376 49.2735 88.3004 49.7182 88.1493 50.096C87.9981 50.468 87.7569 50.7558 87.4256 50.9592C87.1001 51.1626 86.6641 51.2644 86.1178 51.2644C85.3389 51.2644 84.7227 51.0725 84.2693 50.6889C83.8218 50.2995 83.598 49.7008 83.598 48.8928V48.5092C83.598 48.1837 83.598 47.8611 83.598 47.5414C83.598 47.2159 83.598 46.8933 83.598 46.5736V45.7888C83.598 45.7075 83.6009 45.6232 83.6067 45.536C83.6125 45.443 83.6096 45.3558 83.598 45.2744C83.5922 45.1814 83.5457 45.1233 83.4585 45.1C83.3771 45.071 83.2841 45.0594 83.1795 45.0652C83.0748 45.0652 82.9905 45.0652 82.9266 45.0652C82.8685 45.0652 82.8307 45.0535 82.8133 45.0303C82.8016 45.0012 82.7958 44.9635 82.7958 44.9169C82.7958 44.8704 82.8133 44.8385 82.8481 44.821C82.883 44.8036 82.9208 44.7949 82.9615 44.7949C83.0254 44.7949 83.0894 44.7978 83.1533 44.8036C83.2172 44.8036 83.2783 44.8065 83.3364 44.8123C83.4643 44.8181 83.5892 44.8239 83.7113 44.8298C83.8392 44.8298 83.9671 44.8298 84.0949 44.8298C84.2984 44.8298 84.5018 44.8239 84.7053 44.8123C84.9087 44.8007 85.1093 44.7949 85.3069 44.7949C85.3534 44.7949 85.3941 44.8036 85.4289 44.821C85.4638 44.8385 85.4813 44.8763 85.4813 44.9344C85.4813 45.0274 85.4319 45.0739 85.333 45.0739C85.2633 45.0739 85.1935 45.0739 85.1238 45.0739C85.054 45.0681 84.9814 45.0652 84.9058 45.0652C84.8477 45.0652 84.7837 45.0855 84.714 45.1262C84.6501 45.1611 84.6123 45.2105 84.6006 45.2744C84.589 45.3674 84.5832 45.4692 84.5832 45.5796C84.589 45.6842 84.5919 45.7859 84.5919 45.8848C84.5919 46.4079 84.589 46.931 84.5832 47.4542C84.5774 47.9773 84.5745 48.5004 84.5745 49.0236C84.5745 49.4247 84.6123 49.7676 84.6878 50.0524C84.7634 50.3372 84.9145 50.5552 85.1412 50.7063C85.3737 50.8517 85.7138 50.9243 86.1613 50.9243C86.5973 50.9243 86.9431 50.8284 87.1989 50.6366C87.4605 50.4448 87.6494 50.189 87.7656 49.8693C87.8819 49.5438 87.94 49.1863 87.94 48.7969C87.94 48.2098 87.9371 47.6227 87.9313 47.0357C87.9313 46.4486 87.9313 45.8644 87.9313 45.2831C87.9313 45.2076 87.8964 45.1553 87.8267 45.1262C87.7569 45.0913 87.6901 45.0739 87.6261 45.0739C87.5506 45.0739 87.4779 45.0768 87.4082 45.0826C87.3384 45.0826 87.2657 45.0826 87.1902 45.0826C87.1611 45.0826 87.135 45.0681 87.1117 45.039C87.0943 45.01 87.0856 44.9809 87.0856 44.9518C87.0856 44.8472 87.135 44.7949 87.2338 44.7949C87.3152 44.7949 87.3965 44.8007 87.4779 44.8123C87.5651 44.8181 87.6523 44.821 87.7395 44.821C87.8848 44.821 88.0272 44.821 88.1667 44.821C88.312 44.8152 88.4573 44.8094 88.6027 44.8036C88.6724 44.8036 88.7422 44.8007 88.8119 44.7949C88.8875 44.7891 88.963 44.7862 89.0386 44.7862C89.0851 44.7862 89.1142 44.8036 89.1258 44.8385C89.1432 44.8675 89.152 44.9024 89.152 44.9431Z" fill="#7B7C7D"/>
<path d="M96.9281 46.3643C96.9281 45.9865 96.8612 45.7046 96.7275 45.5186C96.5938 45.3267 96.4049 45.1989 96.1608 45.1349C95.9225 45.071 95.6376 45.039 95.3063 45.039C95.2482 45.039 95.1697 45.0419 95.0709 45.0477C94.9779 45.0477 94.8907 45.0652 94.8093 45.1C94.7338 45.1291 94.696 45.1872 94.696 45.2744C94.696 45.6639 94.6931 46.0533 94.6873 46.4428C94.6873 46.8264 94.6873 47.2159 94.6873 47.6111V47.6721C94.7512 47.6896 94.8181 47.7012 94.8878 47.707C94.9576 47.707 95.0244 47.707 95.0883 47.707C95.3964 47.707 95.69 47.6721 95.969 47.6024C96.248 47.5268 96.4776 47.3931 96.6578 47.2013C96.838 47.0095 96.9281 46.7305 96.9281 46.3643ZM98.9509 51.0725C98.9509 51.119 98.9073 51.1568 98.8201 51.1859C98.7387 51.2091 98.637 51.2237 98.5149 51.2295C98.3987 51.2411 98.2882 51.2469 98.1836 51.2469C98.079 51.2469 98.0092 51.2469 97.9743 51.2469C97.7302 51.2469 97.5326 51.2208 97.3814 51.1685C97.2303 51.1161 97.0879 50.9825 96.9542 50.7674C96.6694 50.3082 96.3962 49.8432 96.1346 49.3723C95.8731 48.8957 95.6115 48.4191 95.3499 47.9424L94.696 47.9686C94.696 48.4278 94.696 48.8899 94.696 49.3549C94.696 49.8141 94.696 50.2733 94.696 50.7325C94.696 50.8081 94.7221 50.8604 94.7745 50.8894C94.8326 50.9185 94.8936 50.933 94.9576 50.933C95.0389 50.933 95.1174 50.9301 95.193 50.9243C95.2744 50.9185 95.3528 50.9156 95.4284 50.9156C95.4691 50.9156 95.501 50.9359 95.5243 50.9766C95.5475 51.0115 95.5592 51.0464 95.5592 51.0813C95.5592 51.1394 95.5388 51.1772 95.4981 51.1946C95.4575 51.2062 95.4139 51.2121 95.3674 51.2121C95.1058 51.2121 94.8442 51.2091 94.5826 51.2033C94.3269 51.1975 94.0682 51.1946 93.8067 51.1946C93.673 51.1946 93.5364 51.1975 93.3969 51.2033C93.2632 51.215 93.1266 51.2208 92.9871 51.2208C92.9522 51.2208 92.9202 51.2033 92.8912 51.1685C92.8621 51.1336 92.8476 51.0987 92.8476 51.0638C92.8476 50.9766 92.8999 50.933 93.0045 50.933C93.0568 50.933 93.1062 50.9359 93.1527 50.9418C93.2051 50.9418 93.2545 50.9418 93.301 50.9418C93.3823 50.9418 93.4666 50.933 93.5538 50.9156C93.641 50.8924 93.6904 50.8313 93.702 50.7325C93.7137 50.5814 93.7166 50.4099 93.7108 50.2181C93.7108 50.0263 93.7108 49.8519 93.7108 49.6949C93.7108 49.5031 93.7108 49.3113 93.7108 49.1195C93.7108 48.9219 93.7108 48.7271 93.7108 48.5353C93.7108 48.1401 93.7108 47.7448 93.7108 47.3495C93.7108 46.9543 93.7108 46.5619 93.7108 46.1725C93.7108 46.0214 93.7108 45.8702 93.7108 45.7191C93.7166 45.568 93.7137 45.4197 93.702 45.2744C93.6962 45.1756 93.6555 45.1175 93.58 45.1C93.5044 45.0826 93.4259 45.0739 93.3446 45.0739C93.3039 45.0739 93.2574 45.0768 93.205 45.0826C93.1585 45.0826 93.112 45.0826 93.0655 45.0826C92.9435 45.0826 92.8824 45.0245 92.8824 44.9082C92.8824 44.8617 92.897 44.8327 92.926 44.821C92.9551 44.8036 92.99 44.7949 93.0307 44.7949C93.2283 44.7949 93.423 44.8036 93.6148 44.821C93.8125 44.8327 94.0101 44.8385 94.2077 44.8385C94.4809 44.8385 94.7512 44.8269 95.0186 44.8036C95.286 44.7804 95.5534 44.7687 95.8207 44.7687C96.0474 44.7687 96.2858 44.792 96.5357 44.8385C96.7915 44.8792 97.0298 44.9547 97.2507 45.0652C97.4715 45.1698 97.6517 45.3151 97.7912 45.5011C97.9307 45.6871 98.0005 45.9196 98.0005 46.1986C98.0005 46.5532 97.9017 46.8555 97.704 47.1054C97.5064 47.3554 97.2536 47.5501 96.9455 47.6896C96.8409 47.7419 96.7304 47.7826 96.6142 47.8116C96.5037 47.8349 96.3904 47.8582 96.2741 47.8814C96.5473 48.3348 96.8263 48.7853 97.1112 49.2328C97.396 49.6746 97.6895 50.1106 97.9918 50.5407C98.0731 50.6511 98.1632 50.7441 98.2621 50.8197C98.3609 50.8953 98.48 50.9476 98.6195 50.9766C98.6486 50.9825 98.6893 50.9854 98.7416 50.9854C98.7939 50.9795 98.8404 50.9825 98.8811 50.9941C98.9276 51.0057 98.9509 51.0319 98.9509 51.0725Z" fill="#7B7C7D"/>
<path d="M106.476 48.6225C106.295 48.1226 106.118 47.6227 105.944 47.1229C105.769 46.623 105.592 46.126 105.412 45.6319C105.238 46.126 105.063 46.623 104.889 47.1229C104.714 47.6227 104.543 48.1226 104.374 48.6225H106.476ZM109.056 51.0813C109.056 51.1743 109.013 51.2208 108.926 51.2208C108.868 51.2208 108.804 51.2179 108.734 51.2121C108.67 51.2121 108.606 51.2091 108.542 51.2033C108.414 51.1975 108.283 51.1946 108.15 51.1946C108.022 51.1946 107.891 51.1946 107.757 51.1946C107.693 51.1946 107.627 51.1946 107.557 51.1946C107.493 51.1946 107.426 51.1946 107.356 51.1946C107.228 51.1946 107.098 51.2004 106.964 51.2121C106.83 51.2295 106.696 51.2382 106.563 51.2382C106.522 51.2382 106.493 51.2179 106.476 51.1772C106.458 51.1307 106.449 51.09 106.449 51.0551C106.449 51.026 106.464 50.9999 106.493 50.9766C106.522 50.9534 106.548 50.9418 106.572 50.9418L106.999 50.9505C107.045 50.9505 107.095 50.9418 107.147 50.9243C107.199 50.9011 107.225 50.8604 107.225 50.8023C107.225 50.7906 107.205 50.7267 107.164 50.6104C107.13 50.4884 107.083 50.3431 107.025 50.1745C106.967 50.0059 106.906 49.8374 106.842 49.6688C106.778 49.4944 106.723 49.3433 106.676 49.2154C106.63 49.0817 106.598 48.9945 106.58 48.9538H104.287C104.27 49.0061 104.235 49.0992 104.183 49.2328C104.136 49.3665 104.081 49.5177 104.017 49.6862C103.953 49.8548 103.892 50.0234 103.834 50.1919C103.776 50.3547 103.726 50.4971 103.686 50.6192C103.651 50.7354 103.633 50.8081 103.633 50.8371C103.633 50.9127 103.674 50.9592 103.755 50.9766C103.842 50.9941 103.912 51.0028 103.965 51.0028C104.028 51.0028 104.09 50.9999 104.148 50.9941C104.212 50.9825 104.273 50.9766 104.331 50.9766C104.383 50.9766 104.412 50.997 104.418 51.0377C104.43 51.0725 104.435 51.1103 104.435 51.151C104.424 51.1859 104.403 51.2062 104.374 51.2121C104.345 51.2179 104.316 51.2208 104.287 51.2208C104.119 51.2208 103.947 51.2179 103.773 51.2121C103.598 51.2121 103.427 51.2121 103.258 51.2121C103.13 51.2121 103.003 51.215 102.875 51.2208C102.753 51.2266 102.631 51.2295 102.508 51.2295C102.421 51.2295 102.378 51.183 102.378 51.09C102.378 51.0377 102.404 51.0057 102.456 50.9941C102.508 50.9825 102.567 50.9795 102.631 50.9854C102.7 50.9854 102.75 50.9854 102.779 50.9854C102.86 50.9854 102.927 50.9621 102.979 50.9156C103.032 50.8691 103.075 50.8139 103.11 50.7499C103.133 50.6976 103.189 50.5581 103.276 50.3314C103.369 50.1047 103.479 49.8199 103.607 49.477C103.735 49.134 103.872 48.7649 104.017 48.3697C104.162 47.9686 104.305 47.5733 104.444 47.1839C104.589 46.7886 104.72 46.4253 104.836 46.094C104.953 45.7627 105.046 45.4895 105.115 45.2744C105.185 45.0594 105.22 44.9373 105.22 44.9082C105.22 44.8966 105.214 44.885 105.203 44.8734C105.197 44.8559 105.194 44.8414 105.194 44.8298C105.194 44.8123 105.203 44.8007 105.22 44.7949C105.354 44.7658 105.496 44.7484 105.647 44.7426C105.798 44.7309 105.941 44.7164 106.075 44.699L108.341 50.7761C108.359 50.8226 108.394 50.8633 108.446 50.8982C108.504 50.9272 108.559 50.9418 108.612 50.9418C108.664 50.9418 108.713 50.9418 108.76 50.9418C108.812 50.9359 108.865 50.933 108.917 50.933C108.981 50.933 109.019 50.9447 109.03 50.9679C109.048 50.9854 109.056 51.0231 109.056 51.0813Z" fill="#7B7C7D"/>
<path d="M118.311 49.2154C118.311 49.2561 118.308 49.2997 118.302 49.3462C118.296 49.3869 118.288 49.4305 118.276 49.477C118.235 49.7269 118.2 49.974 118.171 50.2181C118.142 50.4622 118.107 50.7093 118.067 50.9592C118.067 50.9825 118.064 51.0086 118.058 51.0377C118.052 51.0667 118.041 51.0929 118.023 51.1161C118 51.1452 117.968 51.1655 117.927 51.1772C117.892 51.183 117.857 51.1859 117.823 51.1859C117.764 51.1859 117.703 51.1859 117.64 51.1859C117.581 51.1801 117.52 51.1772 117.456 51.1772C117.032 51.1714 116.608 51.1685 116.183 51.1685C115.765 51.1685 115.344 51.1685 114.919 51.1685C114.78 51.1685 114.64 51.1685 114.501 51.1685C114.361 51.1685 114.222 51.1714 114.082 51.1772C113.89 51.183 113.696 51.1917 113.498 51.2033C113.306 51.215 113.114 51.2208 112.923 51.2208C112.806 51.2208 112.748 51.1714 112.748 51.0725C112.748 51.0086 112.763 50.9708 112.792 50.9592C112.827 50.9418 112.87 50.933 112.923 50.933C112.969 50.933 113.016 50.9359 113.062 50.9418C113.114 50.9418 113.164 50.9418 113.21 50.9418C113.292 50.9418 113.37 50.9301 113.446 50.9069C113.527 50.8836 113.568 50.8226 113.568 50.7238V45.597C113.568 45.475 113.565 45.3761 113.559 45.3006C113.559 45.225 113.536 45.1698 113.489 45.1349C113.443 45.1 113.35 45.0826 113.21 45.0826C113.152 45.0826 113.094 45.0855 113.036 45.0913C112.984 45.0971 112.931 45.1 112.879 45.1C112.856 45.1 112.83 45.0855 112.8 45.0565C112.777 45.0216 112.766 44.9925 112.766 44.9693C112.766 44.9402 112.771 44.9053 112.783 44.8646C112.8 44.8181 112.83 44.7949 112.87 44.7949C113.079 44.7949 113.289 44.8007 113.498 44.8123C113.713 44.8181 113.925 44.821 114.134 44.821C114.338 44.821 114.541 44.8181 114.745 44.8123C114.954 44.8007 115.16 44.7949 115.364 44.7949C115.457 44.7949 115.503 44.8385 115.503 44.9257C115.503 44.9664 115.489 45.0041 115.46 45.039C115.437 45.0681 115.405 45.0826 115.364 45.0826H115.006C114.931 45.0826 114.841 45.0942 114.736 45.1175C114.631 45.1407 114.579 45.2076 114.579 45.318C114.579 45.5215 114.576 45.7278 114.57 45.9371C114.57 46.1405 114.57 46.344 114.57 46.5474C114.57 47.2275 114.57 47.9076 114.57 48.5876C114.576 49.2677 114.579 49.9449 114.579 50.6192C114.579 50.7063 114.611 50.7703 114.675 50.811C114.745 50.8517 114.823 50.8778 114.91 50.8894C114.998 50.8953 115.073 50.8982 115.137 50.8982C115.323 50.8982 115.524 50.8982 115.739 50.8982C115.954 50.8982 116.169 50.8865 116.384 50.8633C116.599 50.8342 116.8 50.7819 116.986 50.7063C117.172 50.625 117.331 50.5058 117.465 50.3489C117.605 50.1803 117.712 50.0001 117.788 49.8083C117.863 49.6107 117.939 49.413 118.014 49.2154C118.032 49.1689 118.058 49.1427 118.093 49.1369C118.128 49.1253 118.166 49.1195 118.206 49.1195C118.229 49.1195 118.253 49.1282 118.276 49.1457C118.299 49.1631 118.311 49.1863 118.311 49.2154Z" fill="#7B7C7D"/>
<path d="M17.4662 14.0022H1.33716V48.2968H39.4812M146.45 14.0022H159.441V48.2968H130.695" stroke="#7B7C7D" stroke-width="0.737897"/>
<path d="M29.8187 27.3713C29.8187 27.3713 30.0584 32.1126 31.5338 33.4746C33.0093 34.8366 37.3751 34.3465 37.3751 34.3465C37.3751 34.3465 33.3632 35.3387 31.8877 36.7006C30.4122 38.0626 29.8187 41.3217 29.8187 41.3217C29.8187 41.3217 30.0347 37.7139 28.5592 36.3519C27.0838 34.9899 22.2622 34.3465 22.2622 34.3465C22.2622 34.3465 26.6701 34.8697 28.5592 33.1259C30.4484 31.3821 29.8187 27.3713 29.8187 27.3713Z" fill="#7B7C7D"/>
<path d="M110.905 0.633057C110.905 0.633057 111.025 3.0037 111.763 3.6847C112.501 4.36569 114.684 4.12065 114.684 4.12065C114.684 4.12065 112.678 4.61672 111.94 5.29771C111.202 5.9787 110.905 7.60824 110.905 7.60824C110.905 7.60824 111.013 5.80432 110.276 5.12333C109.538 4.44234 107.127 4.12065 107.127 4.12065C107.127 4.12065 109.331 4.38222 110.276 3.51032C111.22 2.63842 110.905 0.633057 110.905 0.633057Z" fill="#7B7C7D"/>
</svg>
