<svg width="21" height="21" viewBox="0 0 21 21" fill="none" xmlns="http://www.w3.org/2000/svg">
<path fill-rule="evenodd" clip-rule="evenodd" d="M5.54718 1.89118C6.38315 1.82462 7.17682 1.49603 7.81518 0.95218C8.53625 0.337578 9.45272 0 10.4002 0C11.3476 0 12.2641 0.337578 12.9852 0.95218C13.6235 1.49633 14.4171 1.82527 15.2532 1.89218C16.1976 1.96739 17.0843 2.37659 17.7543 3.0464C18.4243 3.71621 18.8337 4.60281 18.9092 5.54718C18.9752 6.38318 19.3042 7.17718 19.8492 7.81518C20.4636 8.53634 20.801 9.45277 20.801 10.4002C20.801 11.3476 20.4636 12.264 19.8492 12.9852C19.305 13.6234 18.976 14.4171 18.9092 15.2532C18.8337 16.1976 18.4243 17.0841 17.7543 17.754C17.0843 18.4238 16.1976 18.833 15.2532 18.9082C14.4171 18.9751 13.6235 19.304 12.9852 19.8482C12.2641 20.4628 11.3476 20.8004 10.4002 20.8004C9.45272 20.8004 8.53625 20.4628 7.81518 19.8482C7.17694 19.304 6.38327 18.975 5.54718 18.9082C4.60296 18.8327 3.71649 18.4234 3.0467 17.7537C2.37691 17.0839 1.96761 16.1974 1.89218 15.2532C1.82534 14.4171 1.49639 13.6234 0.95218 12.9852C0.337578 12.2641 0 11.3476 0 10.4002C0 9.45272 0.337578 8.53625 0.95218 7.81518C1.49639 7.17694 1.82534 6.38327 1.89218 5.54718C1.96739 4.60279 2.37659 3.71608 3.0464 3.04608C3.71621 2.37609 4.60281 1.96664 5.54718 1.89118Z" fill="#143036"/>
<path d="M7.08789 7.08887L13.7111 13.712" stroke="white" stroke-width="2.3" stroke-linecap="round"/>
<path d="M13.7109 7.08887L7.08777 13.712" stroke="white" stroke-width="2.3" stroke-linecap="round"/>
</svg>
