<svg width="47" height="37" viewBox="0 0 47 37" fill="none" xmlns="http://www.w3.org/2000/svg">
<path d="M10.9559 14.4504L22.5519 18.9859C22.7835 19.0765 23.0406 19.0776 23.2729 18.9888L35.157 14.4504M10.9559 14.4504L1.45735 10.7352C0.600036 10.3999 0.612918 9.18227 1.47714 8.86516L22.5714 1.12491C22.7914 1.04421 23.0327 1.04328 23.2532 1.12229L44.8581 8.86263C45.732 9.17573 45.7448 10.407 44.8776 10.7382L35.157 14.4504M10.9559 14.4504L1.48403 18.1551C0.623437 18.4917 0.640745 19.7155 1.51051 20.0277L10.9559 23.4174M35.157 14.4504L44.8502 18.1521C45.7206 18.4846 45.7035 19.7219 44.8241 20.0301L35.157 23.4174M10.9559 23.4174L22.5781 27.5882C22.794 27.6657 23.03 27.6666 23.2465 27.5907L35.157 23.4174M10.9559 23.4174L1.66779 26.7506C0.77977 27.0693 0.78654 28.3275 1.67793 28.6366L22.5881 35.8877C22.7979 35.9605 23.026 35.9613 23.2364 35.8901L44.6526 28.639C45.5533 28.334 45.56 27.0625 44.6626 26.748L35.157 23.4174" stroke="black"/>
</svg>
