<svg width="160" height="52" viewBox="0 0 160 52" fill="none" xmlns="http://www.w3.org/2000/svg">
<path d="M61.2344 25.2253C60.0026 26.4219 58.542 27.3604 56.8527 28.0408C55.1634 28.7212 53.3275 29.0615 51.3449 29.0615C49.3389 29.0615 47.4912 28.7212 45.8019 28.0408C44.1126 27.3487 42.6403 26.3867 41.3851 25.1549C40.1415 23.9114 39.1737 22.4567 38.4816 20.7909C37.7894 19.1251 37.4434 17.3067 37.4434 15.3359C37.4434 13.365 37.7894 11.5467 38.4816 9.88084C39.1737 8.20326 40.1415 6.74859 41.3851 5.51681C42.6403 4.28502 44.1126 3.32893 45.8019 2.64851C47.4912 1.95637 49.3389 1.6103 51.3449 1.6103C53.3158 1.6103 55.14 1.9505 56.8175 2.63091C58.5068 3.31133 59.9674 4.25569 61.1992 5.46402L57.4158 9.26494C56.6768 8.36164 55.7735 7.6519 54.7059 7.13572C53.6501 6.60781 52.5004 6.34386 51.2569 6.34386C50.0721 6.34386 48.9752 6.57262 47.9663 7.03014C46.9691 7.47593 46.0952 8.10941 45.3444 8.9306C44.5936 9.74006 44.0129 10.6903 43.6023 11.7813C43.1917 12.8723 42.9864 14.0513 42.9864 15.3183C42.9864 16.6087 43.1917 17.7994 43.6023 18.8904C44.0129 19.9815 44.5936 20.9376 45.3444 21.7587C46.0952 22.5682 46.9691 23.2017 47.9663 23.6592C48.9752 24.105 50.0721 24.3279 51.2569 24.3279C52.5004 24.3279 53.6501 24.0698 54.7059 23.5536C55.7617 23.0257 56.6592 22.3101 57.3982 21.4068L61.2344 25.2253Z" fill="#0F252A"/>
<path d="M80.0982 28.5335H75.699L75.4351 26.4395C74.7898 27.2138 73.9921 27.8179 73.0419 28.252C72.0916 28.6743 71.0476 28.8855 69.9096 28.8855C68.6778 28.8855 67.581 28.6509 66.619 28.1816C65.657 27.7006 64.9004 27.0437 64.349 26.2108C63.7976 25.3661 63.522 24.41 63.522 23.3425C63.522 22.2163 63.8211 21.225 64.4194 20.3686C65.0177 19.5122 65.8389 18.8435 66.883 18.3625C67.9388 17.8698 69.1354 17.6235 70.4727 17.6235C71.2587 17.6235 72.0447 17.7115 72.8307 17.8874C73.6284 18.0634 74.3675 18.3097 75.0479 18.6265V18.169C75.0479 17.4651 74.8485 16.8609 74.4496 16.3565C74.0625 15.8403 73.5229 15.4415 72.8307 15.1599C72.1503 14.8784 71.3878 14.7376 70.5431 14.7376C69.7337 14.7376 68.9301 14.8666 68.1323 15.1247C67.3463 15.3828 66.619 15.7699 65.9503 16.2861L64.5778 12.4324C65.7626 11.8224 66.9592 11.3648 68.1675 11.0598C69.3876 10.7431 70.5666 10.5847 71.7045 10.5847C73.4173 10.5847 74.9013 10.9249 76.1565 11.6053C77.4118 12.274 78.3796 13.2242 79.06 14.456C79.7522 15.6761 80.0982 17.1249 80.0982 18.8025V28.5335ZM71.0182 24.9966C71.6869 24.9966 72.3263 24.8499 72.9363 24.5566C73.5463 24.2634 74.039 23.8645 74.4144 23.3601C74.8016 22.8556 75.0069 22.2984 75.0303 21.6884V21.5652C74.5141 21.2132 73.9393 20.9434 73.3058 20.7557C72.6841 20.5563 72.0506 20.4566 71.4054 20.4566C70.4434 20.4566 69.6574 20.6677 69.0474 21.0901C68.4374 21.5124 68.1323 22.0579 68.1323 22.7266C68.1323 23.1606 68.2555 23.5536 68.5019 23.9056C68.76 24.2458 69.106 24.5156 69.5401 24.715C69.9741 24.9027 70.4669 24.9966 71.0182 24.9966Z" fill="#0F252A"/>
<path d="M89.0902 28.5335H84.0399V10.9366H88.4392L88.6151 13.9809C89.2017 12.9134 89.9994 12.0804 91.0083 11.4822C92.0172 10.8839 93.1727 10.5847 94.4749 10.5847C94.8503 10.5847 95.2257 10.614 95.6011 10.6727C95.9882 10.7196 96.3812 10.7959 96.7801 10.9015L96.1466 15.4415C95.3723 15.2186 94.6391 15.1071 93.947 15.1071C92.9733 15.1071 92.1169 15.33 91.3778 15.7758C90.6505 16.2099 90.0874 16.8199 89.6885 17.6059C89.2897 18.3801 89.0902 19.2893 89.0902 20.3334V28.5335Z" fill="#0F252A"/>
<path d="M104.505 28.5335H99.1029V1.43433H104.505V28.5335Z" fill="#0F252A"/>
<path d="M124.513 28.5335H120.114L119.85 26.4395C119.204 27.2138 118.407 27.8179 117.456 28.252C116.506 28.6743 115.462 28.8855 114.324 28.8855C113.092 28.8855 111.996 28.6509 111.034 28.1816C110.072 27.7006 109.315 27.0437 108.764 26.2108C108.212 25.3661 107.937 24.41 107.937 23.3425C107.937 22.2163 108.236 21.225 108.834 20.3686C109.432 19.5122 110.253 18.8435 111.298 18.3625C112.353 17.8698 113.55 17.6235 114.887 17.6235C115.673 17.6235 116.459 17.7115 117.245 17.8874C118.043 18.0634 118.782 18.3097 119.462 18.6265V18.169C119.462 17.4651 119.263 16.8609 118.864 16.3565C118.477 15.8403 117.937 15.4415 117.245 15.1599C116.565 14.8784 115.802 14.7376 114.958 14.7376C114.148 14.7376 113.345 14.8666 112.547 15.1247C111.761 15.3828 111.034 15.7699 110.365 16.2861L108.992 12.4324C110.177 11.8224 111.374 11.3648 112.582 11.0598C113.802 10.7431 114.981 10.5847 116.119 10.5847C117.832 10.5847 119.316 10.9249 120.571 11.6053C121.826 12.274 122.794 13.2242 123.475 14.456C124.167 15.6761 124.513 17.1249 124.513 18.8025V28.5335ZM115.433 24.9966C116.101 24.9966 116.741 24.8499 117.351 24.5566C117.961 24.2634 118.454 23.8645 118.829 23.3601C119.216 22.8556 119.421 22.2984 119.445 21.6884V21.5652C118.929 21.2132 118.354 20.9434 117.72 20.7557C117.099 20.5563 116.465 20.4566 115.82 20.4566C114.858 20.4566 114.072 20.6677 113.462 21.0901C112.852 21.5124 112.547 22.0579 112.547 22.7266C112.547 23.1606 112.67 23.5536 112.916 23.9056C113.175 24.2458 113.521 24.5156 113.955 24.715C114.389 24.9027 114.881 24.9966 115.433 24.9966Z" fill="#0F252A"/>
<path d="M50.0703 46.4687C50.0703 46.5094 50.0558 46.5442 50.0267 46.5733C49.9977 46.5966 49.9628 46.6082 49.9221 46.6082C49.8989 46.6082 49.8698 46.6053 49.8349 46.5995C49.8059 46.5937 49.7855 46.5791 49.7739 46.5559C49.7739 46.5501 49.7652 46.5123 49.7477 46.4425C49.7361 46.367 49.7187 46.2798 49.6954 46.181C49.678 46.0821 49.6576 45.9891 49.6344 45.9019C49.6169 45.8148 49.6024 45.7537 49.5908 45.7189C49.5675 45.6375 49.5356 45.5619 49.4949 45.4922C49.46 45.4166 49.4135 45.3468 49.3554 45.2829C49.3031 45.2248 49.2042 45.1841 49.0589 45.1608C48.9194 45.1376 48.7741 45.126 48.623 45.126C48.4777 45.1201 48.3672 45.1172 48.2917 45.1172C48.2103 45.1172 48.1144 45.1201 48.0039 45.126C47.8993 45.1318 47.8063 45.1579 47.7249 45.2044C47.6494 45.2451 47.6116 45.3265 47.6116 45.4486C47.6116 46.3263 47.6116 47.204 47.6116 48.0817C47.6174 48.9594 47.6203 49.8371 47.6203 50.7148C47.6203 50.7846 47.6494 50.8398 47.7075 50.8805C47.7656 50.9154 47.8325 50.9386 47.908 50.9502C47.9836 50.9619 48.0475 50.9677 48.0998 50.9677C48.1405 50.9677 48.1783 50.9648 48.2132 50.959C48.2539 50.9531 48.2946 50.9502 48.3353 50.9502C48.4283 50.9502 48.4748 50.9967 48.4748 51.0897C48.4748 51.1188 48.466 51.1508 48.4486 51.1856C48.4312 51.2205 48.4021 51.238 48.3614 51.238C48.158 51.238 47.9516 51.2322 47.7424 51.2205C47.5331 51.2089 47.3239 51.2031 47.1146 51.2031C46.8298 51.2031 46.5479 51.2118 46.2689 51.2292C46.1991 51.2351 46.1294 51.2409 46.0596 51.2467C45.9899 51.2525 45.923 51.2554 45.8591 51.2554C45.7661 51.2554 45.7196 51.2147 45.7196 51.1333C45.7196 51.0868 45.7312 51.0461 45.7544 51.0113C45.7835 50.9764 45.8242 50.959 45.8765 50.959C45.8998 50.959 45.9201 50.9619 45.9375 50.9677C45.9608 50.9677 45.984 50.9677 46.0073 50.9677C46.0654 50.9677 46.1381 50.9648 46.2253 50.959C46.3125 50.9473 46.3909 50.9241 46.4607 50.8892C46.5362 50.8485 46.574 50.7904 46.574 50.7148C46.574 50.2556 46.574 49.7993 46.574 49.3459C46.5798 48.8867 46.5827 48.4275 46.5827 47.9683C46.5827 47.5382 46.5798 47.111 46.574 46.6867C46.574 46.2565 46.574 45.8293 46.574 45.405C46.574 45.341 46.5391 45.2829 46.4694 45.2306C46.4055 45.1783 46.3444 45.1492 46.2863 45.1434C46.1875 45.126 46.0829 45.1201 45.9724 45.126C45.8678 45.126 45.7661 45.126 45.6672 45.126C45.4929 45.126 45.3388 45.1289 45.2051 45.1347C45.0773 45.1405 44.9668 45.1783 44.8738 45.248C44.7866 45.3178 44.7111 45.4515 44.6471 45.6491C44.6297 45.7014 44.6064 45.7973 44.5774 45.9368C44.5541 46.0705 44.528 46.2013 44.4989 46.3292C44.4698 46.4512 44.4466 46.5268 44.4292 46.5559C44.4117 46.5791 44.3914 46.5937 44.3681 46.5995C44.3507 46.6053 44.3274 46.6082 44.2984 46.6082C44.2519 46.6082 44.2141 46.6024 44.185 46.5907C44.1618 46.5791 44.1501 46.5472 44.1501 46.4948C44.1501 46.4193 44.156 46.3437 44.1676 46.2681C44.1792 46.1926 44.1879 46.117 44.1937 46.0415C44.2054 45.8787 44.2141 45.7159 44.2199 45.5532C44.2257 45.3904 44.2286 45.2277 44.2286 45.0649C44.2286 44.9952 44.2344 44.9341 44.2461 44.8818C44.2577 44.8295 44.31 44.8034 44.403 44.8034C44.4611 44.8034 44.5163 44.8092 44.5687 44.8208C44.6268 44.8266 44.6849 44.8295 44.743 44.8295C44.7895 44.8353 44.836 44.8382 44.8825 44.8382C44.9349 44.8382 44.9843 44.8411 45.0308 44.847C45.3563 44.8528 45.6992 44.8586 46.0596 44.8644C46.4258 44.8644 46.7746 44.8644 47.1059 44.8644C47.4314 44.8644 47.7743 44.8644 48.1347 44.8644C48.4951 44.8586 48.8351 44.8528 49.1548 44.847C49.2653 44.8411 49.3728 44.8382 49.4774 44.8382C49.5879 44.8324 49.6983 44.8295 49.8088 44.8295C49.896 44.8295 49.9512 44.8528 49.9744 44.8993C50.0035 44.94 50.0151 44.9923 50.0093 45.0562C50.0093 45.1201 50.0093 45.1841 50.0093 45.248C50.0093 45.3933 50.0151 45.5387 50.0267 45.684C50.0384 45.8235 50.0471 45.9659 50.0529 46.1112C50.0529 46.1693 50.0558 46.2275 50.0616 46.2856C50.0674 46.3437 50.0703 46.4047 50.0703 46.4687Z" fill="#0F252A"/>
<path d="M59.2552 49.686C59.2552 49.7906 59.2435 49.8981 59.2203 50.0086C59.2028 50.1132 59.1854 50.2178 59.168 50.3225C59.1563 50.4387 59.1476 50.5579 59.1418 50.6799C59.136 50.7962 59.1186 50.9125 59.0895 51.0287C59.0837 51.0694 59.0604 51.1072 59.0197 51.1421C58.9849 51.1769 58.9442 51.1944 58.8977 51.1944C58.2757 51.1944 57.6538 51.1915 57.0318 51.1856C56.4099 51.174 55.7879 51.1682 55.166 51.1682C54.9741 51.1682 54.7823 51.1769 54.5905 51.1944C54.4045 51.206 54.2185 51.2118 54.0325 51.2118C53.9976 51.2118 53.9598 51.2031 53.9191 51.1856C53.8785 51.1624 53.8581 51.1304 53.8581 51.0897C53.8581 51.0142 53.8872 50.9648 53.9453 50.9415C54.0034 50.9183 54.0732 50.9066 54.1546 50.9066C54.2417 50.9066 54.326 50.9008 54.4074 50.8892C54.4888 50.8776 54.5585 50.8427 54.6167 50.7846C54.6748 50.7206 54.7039 50.616 54.7039 50.4707L54.6951 45.5096C54.6951 45.3759 54.6574 45.2916 54.5818 45.2567C54.5062 45.2161 54.4132 45.1957 54.3028 45.1957C54.2563 45.1957 54.2069 45.1986 54.1546 45.2044C54.1081 45.2044 54.0616 45.2044 54.0151 45.2044C53.9569 45.2044 53.9046 45.1928 53.8581 45.1696C53.8116 45.1463 53.7884 45.1027 53.7884 45.0388C53.7884 44.9109 53.8494 44.847 53.9715 44.847C54.0703 44.847 54.1691 44.8499 54.2679 44.8557C54.3667 44.8615 54.4655 44.8644 54.5643 44.8644C55.1514 44.8644 55.7356 44.8615 56.3169 44.8557C56.9039 44.844 57.491 44.8382 58.0781 44.8382C58.3571 44.8382 58.6361 44.8295 58.9151 44.8121C58.9384 44.9806 58.9674 45.1521 59.0023 45.3265C59.0372 45.4951 59.0662 45.6665 59.0895 45.8409C59.1011 45.87 59.1098 45.9019 59.1157 45.9368C59.1215 45.9717 59.1244 46.0037 59.1244 46.0327C59.1244 46.1025 59.0982 46.1519 59.0459 46.181C58.9994 46.2042 58.9442 46.2158 58.8802 46.2158C58.8221 46.2158 58.7785 46.2071 58.7495 46.1897C58.7204 46.1664 58.6942 46.1257 58.671 46.0676C58.5722 45.7305 58.4327 45.4951 58.2525 45.3614C58.0723 45.2277 57.8049 45.1608 57.4503 45.1608H55.6891V47.7242C55.91 47.7184 56.128 47.7155 56.343 47.7155C56.5581 47.7097 56.7732 47.701 56.9882 47.6893C57.2149 47.6777 57.4358 47.6574 57.6509 47.6283C57.8659 47.5934 58.0839 47.5556 58.3048 47.515C58.3106 47.515 58.3135 47.515 58.3135 47.515C58.3193 47.515 58.3251 47.515 58.3309 47.515C58.3484 47.515 58.3716 47.5208 58.4007 47.5324C58.4356 47.544 58.453 47.5615 58.453 47.5847C58.453 47.6254 58.4327 47.6981 58.392 47.8027C58.3571 47.9073 58.3309 47.9771 58.3135 48.0119C58.2728 48.0875 58.2118 48.1253 58.1304 48.1253C58.0839 48.1253 58.0345 48.1253 57.9822 48.1253C57.9357 48.1195 57.8892 48.1137 57.8427 48.1079C57.7381 48.0962 57.6334 48.0875 57.5288 48.0817C57.4242 48.0759 57.3195 48.0701 57.2149 48.0643C57.0696 48.0643 56.9272 48.0643 56.7877 48.0643C56.6482 48.0643 56.5058 48.0643 56.3605 48.0643C56.2791 48.0643 56.1832 48.0701 56.0727 48.0817C55.9681 48.0933 55.878 48.1253 55.8024 48.1776C55.7269 48.2299 55.6891 48.3142 55.6891 48.4305V50.5143C55.6891 50.6829 55.724 50.7875 55.7937 50.8282C55.8693 50.863 55.9797 50.8805 56.125 50.8805H56.8836C57.0405 50.8805 57.2149 50.8718 57.4067 50.8543C57.6044 50.8369 57.7933 50.802 57.9735 50.7497C58.1595 50.6974 58.3106 50.616 58.4269 50.5056C58.5489 50.3893 58.6419 50.2556 58.7059 50.1045C58.7756 49.9534 58.8454 49.8051 58.9151 49.6598C58.9442 49.5959 59.0023 49.5639 59.0895 49.5639C59.1302 49.5639 59.168 49.5726 59.2028 49.5901C59.2377 49.6075 59.2552 49.6395 59.2552 49.686Z" fill="#0F252A"/>
<path d="M69.7077 51.0461C69.7077 51.1043 69.6845 51.1479 69.638 51.1769C69.5973 51.2002 69.5508 51.2118 69.4985 51.2118C69.4055 51.2118 69.3125 51.2089 69.2194 51.2031C69.1323 51.1973 69.0451 51.1944 68.9579 51.1944C68.7951 51.1886 68.6295 51.1886 68.4609 51.1944C68.2981 51.1944 68.1354 51.1944 67.9726 51.1944C67.9029 51.1944 67.8477 51.1856 67.807 51.1682C67.7663 51.145 67.7314 51.1014 67.7023 51.0374C67.4873 50.5957 67.2461 50.1684 66.9787 49.7557C66.7171 49.343 66.4555 48.9303 66.194 48.5176C66.1591 48.57 66.0893 48.6746 65.9847 48.8315C65.8859 48.9885 65.7696 49.1687 65.636 49.3721C65.5023 49.5755 65.3715 49.7761 65.2436 49.9737C65.1157 50.1713 65.0082 50.3399 64.921 50.4794C64.8396 50.6131 64.7989 50.6887 64.7989 50.7061C64.7989 50.7875 64.8425 50.8427 64.9297 50.8718C65.0169 50.9008 65.1128 50.9154 65.2174 50.9154C65.3221 50.9154 65.4005 50.9154 65.4529 50.9154C65.4877 50.9154 65.5168 50.9299 65.54 50.959C65.5691 50.9822 65.5836 51.0113 65.5836 51.0461C65.5836 51.145 65.5459 51.1973 65.4703 51.2031C65.3947 51.2031 65.3163 51.2031 65.2349 51.2031C65.107 51.2031 64.9733 51.2002 64.8338 51.1944C64.7001 51.1886 64.5664 51.1856 64.4327 51.1856C64.2293 51.1856 64.0229 51.1915 63.8137 51.2031C63.6102 51.2147 63.4068 51.2205 63.2034 51.2205C63.1627 51.2205 63.1249 51.2089 63.09 51.1856C63.0551 51.1566 63.0377 51.1217 63.0377 51.081C63.0377 50.9706 63.0726 50.9154 63.1423 50.9154C63.2121 50.9154 63.2818 50.9154 63.3516 50.9154C63.4911 50.9154 63.6102 50.9037 63.7091 50.8805C63.8079 50.8572 63.9125 50.7991 64.0229 50.7061C64.1218 50.6189 64.2177 50.5288 64.3107 50.4358C64.4095 50.337 64.4967 50.2353 64.5722 50.1307C64.8222 49.8226 65.0634 49.5116 65.2959 49.1977C65.5342 48.878 65.7609 48.5525 65.976 48.2212C65.6621 47.7446 65.3511 47.2679 65.0431 46.7913C64.735 46.3088 64.4182 45.8351 64.0927 45.3701C64.0404 45.2945 63.991 45.248 63.9445 45.2306C63.9038 45.2073 63.8398 45.1957 63.7526 45.1957C63.6887 45.1957 63.6248 45.2015 63.5608 45.2132C63.4969 45.219 63.433 45.2219 63.369 45.2219C63.3167 45.2219 63.2673 45.2102 63.2208 45.187C63.1801 45.1579 63.1598 45.1143 63.1598 45.0562C63.1598 44.9748 63.1975 44.9254 63.2731 44.908C63.3487 44.8905 63.4271 44.8818 63.5085 44.8818C63.5899 44.876 63.6684 44.8702 63.7439 44.8644C63.9125 44.8528 64.084 44.8382 64.2584 44.8208C64.4327 44.7975 64.6013 44.7859 64.7641 44.7859C64.8454 44.7859 64.9123 44.8179 64.9646 44.8818C65.0169 44.9458 65.0634 45.0068 65.1041 45.0649C65.3482 45.4602 65.5894 45.8584 65.8278 46.2594C66.0661 46.6605 66.3015 47.0645 66.534 47.4714C66.5805 47.3958 66.6561 47.2795 66.7607 47.1226C66.8653 46.9657 66.9816 46.7884 67.1095 46.5907C67.2373 46.3873 67.3594 46.1897 67.4757 45.9979C67.5977 45.8002 67.6965 45.6258 67.7721 45.4747C67.8477 45.3178 67.8854 45.2102 67.8854 45.1521C67.8854 45.1056 67.8622 45.0795 67.8157 45.0736C67.7692 45.062 67.7285 45.0562 67.6936 45.0562C67.6239 45.0562 67.5541 45.062 67.4844 45.0736C67.4204 45.0795 67.3536 45.0824 67.2838 45.0824C67.1792 45.0824 67.1269 45.0301 67.1269 44.9254C67.1269 44.8789 67.1472 44.847 67.1879 44.8295C67.2286 44.8121 67.2693 44.8034 67.31 44.8034C67.4553 44.8034 67.5977 44.8063 67.7372 44.8121C67.8825 44.8121 68.0279 44.8121 68.1732 44.8121C68.3476 44.8121 68.5219 44.8092 68.6963 44.8034C68.8765 44.7917 69.0538 44.7859 69.2282 44.7859C69.3444 44.7859 69.4025 44.8353 69.4025 44.9341C69.4025 45.0213 69.356 45.0736 69.263 45.0911C69.17 45.1027 69.0654 45.1085 68.9492 45.1085C68.8329 45.1085 68.7341 45.1318 68.6527 45.1783C68.6062 45.2015 68.5539 45.2422 68.4958 45.3003C68.4435 45.3585 68.3999 45.4108 68.365 45.4573C68.1034 45.8409 67.836 46.2246 67.5628 46.6082C67.2896 46.986 67.0106 47.3638 66.7258 47.7417C66.9351 48.0323 67.1414 48.3287 67.3449 48.631C67.5483 48.9274 67.7518 49.2239 67.9552 49.5203C68.0947 49.718 68.2371 49.9185 68.3824 50.1219C68.5277 50.3254 68.6789 50.5201 68.8358 50.7061C68.8998 50.7817 68.9724 50.8282 69.0538 50.8456C69.1352 50.863 69.2194 50.8718 69.3066 50.8718C69.3473 50.8718 69.3851 50.8689 69.42 50.863C69.4607 50.8572 69.5014 50.8543 69.5421 50.8543C69.5886 50.8543 69.6263 50.8747 69.6554 50.9154C69.6903 50.956 69.7077 50.9996 69.7077 51.0461Z" fill="#0F252A"/>
<path d="M79.095 46.4687C79.095 46.5094 79.0805 46.5442 79.0514 46.5733C79.0223 46.5966 78.9874 46.6082 78.9468 46.6082C78.9235 46.6082 78.8944 46.6053 78.8596 46.5995C78.8305 46.5937 78.8102 46.5791 78.7985 46.5559C78.7985 46.5501 78.7898 46.5123 78.7724 46.4425C78.7608 46.367 78.7433 46.2798 78.7201 46.181C78.7026 46.0821 78.6823 45.9891 78.659 45.9019C78.6416 45.8148 78.6271 45.7537 78.6154 45.7189C78.5922 45.6375 78.5602 45.5619 78.5195 45.4922C78.4847 45.4166 78.4382 45.3468 78.38 45.2829C78.3277 45.2248 78.2289 45.1841 78.0836 45.1608C77.9441 45.1376 77.7988 45.126 77.6476 45.126C77.5023 45.1201 77.3919 45.1172 77.3163 45.1172C77.2349 45.1172 77.139 45.1201 77.0286 45.126C76.924 45.1318 76.831 45.1579 76.7496 45.2044C76.674 45.2451 76.6362 45.3265 76.6362 45.4486C76.6362 46.3263 76.6362 47.204 76.6362 48.0817C76.642 48.9594 76.645 49.8371 76.645 50.7148C76.645 50.7846 76.674 50.8398 76.7321 50.8805C76.7903 50.9154 76.8571 50.9386 76.9327 50.9502C77.0082 50.9619 77.0722 50.9677 77.1245 50.9677C77.1652 50.9677 77.203 50.9648 77.2378 50.959C77.2785 50.9531 77.3192 50.9502 77.3599 50.9502C77.4529 50.9502 77.4994 50.9967 77.4994 51.0897C77.4994 51.1188 77.4907 51.1508 77.4733 51.1856C77.4558 51.2205 77.4268 51.238 77.3861 51.238C77.1826 51.238 76.9763 51.2322 76.767 51.2205C76.5578 51.2089 76.3485 51.2031 76.1392 51.2031C75.8544 51.2031 75.5725 51.2118 75.2935 51.2292C75.2238 51.2351 75.154 51.2409 75.0843 51.2467C75.0145 51.2525 74.9477 51.2554 74.8837 51.2554C74.7907 51.2554 74.7442 51.2147 74.7442 51.1333C74.7442 51.0868 74.7558 51.0461 74.7791 51.0113C74.8082 50.9764 74.8488 50.959 74.9012 50.959C74.9244 50.959 74.9448 50.9619 74.9622 50.9677C74.9854 50.9677 75.0087 50.9677 75.0319 50.9677C75.0901 50.9677 75.1627 50.9648 75.2499 50.959C75.3371 50.9473 75.4156 50.9241 75.4853 50.8892C75.5609 50.8485 75.5987 50.7904 75.5987 50.7148C75.5987 50.2556 75.5987 49.7993 75.5987 49.3459C75.6045 48.8867 75.6074 48.4275 75.6074 47.9683C75.6074 47.5382 75.6045 47.111 75.5987 46.6867C75.5987 46.2565 75.5987 45.8293 75.5987 45.405C75.5987 45.341 75.5638 45.2829 75.494 45.2306C75.4301 45.1783 75.3691 45.1492 75.3109 45.1434C75.2121 45.126 75.1075 45.1201 74.9971 45.126C74.8924 45.126 74.7907 45.126 74.6919 45.126C74.5175 45.126 74.3635 45.1289 74.2298 45.1347C74.1019 45.1405 73.9915 45.1783 73.8985 45.248C73.8113 45.3178 73.7357 45.4515 73.6718 45.6491C73.6543 45.7014 73.6311 45.7973 73.602 45.9368C73.5788 46.0705 73.5526 46.2013 73.5236 46.3292C73.4945 46.4512 73.4712 46.5268 73.4538 46.5559C73.4364 46.5791 73.416 46.5937 73.3928 46.5995C73.3753 46.6053 73.3521 46.6082 73.323 46.6082C73.2765 46.6082 73.2387 46.6024 73.2097 46.5907C73.1864 46.5791 73.1748 46.5472 73.1748 46.4948C73.1748 46.4193 73.1806 46.3437 73.1922 46.2681C73.2039 46.1926 73.2126 46.117 73.2184 46.0415C73.23 45.8787 73.2387 45.7159 73.2445 45.5532C73.2504 45.3904 73.2533 45.2277 73.2533 45.0649C73.2533 44.9952 73.2591 44.9341 73.2707 44.8818C73.2823 44.8295 73.3346 44.8034 73.4277 44.8034C73.4858 44.8034 73.541 44.8092 73.5933 44.8208C73.6514 44.8266 73.7096 44.8295 73.7677 44.8295C73.8142 44.8353 73.8607 44.8382 73.9072 44.8382C73.9595 44.8382 74.0089 44.8411 74.0554 44.847C74.3809 44.8528 74.7239 44.8586 75.0843 44.8644C75.4505 44.8644 75.7992 44.8644 76.1305 44.8644C76.456 44.8644 76.799 44.8644 77.1594 44.8644C77.5198 44.8586 77.8598 44.8528 78.1795 44.847C78.2899 44.8411 78.3975 44.8382 78.5021 44.8382C78.6125 44.8324 78.723 44.8295 78.8334 44.8295C78.9206 44.8295 78.9758 44.8528 78.9991 44.8993C79.0281 44.94 79.0398 44.9923 79.034 45.0562C79.034 45.1201 79.034 45.1841 79.034 45.248C79.034 45.3933 79.0398 45.5387 79.0514 45.684C79.063 45.8235 79.0717 45.9659 79.0775 46.1112C79.0775 46.1693 79.0805 46.2275 79.0863 46.2856C79.0921 46.3437 79.095 46.4047 79.095 46.4687Z" fill="#0F252A"/>
<path d="M89.1517 44.9429C89.1517 45.001 89.1343 45.0388 89.0994 45.0562C89.0703 45.0678 89.0326 45.0736 88.986 45.0736C88.9512 45.0736 88.9134 45.0736 88.8727 45.0736C88.8378 45.0678 88.8 45.0649 88.7594 45.0649C88.5966 45.0649 88.4862 45.0882 88.428 45.1347C88.3757 45.1812 88.3496 45.248 88.3496 45.3352C88.3496 45.4224 88.3496 45.5328 88.3496 45.6665C88.3496 46.1839 88.3525 46.7012 88.3583 47.2185C88.3699 47.73 88.3757 48.2444 88.3757 48.7618C88.3757 49.2733 88.3002 49.718 88.149 50.0958C87.9979 50.4678 87.7567 50.7555 87.4254 50.959C87.0998 51.1624 86.6639 51.2641 86.1175 51.2641C85.3386 51.2641 84.7225 51.0723 84.2691 50.6887C83.8215 50.2992 83.5977 49.7005 83.5977 48.8926V48.5089C83.5977 48.1834 83.5977 47.8608 83.5977 47.5411C83.5977 47.2156 83.5977 46.893 83.5977 46.5733V45.7886C83.5977 45.7072 83.6006 45.6229 83.6064 45.5358C83.6123 45.4428 83.6093 45.3556 83.5977 45.2742C83.5919 45.1812 83.5454 45.1231 83.4582 45.0998C83.3768 45.0707 83.2838 45.0591 83.1792 45.0649C83.0746 45.0649 82.9903 45.0649 82.9264 45.0649C82.8682 45.0649 82.8304 45.0533 82.813 45.0301C82.8014 45.001 82.7956 44.9632 82.7956 44.9167C82.7956 44.8702 82.813 44.8382 82.8479 44.8208C82.8828 44.8034 82.9205 44.7946 82.9612 44.7946C83.0252 44.7946 83.0891 44.7975 83.1531 44.8034C83.217 44.8034 83.278 44.8063 83.3362 44.8121C83.464 44.8179 83.589 44.8237 83.7111 44.8295C83.8389 44.8295 83.9668 44.8295 84.0947 44.8295C84.2981 44.8295 84.5016 44.8237 84.705 44.8121C84.9085 44.8005 85.109 44.7946 85.3066 44.7946C85.3531 44.7946 85.3938 44.8034 85.4287 44.8208C85.4636 44.8382 85.481 44.876 85.481 44.9341C85.481 45.0271 85.4316 45.0736 85.3328 45.0736C85.263 45.0736 85.1933 45.0736 85.1235 45.0736C85.0538 45.0678 84.9811 45.0649 84.9056 45.0649C84.8474 45.0649 84.7835 45.0853 84.7138 45.126C84.6498 45.1608 84.612 45.2102 84.6004 45.2742C84.5888 45.3672 84.583 45.4689 84.583 45.5793C84.5888 45.684 84.5917 45.7857 84.5917 45.8845C84.5917 46.4076 84.5888 46.9308 84.583 47.4539C84.5771 47.9771 84.5742 48.5002 84.5742 49.0233C84.5742 49.4244 84.612 49.7674 84.6876 50.0522C84.7632 50.337 84.9143 50.555 85.141 50.7061C85.3735 50.8514 85.7135 50.9241 86.1611 50.9241C86.597 50.9241 86.9429 50.8282 87.1987 50.6364C87.4602 50.4445 87.6491 50.1888 87.7654 49.8691C87.8816 49.5436 87.9398 49.1861 87.9398 48.7966C87.9398 48.2096 87.9369 47.6225 87.931 47.0354C87.931 46.4483 87.931 45.8642 87.931 45.2829C87.931 45.2073 87.8962 45.155 87.8264 45.126C87.7567 45.0911 87.6898 45.0736 87.6259 45.0736C87.5503 45.0736 87.4777 45.0766 87.4079 45.0824C87.3382 45.0824 87.2655 45.0824 87.1899 45.0824C87.1609 45.0824 87.1347 45.0678 87.1115 45.0388C87.094 45.0097 87.0853 44.9806 87.0853 44.9516C87.0853 44.847 87.1347 44.7946 87.2335 44.7946C87.3149 44.7946 87.3963 44.8005 87.4777 44.8121C87.5649 44.8179 87.652 44.8208 87.7392 44.8208C87.8845 44.8208 88.027 44.8208 88.1665 44.8208C88.3118 44.815 88.4571 44.8092 88.6024 44.8034C88.6722 44.8034 88.7419 44.8005 88.8117 44.7946C88.8872 44.7888 88.9628 44.7859 89.0384 44.7859C89.0849 44.7859 89.1139 44.8034 89.1255 44.8382C89.143 44.8673 89.1517 44.9022 89.1517 44.9429Z" fill="#0F252A"/>
<path d="M96.9278 46.3641C96.9278 45.9862 96.861 45.7043 96.7273 45.5183C96.5936 45.3265 96.4047 45.1986 96.1605 45.1347C95.9222 45.0707 95.6374 45.0388 95.3061 45.0388C95.248 45.0388 95.1695 45.0417 95.0707 45.0475C94.9777 45.0475 94.8905 45.0649 94.8091 45.0998C94.7335 45.1289 94.6958 45.187 94.6958 45.2742C94.6958 45.6636 94.6928 46.0531 94.687 46.4425C94.687 46.8262 94.687 47.2156 94.687 47.6109V47.6719C94.751 47.6893 94.8178 47.701 94.8876 47.7068C94.9573 47.7068 95.0242 47.7068 95.0881 47.7068C95.3962 47.7068 95.6897 47.6719 95.9687 47.6021C96.2477 47.5266 96.4773 47.3929 96.6575 47.2011C96.8377 47.0093 96.9278 46.7303 96.9278 46.3641ZM98.9506 51.0723C98.9506 51.1188 98.907 51.1566 98.8198 51.1856C98.7384 51.2089 98.6367 51.2234 98.5147 51.2292C98.3984 51.2409 98.288 51.2467 98.1833 51.2467C98.0787 51.2467 98.009 51.2467 97.9741 51.2467C97.73 51.2467 97.5323 51.2205 97.3812 51.1682C97.2301 51.1159 97.0877 50.9822 96.954 50.7671C96.6691 50.3079 96.396 49.8429 96.1344 49.3721C95.8728 48.8955 95.6112 48.4188 95.3497 47.9422L94.6958 47.9683C94.6958 48.4275 94.6958 48.8897 94.6958 49.3547C94.6958 49.8139 94.6958 50.2731 94.6958 50.7323C94.6958 50.8078 94.7219 50.8601 94.7742 50.8892C94.8323 50.9183 94.8934 50.9328 94.9573 50.9328C95.0387 50.9328 95.1172 50.9299 95.1927 50.9241C95.2741 50.9183 95.3526 50.9154 95.4281 50.9154C95.4688 50.9154 95.5008 50.9357 95.5241 50.9764C95.5473 51.0113 95.5589 51.0461 95.5589 51.081C95.5589 51.1391 95.5386 51.1769 95.4979 51.1944C95.4572 51.206 95.4136 51.2118 95.3671 51.2118C95.1055 51.2118 94.844 51.2089 94.5824 51.2031C94.3266 51.1973 94.068 51.1944 93.8064 51.1944C93.6727 51.1944 93.5361 51.1973 93.3966 51.2031C93.2629 51.2147 93.1263 51.2205 92.9868 51.2205C92.952 51.2205 92.92 51.2031 92.8909 51.1682C92.8619 51.1333 92.8473 51.0985 92.8473 51.0636C92.8473 50.9764 92.8996 50.9328 93.0043 50.9328C93.0566 50.9328 93.106 50.9357 93.1525 50.9415C93.2048 50.9415 93.2542 50.9415 93.3007 50.9415C93.3821 50.9415 93.4664 50.9328 93.5536 50.9154C93.6408 50.8921 93.6902 50.8311 93.7018 50.7323C93.7134 50.5811 93.7163 50.4097 93.7105 50.2178C93.7105 50.026 93.7105 49.8516 93.7105 49.6947C93.7105 49.5029 93.7105 49.3111 93.7105 49.1193C93.7105 48.9216 93.7105 48.7269 93.7105 48.5351C93.7105 48.1398 93.7105 47.7446 93.7105 47.3493C93.7105 46.954 93.7105 46.5617 93.7105 46.1722C93.7105 46.0211 93.7105 45.87 93.7105 45.7189C93.7163 45.5677 93.7134 45.4195 93.7018 45.2742C93.696 45.1754 93.6553 45.1172 93.5797 45.0998C93.5042 45.0824 93.4257 45.0736 93.3443 45.0736C93.3036 45.0736 93.2571 45.0766 93.2048 45.0824C93.1583 45.0824 93.1118 45.0824 93.0653 45.0824C92.9432 45.0824 92.8822 45.0242 92.8822 44.908C92.8822 44.8615 92.8967 44.8324 92.9258 44.8208C92.9549 44.8034 92.9897 44.7946 93.0304 44.7946C93.2281 44.7946 93.4228 44.8034 93.6146 44.8208C93.8122 44.8324 94.0099 44.8382 94.2075 44.8382C94.4807 44.8382 94.751 44.8266 95.0184 44.8034C95.2857 44.7801 95.5531 44.7685 95.8205 44.7685C96.0472 44.7685 96.2855 44.7917 96.5355 44.8382C96.7912 44.8789 97.0295 44.9545 97.2504 45.0649C97.4713 45.1696 97.6515 45.3149 97.791 45.5009C97.9305 45.6869 98.0002 45.9194 98.0002 46.1984C98.0002 46.553 97.9014 46.8552 97.7038 47.1052C97.5062 47.3551 97.2533 47.5498 96.9452 47.6893C96.8406 47.7417 96.7302 47.7823 96.6139 47.8114C96.5035 47.8347 96.3901 47.8579 96.2739 47.8812C96.5471 48.3345 96.8261 48.785 97.1109 49.2326C97.3957 49.6744 97.6893 50.1103 97.9915 50.5404C98.0729 50.6509 98.163 50.7439 98.2618 50.8195C98.3606 50.895 98.4798 50.9473 98.6193 50.9764C98.6484 50.9822 98.689 50.9851 98.7414 50.9851C98.7937 50.9793 98.8402 50.9822 98.8809 50.9938C98.9274 51.0055 98.9506 51.0316 98.9506 51.0723Z" fill="#0F252A"/>
<path d="M106.475 48.6223C106.295 48.1224 106.118 47.6225 105.944 47.1226C105.769 46.6227 105.592 46.1257 105.412 45.6317C105.237 46.1257 105.063 46.6227 104.889 47.1226C104.714 47.6225 104.543 48.1224 104.374 48.6223H106.475ZM109.056 51.081C109.056 51.174 109.013 51.2205 108.925 51.2205C108.867 51.2205 108.803 51.2176 108.734 51.2118C108.67 51.2118 108.606 51.2089 108.542 51.2031C108.414 51.1973 108.283 51.1944 108.149 51.1944C108.022 51.1944 107.891 51.1944 107.757 51.1944C107.693 51.1944 107.626 51.1944 107.557 51.1944C107.493 51.1944 107.426 51.1944 107.356 51.1944C107.228 51.1944 107.097 51.2002 106.964 51.2118C106.83 51.2292 106.696 51.238 106.563 51.238C106.522 51.238 106.493 51.2176 106.475 51.1769C106.458 51.1304 106.449 51.0897 106.449 51.0549C106.449 51.0258 106.464 50.9996 106.493 50.9764C106.522 50.9531 106.548 50.9415 106.571 50.9415L106.998 50.9502C107.045 50.9502 107.094 50.9415 107.147 50.9241C107.199 50.9008 107.225 50.8601 107.225 50.802C107.225 50.7904 107.205 50.7264 107.164 50.6102C107.129 50.4881 107.083 50.3428 107.025 50.1742C106.967 50.0057 106.905 49.8371 106.842 49.6685C106.778 49.4942 106.722 49.343 106.676 49.2152C106.629 49.0815 106.597 48.9943 106.58 48.9536H104.287C104.269 49.0059 104.235 49.0989 104.182 49.2326C104.136 49.3663 104.081 49.5174 104.017 49.686C103.953 49.8546 103.892 50.0231 103.834 50.1917C103.775 50.3544 103.726 50.4969 103.685 50.6189C103.65 50.7352 103.633 50.8078 103.633 50.8369C103.633 50.9125 103.674 50.959 103.755 50.9764C103.842 50.9938 103.912 51.0026 103.964 51.0026C104.028 51.0026 104.089 50.9996 104.147 50.9938C104.211 50.9822 104.272 50.9764 104.33 50.9764C104.383 50.9764 104.412 50.9967 104.418 51.0374C104.429 51.0723 104.435 51.1101 104.435 51.1508C104.423 51.1856 104.403 51.206 104.374 51.2118C104.345 51.2176 104.316 51.2205 104.287 51.2205C104.118 51.2205 103.947 51.2176 103.772 51.2118C103.598 51.2118 103.427 51.2118 103.258 51.2118C103.13 51.2118 103.002 51.2147 102.874 51.2205C102.752 51.2263 102.63 51.2292 102.508 51.2292C102.421 51.2292 102.377 51.1827 102.377 51.0897C102.377 51.0374 102.404 51.0055 102.456 50.9938C102.508 50.9822 102.566 50.9793 102.63 50.9851C102.7 50.9851 102.749 50.9851 102.779 50.9851C102.86 50.9851 102.927 50.9619 102.979 50.9154C103.031 50.8689 103.075 50.8136 103.11 50.7497C103.133 50.6974 103.188 50.5579 103.275 50.3312C103.368 50.1045 103.479 49.8197 103.607 49.4767C103.735 49.1338 103.871 48.7647 104.017 48.3694C104.162 47.9683 104.304 47.5731 104.444 47.1836C104.589 46.7884 104.72 46.4251 104.836 46.0938C104.952 45.7624 105.045 45.4893 105.115 45.2742C105.185 45.0591 105.22 44.937 105.22 44.908C105.22 44.8964 105.214 44.8847 105.202 44.8731C105.197 44.8557 105.194 44.8411 105.194 44.8295C105.194 44.8121 105.202 44.8005 105.22 44.7946C105.354 44.7656 105.496 44.7481 105.647 44.7423C105.798 44.7307 105.941 44.7162 106.074 44.6987L108.341 50.7759C108.359 50.8224 108.394 50.863 108.446 50.8979C108.504 50.927 108.559 50.9415 108.612 50.9415C108.664 50.9415 108.713 50.9415 108.76 50.9415C108.812 50.9357 108.864 50.9328 108.917 50.9328C108.981 50.9328 109.018 50.9444 109.03 50.9677C109.047 50.9851 109.056 51.0229 109.056 51.081Z" fill="#0F252A"/>
<path d="M118.311 49.2152C118.311 49.2558 118.308 49.2994 118.302 49.3459C118.296 49.3866 118.287 49.4302 118.276 49.4767C118.235 49.7267 118.2 49.9737 118.171 50.2178C118.142 50.462 118.107 50.709 118.066 50.959C118.066 50.9822 118.064 51.0084 118.058 51.0374C118.052 51.0665 118.04 51.0926 118.023 51.1159C118 51.145 117.968 51.1653 117.927 51.1769C117.892 51.1827 117.857 51.1856 117.822 51.1856C117.764 51.1856 117.703 51.1856 117.639 51.1856C117.581 51.1798 117.52 51.1769 117.456 51.1769C117.032 51.1711 116.608 51.1682 116.183 51.1682C115.765 51.1682 115.343 51.1682 114.919 51.1682C114.779 51.1682 114.64 51.1682 114.5 51.1682C114.361 51.1682 114.221 51.1711 114.082 51.1769C113.89 51.1827 113.695 51.1915 113.498 51.2031C113.306 51.2147 113.114 51.2205 112.922 51.2205C112.806 51.2205 112.748 51.1711 112.748 51.0723C112.748 51.0084 112.762 50.9706 112.792 50.959C112.826 50.9415 112.87 50.9328 112.922 50.9328C112.969 50.9328 113.015 50.9357 113.062 50.9415C113.114 50.9415 113.164 50.9415 113.21 50.9415C113.291 50.9415 113.37 50.9299 113.445 50.9066C113.527 50.8834 113.567 50.8224 113.567 50.7235V45.5968C113.567 45.4747 113.565 45.3759 113.559 45.3003C113.559 45.2248 113.536 45.1696 113.489 45.1347C113.443 45.0998 113.35 45.0824 113.21 45.0824C113.152 45.0824 113.094 45.0853 113.036 45.0911C112.983 45.0969 112.931 45.0998 112.879 45.0998C112.855 45.0998 112.829 45.0853 112.8 45.0562C112.777 45.0213 112.765 44.9923 112.765 44.969C112.765 44.94 112.771 44.9051 112.783 44.8644C112.8 44.8179 112.829 44.7946 112.87 44.7946C113.079 44.7946 113.288 44.8005 113.498 44.8121C113.713 44.8179 113.925 44.8208 114.134 44.8208C114.338 44.8208 114.541 44.8179 114.745 44.8121C114.954 44.8005 115.16 44.7946 115.364 44.7946C115.457 44.7946 115.503 44.8382 115.503 44.9254C115.503 44.9661 115.489 45.0039 115.46 45.0388C115.436 45.0678 115.404 45.0824 115.364 45.0824H115.006C114.931 45.0824 114.84 45.094 114.736 45.1172C114.631 45.1405 114.579 45.2073 114.579 45.3178C114.579 45.5212 114.576 45.7276 114.57 45.9368C114.57 46.1403 114.57 46.3437 114.57 46.5472C114.57 47.2272 114.57 47.9073 114.57 48.5874C114.576 49.2675 114.579 49.9446 114.579 50.6189C114.579 50.7061 114.611 50.77 114.675 50.8107C114.745 50.8514 114.823 50.8776 114.91 50.8892C114.997 50.895 115.073 50.8979 115.137 50.8979C115.323 50.8979 115.523 50.8979 115.739 50.8979C115.954 50.8979 116.169 50.8863 116.384 50.863C116.599 50.834 116.799 50.7817 116.985 50.7061C117.171 50.6247 117.331 50.5056 117.465 50.3486C117.604 50.1801 117.712 49.9999 117.787 49.8081C117.863 49.6104 117.939 49.4128 118.014 49.2152C118.032 49.1687 118.058 49.1425 118.093 49.1367C118.128 49.1251 118.165 49.1193 118.206 49.1193C118.229 49.1193 118.252 49.128 118.276 49.1454C118.299 49.1628 118.311 49.1861 118.311 49.2152Z" fill="#0F252A"/>
<path d="M17.466 14.002H1.33691V48.2966H39.4809M146.45 14.002H159.441V48.2966H130.695" stroke="#0F252A" stroke-width="0.737897"/>
<path d="M29.8184 27.3711C29.8184 27.3711 30.0581 32.1124 31.5336 33.4744C33.0091 34.8364 37.3749 34.3463 37.3749 34.3463C37.3749 34.3463 33.3629 35.3384 31.8874 36.7004C30.4119 38.0624 29.8184 41.3215 29.8184 41.3215C29.8184 41.3215 30.0345 37.7136 28.559 36.3516C27.0835 34.9897 22.262 34.3463 22.262 34.3463C22.262 34.3463 26.6699 34.8694 28.559 33.1256C30.4481 31.3818 29.8184 27.3711 29.8184 27.3711Z" fill="#0F252A"/>
<path d="M110.905 0.632812C110.905 0.632812 111.025 3.00346 111.763 3.68445C112.501 4.36545 114.683 4.1204 114.683 4.1204C114.683 4.1204 112.677 4.61647 111.94 5.29747C111.202 5.97846 110.905 7.60799 110.905 7.60799C110.905 7.60799 111.013 5.80408 110.275 5.12309C109.538 4.44209 107.127 4.1204 107.127 4.1204C107.127 4.1204 109.331 4.38197 110.275 3.51008C111.22 2.63818 110.905 0.632812 110.905 0.632812Z" fill="#0F252A"/>
</svg>
