<svg width="131" height="54" viewBox="0 0 131 54" fill="none" xmlns="http://www.w3.org/2000/svg">
<path d="M46.8425 34.2258C43.4821 21.8211 46.7035 -1.9718 86.4722 2.09452M46.8425 34.2258C72.7061 47.1509 84.0388 18.1904 86.4722 2.09452M46.8425 34.2258C44.8147 37.6144 40.4809 45.8802 39.3685 51.8344C37.8621 50.8823 37.248 46.0275 46.8425 34.2258ZM46.8425 34.2258C48.0367 31.9005 49.5154 29.6573 51.2007 27.5091C61.0936 14.8983 78.1058 5.55863 86.4722 2.09452" stroke="#0F252A" stroke-width="1.47579" stroke-linecap="round"/>
<path d="M0.887207 12.6768H5.23132V34.5446H15.4658V38.4469H0.887207V12.6768Z" fill="#0F252A"/>
<path d="M24.9803 38.4469V34.6182H37.9758V38.4469H24.9803ZM24.9803 16.5055V12.6768H37.9758V16.5055H24.9803ZM24.9803 26.519V22.7639H37.2395V26.519H24.9803ZM22.2928 12.6768H26.5633V38.4469H22.2928V12.6768Z" fill="#0F252A"/>
<path d="M93.8493 16.5791V12.6768H105.372V16.5791H93.8493ZM93.8493 26.8135V23.0216H105.004V26.8135H93.8493ZM91.1619 12.6768H95.4324V38.4469H91.1619V12.6768Z" fill="#0F252A"/>
<path d="M116.729 38.4469V34.6182H129.725V38.4469H116.729ZM116.729 16.5055V12.6768H129.725V16.5055H116.729ZM116.729 26.519V22.7639H128.988V26.519H116.729ZM114.042 12.6768H118.312V38.4469H114.042V12.6768Z" fill="#0F252A"/>
<path d="M73.1724 44.5452V43.2445H77.0134V44.5452H73.1724ZM73.1724 47.9567V46.6928H76.8907V47.9567H73.1724ZM72.2766 43.2445H73.7001V51.8345H72.2766V43.2445Z" fill="#0F252A"/>
<path d="M80.0711 49.6256L80.3411 48.3985H84.3293L84.6116 49.6256H80.0711ZM82.3168 45.6742L80.9669 48.828L80.9424 49.1471L79.7521 51.8345H78.12L82.3168 42.7659L86.5137 51.8345H84.8816L83.7158 49.2207L83.679 48.8648L82.3168 45.6742Z" fill="#0F252A"/>
<path d="M89.3046 49.0734C89.4927 49.4007 89.6932 49.6911 89.9059 49.9447C90.1268 50.1901 90.3681 50.3824 90.6299 50.5215C90.8917 50.6524 91.1862 50.7178 91.5134 50.7178C91.9061 50.7178 92.2252 50.6115 92.4706 50.3987C92.7161 50.186 92.8388 49.912 92.8388 49.5766C92.8388 49.2575 92.761 49.0039 92.6056 48.8157C92.4502 48.6194 92.2334 48.4558 91.9552 48.3249C91.6852 48.1858 91.3703 48.0508 91.0103 47.9199C90.7976 47.8463 90.5604 47.7481 90.2986 47.6254C90.0368 47.4945 89.7873 47.335 89.55 47.1468C89.3128 46.9505 89.1164 46.7132 88.961 46.4351C88.8055 46.1487 88.7278 45.8051 88.7278 45.4042C88.7278 44.9461 88.8464 44.5452 89.0837 44.2016C89.3209 43.8499 89.64 43.5799 90.0409 43.3917C90.4499 43.1954 90.9121 43.0972 91.4275 43.0972C91.9348 43.0972 92.3765 43.1872 92.7529 43.3672C93.1292 43.5472 93.4442 43.7762 93.6978 44.0544C93.9596 44.3325 94.1641 44.623 94.3113 44.9257L93.1333 45.5883C93.0269 45.3756 92.8919 45.1793 92.7283 44.9993C92.5647 44.8111 92.3724 44.6639 92.1516 44.5575C91.9389 44.443 91.6893 44.3857 91.403 44.3857C91.0021 44.3857 90.7076 44.4798 90.5195 44.668C90.3313 44.8479 90.2372 45.0606 90.2372 45.3061C90.2372 45.527 90.3027 45.7274 90.4336 45.9074C90.5726 46.0792 90.7853 46.2428 91.0717 46.3982C91.358 46.5537 91.7302 46.7132 92.1884 46.8768C92.442 46.9668 92.6956 47.0813 92.9492 47.2204C93.211 47.3595 93.4483 47.5354 93.661 47.7481C93.8737 47.9526 94.0414 48.194 94.1641 48.4721C94.295 48.7503 94.3604 49.0775 94.3604 49.4538C94.3604 49.8547 94.2827 50.2147 94.1273 50.5337C93.9718 50.8528 93.7591 51.1228 93.4892 51.3437C93.2192 51.5564 92.9124 51.72 92.5688 51.8345C92.2334 51.9572 91.8816 52.0186 91.5134 52.0186C91.0062 52.0186 90.5358 51.9204 90.1022 51.7241C89.6768 51.5195 89.3046 51.2496 88.9855 50.9142C88.6665 50.5787 88.4128 50.2147 88.2247 49.822L89.3046 49.0734Z" fill="#0F252A"/>
<path d="M97.6504 47.8954V46.5578H103.774V47.8954H97.6504ZM102.841 43.2445H104.289V51.8345H102.841V43.2445ZM97.0737 43.2445H98.5217V51.8345H97.0737V43.2445Z" fill="#0F252A"/>
<path d="M107.433 43.2445H108.893V51.8345H107.433V43.2445Z" fill="#0F252A"/>
<path d="M113.082 47.5395C113.082 48.1285 113.205 48.6562 113.45 49.1225C113.704 49.5806 114.052 49.9406 114.493 50.2024C114.935 50.4642 115.438 50.5951 116.003 50.5951C116.576 50.5951 117.079 50.4642 117.512 50.2024C117.954 49.9406 118.298 49.5806 118.543 49.1225C118.797 48.6562 118.923 48.1285 118.923 47.5395C118.923 46.9505 118.801 46.4269 118.555 45.9687C118.31 45.5024 117.966 45.1384 117.525 44.8766C117.091 44.6148 116.584 44.4839 116.003 44.4839C115.438 44.4839 114.935 44.6148 114.493 44.8766C114.052 45.1384 113.704 45.5024 113.45 45.9687C113.205 46.4269 113.082 46.9505 113.082 47.5395ZM111.548 47.5395C111.548 46.8932 111.659 46.3001 111.88 45.7601C112.101 45.2202 112.411 44.7539 112.812 44.3612C113.221 43.9603 113.696 43.6494 114.236 43.4285C114.784 43.2076 115.373 43.0972 116.003 43.0972C116.649 43.0972 117.242 43.2076 117.782 43.4285C118.322 43.6494 118.793 43.9603 119.193 44.3612C119.603 44.7539 119.917 45.2202 120.138 45.7601C120.359 46.3001 120.47 46.8932 120.47 47.5395C120.47 48.1776 120.359 48.7707 120.138 49.3189C119.917 49.867 119.607 50.3415 119.206 50.7423C118.805 51.1432 118.33 51.4582 117.782 51.6873C117.242 51.9081 116.649 52.0186 116.003 52.0186C115.365 52.0186 114.772 51.9081 114.223 51.6873C113.675 51.4582 113.201 51.1432 112.8 50.7423C112.407 50.3415 112.101 49.867 111.88 49.3189C111.659 48.7707 111.548 48.1776 111.548 47.5395Z" fill="#0F252A"/>
<path d="M129.376 43.2445H130.799V52.264L124.529 46.0669V51.8345H123.105V42.815L129.376 49.0121V43.2445Z" fill="#0F252A"/>
</svg>
