<svg width="98" height="51" viewBox="0 0 98 51" fill="none" xmlns="http://www.w3.org/2000/svg">
<path d="M1.39173 33.9226H0.818848L15.0932 0.504326L15.6183 0.265625L27.6489 33.9226H23.591L19.8672 23.4197H5.92706L1.39173 33.9226ZM13.6133 5.66028L6.11802 22.9423H19.724L13.6133 5.66028Z" fill="#0F252A"/>
<path d="M58.4448 15.2083V14.7309H70.2366V15.2083H67.6109C65.8923 19.8869 63.0437 24.088 59.0654 27.8118C57.1239 29.6259 54.8483 31.1059 52.2385 32.2516C49.6287 33.3656 46.9393 33.9226 44.1704 33.9226C41.5288 33.9226 39.1099 33.4133 36.9139 32.3949C35.6408 31.822 34.511 31.09 33.5243 30.1988C32.5695 29.2758 31.7738 28.0505 31.1373 26.5228C30.5008 24.9633 30.1825 23.181 30.1825 21.1759C30.1825 17.2612 31.376 13.9671 33.763 11.2936C36.1819 8.58836 38.919 7.23571 41.9743 7.23571C47.5122 7.23571 50.3766 9.7023 50.5676 14.6355L58.4925 8.38148L58.8267 8.66792L35.1475 27.2866C35.9432 29.1963 37.073 30.708 38.5371 31.822C40.0329 32.9041 41.8948 33.4451 44.1227 33.4451C46.3824 33.4451 48.6262 32.8882 50.8541 31.7742C53.1138 30.6285 55.0711 29.1485 56.7261 27.3344C60.0679 23.6425 62.4231 19.6005 63.7917 15.2083H58.4448ZM46.7961 17.6431C46.7643 14.0148 46.3983 11.4528 45.6981 9.95691C45.0297 8.46105 43.884 7.71312 42.2608 7.71312C40.6694 7.71312 39.3168 8.14278 38.2029 9.00211C37.1208 9.8296 36.2773 10.9276 35.6726 12.2962C34.5587 14.9378 34.0017 17.8182 34.0017 20.9372L34.0972 23.0378C34.2563 24.47 34.5428 25.7749 34.9565 26.9525L46.7961 17.6431Z" fill="#0F252A"/>
<path d="M78.4189 33.9226H74.4564V0.504326H78.4189V15.8767H93.9345V0.504326H97.8969V33.9226H93.9345V16.3541H78.4189V33.9226Z" fill="#0F252A"/>
<rect x="12.7589" y="39.5504" width="74.1455" height="11.0221" stroke="#0F252A" stroke-width="0.64771"/>
<path d="M18.2205 44.8431H18.386V46.3326H18.2205L18.0996 45.8552C18.0868 45.8043 18.072 45.7682 18.055 45.747C18.0423 45.7215 18.0147 45.7067 17.9723 45.7024C17.9298 45.6939 17.8577 45.6897 17.7558 45.6897H16.9665V47.1983C16.9665 47.3468 16.9729 47.4359 16.9856 47.4656C16.9984 47.4911 17.0387 47.506 17.1066 47.5102L17.584 47.5484V47.7139H15.9226V47.5484L16.2727 47.5102C16.3406 47.5017 16.3809 47.4847 16.3936 47.4593C16.4064 47.4338 16.4127 47.3468 16.4127 47.1983V43.901C16.4127 43.7525 16.4064 43.6655 16.3936 43.64C16.3809 43.6146 16.3406 43.5976 16.2727 43.5891L15.9226 43.5573V43.3854H18.8316V44.423H18.6661L18.4815 43.7546C18.4645 43.6825 18.4391 43.6379 18.4051 43.621C18.3754 43.5997 18.2863 43.5891 18.1378 43.5891H16.9665V45.486H17.7558C17.8577 45.486 17.9298 45.4839 17.9723 45.4796C18.0147 45.4712 18.0423 45.4563 18.055 45.4351C18.072 45.4096 18.0868 45.3714 18.0996 45.3205L18.2205 44.8431Z" fill="#0F252A"/>
<path d="M21.8797 47.5484V47.7139H20.6703V47.5484L21.014 47.5102C21.0607 47.506 21.0946 47.4996 21.1159 47.4911C21.1371 47.4784 21.1562 47.4529 21.1731 47.4147C21.1944 47.3723 21.2198 47.3001 21.2495 47.1983L22.478 43.3854H22.8791L24.1203 47.1983C24.15 47.3001 24.1734 47.3723 24.1903 47.4147C24.2116 47.4529 24.2328 47.4784 24.254 47.4911C24.2752 47.4996 24.307 47.506 24.3495 47.5102L24.6996 47.5484V47.7139H23.1528V47.5484L23.5029 47.5102C23.5708 47.5017 23.6068 47.4847 23.6111 47.4593C23.6196 47.4296 23.6005 47.3426 23.5538 47.1983L23.2928 46.3835H21.7397L21.4787 47.1983C21.432 47.3426 21.4108 47.4296 21.415 47.4593C21.4235 47.4847 21.4617 47.5017 21.5296 47.5102L21.8797 47.5484ZM21.8033 46.1798H23.2292L22.5162 43.9647L21.8033 46.1798Z" fill="#0F252A"/>
<path d="M28.2446 47.5738C28.529 47.5738 28.7581 47.5038 28.9321 47.3638C29.1103 47.2238 29.1994 47.0179 29.1994 46.7463C29.1994 46.5299 29.1337 46.3496 29.0021 46.2053C28.8706 46.0568 28.6414 45.9379 28.3147 45.8488L27.8754 45.7215C27.5529 45.6324 27.3068 45.4818 27.1371 45.2696C26.9673 45.0574 26.8824 44.7985 26.8824 44.493C26.8824 44.2893 26.9291 44.0984 27.0225 43.9201C27.1201 43.7419 27.2665 43.5976 27.4617 43.4873C27.6611 43.3769 27.9136 43.3218 28.2192 43.3218C28.5587 43.3218 28.8324 43.3854 29.0403 43.5127C29.2482 43.6358 29.3925 43.7971 29.4731 43.9965C29.5538 44.196 29.5729 44.4103 29.5304 44.6394L28.9957 44.754C29.0509 44.3593 29.0106 44.0559 28.8748 43.8437C28.7433 43.6316 28.5141 43.5255 28.1873 43.5255C27.9285 43.5255 27.7248 43.5955 27.5763 43.7355C27.4277 43.8713 27.3535 44.0708 27.3535 44.3339C27.3535 44.5418 27.4129 44.72 27.5317 44.8686C27.6505 45.0128 27.8606 45.1274 28.1619 45.2123L28.6011 45.3396C29.3098 45.5348 29.6641 45.9486 29.6641 46.5808C29.6641 46.8058 29.6111 47.0095 29.505 47.1919C29.4031 47.3702 29.2461 47.5123 29.0339 47.6184C28.826 47.7245 28.5629 47.7775 28.2446 47.7775C28.024 47.7775 27.8118 47.7436 27.6081 47.6757C27.4086 47.6078 27.2368 47.4911 27.0925 47.3256C26.9525 47.1601 26.8591 46.9309 26.8124 46.6381L27.1943 46.5108C27.2156 46.7909 27.2771 47.0073 27.3789 47.1601C27.4808 47.3129 27.6081 47.4211 27.7609 47.4847C27.9136 47.5441 28.0749 47.5738 28.2446 47.5738Z" fill="#0F252A"/>
<path d="M36.1749 47.5484V47.7139H34.6409V47.5484L34.991 47.5102C35.0589 47.5017 35.0992 47.4847 35.1119 47.4593C35.1247 47.4338 35.131 47.3468 35.131 47.1983V45.6324H33.2087V47.1983C33.2087 47.3468 33.215 47.4338 33.2278 47.4593C33.2405 47.4847 33.2808 47.5017 33.3487 47.5102L33.6988 47.5484V47.7139H32.1648V47.5484L32.5149 47.5102C32.5828 47.5017 32.6231 47.4847 32.6358 47.4593C32.6485 47.4338 32.6549 47.3468 32.6549 47.1983V43.901C32.6549 43.7525 32.6485 43.6655 32.6358 43.64C32.6231 43.6146 32.5828 43.5976 32.5149 43.5891L32.1648 43.5573V43.3854H33.6988V43.5573L33.3487 43.5891C33.2808 43.5976 33.2405 43.6146 33.2278 43.64C33.215 43.6655 33.2087 43.7525 33.2087 43.901V45.4287H35.131V43.901C35.131 43.7525 35.1247 43.6655 35.1119 43.64C35.0992 43.6146 35.0589 43.5976 34.991 43.5891L34.6409 43.5573V43.3854H36.1749V43.5573L35.8249 43.5891C35.757 43.5976 35.7166 43.6146 35.7039 43.64C35.6912 43.6655 35.6848 43.7525 35.6848 43.901V47.1983C35.6848 47.3468 35.6912 47.4338 35.7039 47.4593C35.7166 47.4847 35.757 47.5017 35.8249 47.5102L36.1749 47.5484Z" fill="#0F252A"/>
<path d="M38.6293 43.5573V43.3854H40.1634V43.5573L39.8133 43.5891C39.7454 43.5976 39.7051 43.6146 39.6924 43.64C39.6796 43.6655 39.6733 43.7525 39.6733 43.901V47.1983C39.6733 47.3468 39.6796 47.4338 39.6924 47.4593C39.7051 47.4847 39.7454 47.5017 39.8133 47.5102L40.1634 47.5484V47.7139H38.6293V47.5484L38.9794 47.5102C39.0473 47.5017 39.0877 47.4847 39.1004 47.4593C39.1131 47.4338 39.1195 47.3468 39.1195 47.1983V43.901C39.1195 43.7525 39.1131 43.6655 39.1004 43.64C39.0877 43.6146 39.0473 43.5976 38.9794 43.5891L38.6293 43.5573Z" fill="#0F252A"/>
<path d="M46.0827 45.3078V45.7852C46.0827 46.4047 45.9405 46.8928 45.6562 47.2492C45.3719 47.6014 44.9645 47.7775 44.434 47.7775C43.8993 47.7775 43.4898 47.6014 43.2055 47.2492C42.9254 46.8928 42.7854 46.4047 42.7854 45.7852V45.3078C42.7854 44.6925 42.9254 44.2087 43.2055 43.8565C43.4898 43.5 43.8993 43.3218 44.434 43.3218C44.9645 43.3218 45.3719 43.5 45.6562 43.8565C45.9405 44.2087 46.0827 44.6925 46.0827 45.3078ZM45.4779 44.9895C45.4779 44.4591 45.3888 44.0835 45.2106 43.8628C45.0366 43.6379 44.7778 43.5255 44.434 43.5255C44.0903 43.5255 43.8293 43.6379 43.6511 43.8628C43.4771 44.0835 43.3901 44.4591 43.3901 44.9895V46.1034C43.3901 46.6339 43.4771 47.0116 43.6511 47.2365C43.8293 47.4614 44.0903 47.5738 44.434 47.5738C44.7778 47.5738 45.0366 47.4614 45.2106 47.2365C45.3888 47.0116 45.4779 46.6339 45.4779 46.1034V44.9895Z" fill="#0F252A"/>
<path d="M51.3342 43.5573V43.3854H52.55V43.5573L52.1999 43.5891C52.132 43.5976 52.0917 43.6167 52.0789 43.6464C52.0662 43.6719 52.0598 43.7567 52.0598 43.901V47.7139H51.7479L49.4309 43.8055V47.1983C49.4309 47.3426 49.4373 47.4296 49.45 47.4593C49.4628 47.4847 49.5031 47.5017 49.571 47.5102L49.9211 47.5484V47.7139H48.7053V47.5484L49.0554 47.5102C49.1233 47.5017 49.1636 47.4847 49.1763 47.4593C49.1891 47.4296 49.1954 47.3426 49.1954 47.1983V43.901C49.1954 43.7567 49.1891 43.6719 49.1763 43.6464C49.1636 43.6167 49.1233 43.5976 49.0554 43.5891L48.7053 43.5573V43.3854H49.8065L51.8243 46.7973V43.901C51.8243 43.7567 51.818 43.6719 51.8052 43.6464C51.7925 43.6167 51.7522 43.5976 51.6843 43.5891L51.3342 43.5573Z" fill="#0F252A"/>
<path d="M59.6535 47.5738C59.9379 47.5738 60.167 47.5038 60.341 47.3638C60.5192 47.2238 60.6083 47.0179 60.6083 46.7463C60.6083 46.5299 60.5426 46.3496 60.411 46.2053C60.2795 46.0568 60.0503 45.9379 59.7235 45.8488L59.2843 45.7215C58.9618 45.6324 58.7157 45.4818 58.546 45.2696C58.3762 45.0574 58.2913 44.7985 58.2913 44.493C58.2913 44.2893 58.338 44.0984 58.4314 43.9201C58.529 43.7419 58.6754 43.5976 58.8706 43.4873C59.07 43.3769 59.3225 43.3218 59.6281 43.3218C59.9676 43.3218 60.2413 43.3854 60.4492 43.5127C60.6571 43.6358 60.8014 43.7971 60.882 43.9965C60.9627 44.196 60.9818 44.4103 60.9393 44.6394L60.4046 44.754C60.4598 44.3593 60.4195 44.0559 60.2837 43.8437C60.1521 43.6316 59.923 43.5255 59.5962 43.5255C59.3374 43.5255 59.1337 43.5955 58.9852 43.7355C58.8366 43.8713 58.7624 44.0708 58.7624 44.3339C58.7624 44.5418 58.8218 44.72 58.9406 44.8686C59.0594 45.0128 59.2695 45.1274 59.5708 45.2123L60.01 45.3396C60.7187 45.5348 61.073 45.9486 61.073 46.5808C61.073 46.8058 61.02 47.0095 60.9139 47.1919C60.812 47.3702 60.655 47.5123 60.4428 47.6184C60.2349 47.7245 59.9718 47.7775 59.6535 47.7775C59.4329 47.7775 59.2207 47.7436 59.017 47.6757C58.8175 47.6078 58.6457 47.4911 58.5014 47.3256C58.3614 47.1601 58.268 46.9309 58.2213 46.6381L58.6032 46.5108C58.6245 46.7909 58.686 47.0073 58.7878 47.1601C58.8897 47.3129 59.017 47.4211 59.1698 47.4847C59.3225 47.5441 59.4838 47.5738 59.6535 47.5738Z" fill="#0F252A"/>
<path d="M63.3509 43.3854H66.7372V44.423H66.5718L66.3872 43.7546C66.3744 43.7037 66.3596 43.6676 66.3426 43.6464C66.3299 43.621 66.3023 43.6061 66.2598 43.6019C66.2174 43.5934 66.1453 43.5891 66.0434 43.5891H65.3241V47.1983C65.3241 47.3468 65.3305 47.4338 65.3432 47.4593C65.356 47.4847 65.3963 47.5017 65.4642 47.5102L65.8143 47.5484V47.7139H64.2802V47.5484L64.6303 47.5102C64.6982 47.5017 64.7385 47.4847 64.7513 47.4593C64.764 47.4338 64.7703 47.3468 64.7703 47.1983V43.5891H64.0447C63.9471 43.5891 63.875 43.5934 63.8283 43.6019C63.7858 43.6061 63.7561 43.621 63.7392 43.6464C63.7264 43.6676 63.7137 43.7037 63.701 43.7546L63.5164 44.423H63.3509V43.3854Z" fill="#0F252A"/>
<path d="M72.438 45.3078V45.7852C72.438 46.4047 72.2959 46.8928 72.0116 47.2492C71.7272 47.6014 71.3199 47.7775 70.7894 47.7775C70.2547 47.7775 69.8452 47.6014 69.5609 47.2492C69.2808 46.8928 69.1408 46.4047 69.1408 45.7852V45.3078C69.1408 44.6925 69.2808 44.2087 69.5609 43.8565C69.8452 43.5 70.2547 43.3218 70.7894 43.3218C71.3199 43.3218 71.7272 43.5 72.0116 43.8565C72.2959 44.2087 72.438 44.6925 72.438 45.3078ZM71.8333 44.9895C71.8333 44.4591 71.7442 44.0835 71.566 43.8628C71.392 43.6379 71.1331 43.5255 70.7894 43.5255C70.4457 43.5255 70.1847 43.6379 70.0065 43.8628C69.8325 44.0835 69.7455 44.4591 69.7455 44.9895V46.1034C69.7455 46.6339 69.8325 47.0116 70.0065 47.2365C70.1847 47.4614 70.4457 47.5738 70.7894 47.5738C71.1331 47.5738 71.392 47.4614 71.566 47.2365C71.7442 47.0116 71.8333 46.6339 71.8333 46.1034V44.9895Z" fill="#0F252A"/>
<path d="M75.0607 43.5573V43.3854H76.8302C77.2461 43.3854 77.5644 43.4852 77.7851 43.6846C78.01 43.8798 78.1224 44.1408 78.1224 44.4675V44.6649C78.1224 44.9237 78.0503 45.1444 77.906 45.3269C77.766 45.5051 77.5644 45.6282 77.3013 45.6961L78.1161 47.1983C78.1712 47.3001 78.2115 47.3723 78.237 47.4147C78.2625 47.4529 78.2858 47.4784 78.307 47.4911C78.3325 47.4996 78.3664 47.506 78.4089 47.5102L78.6953 47.5484V47.7139H77.7341L76.7284 45.7534H76.1046V47.1983C76.1046 47.3468 76.111 47.4338 76.1237 47.4593C76.1364 47.4847 76.1767 47.5017 76.2446 47.5102L76.5947 47.5484V47.7139H75.0607V47.5484L75.4108 47.5102C75.4787 47.5017 75.519 47.4847 75.5317 47.4593C75.5444 47.4338 75.5508 47.3468 75.5508 47.1983V43.901C75.5508 43.7525 75.5444 43.6655 75.5317 43.64C75.519 43.6146 75.4787 43.5976 75.4108 43.5891L75.0607 43.5573ZM76.8302 43.5891H76.1046V45.5497H76.8302C77.0509 45.5497 77.2228 45.4796 77.3458 45.3396C77.4732 45.1953 77.5368 44.9789 77.5368 44.6903V44.4421C77.5368 44.1535 77.4732 43.9392 77.3458 43.7992C77.2228 43.6591 77.0509 43.5891 76.8302 43.5891Z" fill="#0F252A"/>
<path d="M83.7685 46.6763H83.934V47.7139H80.885V47.5484L81.2351 47.5102C81.303 47.5017 81.3433 47.4847 81.356 47.4593C81.3688 47.4338 81.3751 47.3468 81.3751 47.1983V43.901C81.3751 43.7525 81.3688 43.6655 81.356 43.64C81.3433 43.6146 81.303 43.5976 81.2351 43.5891L80.885 43.5573V43.3854H83.8513V44.423H83.6921L83.5075 43.7546C83.4948 43.7037 83.4799 43.6676 83.463 43.6464C83.4502 43.621 83.4227 43.6061 83.3802 43.6019C83.3378 43.5934 83.2656 43.5891 83.1638 43.5891H81.9289V45.4287H82.7819C82.8837 45.4287 82.9559 45.4266 82.9983 45.4224C83.0407 45.4139 83.0683 45.399 83.081 45.3778C83.098 45.3523 83.1129 45.3141 83.1256 45.2632L83.2466 44.7858H83.412V46.2753H83.2466L83.1256 45.7979C83.1129 45.747 83.098 45.7109 83.081 45.6897C83.0683 45.6642 83.0407 45.6494 82.9983 45.6451C82.9559 45.6367 82.8837 45.6324 82.7819 45.6324H81.9289V47.5102H83.2402C83.342 47.5102 83.4142 47.5081 83.4566 47.5038C83.499 47.4953 83.5266 47.4805 83.5394 47.4593C83.5563 47.4338 83.5712 47.3956 83.5839 47.3447L83.7685 46.6763Z" fill="#0F252A"/>
</svg>
