<svg width="37" height="37" viewBox="0 0 37 37" fill="none" xmlns="http://www.w3.org/2000/svg">
<path d="M6.2093 3.52326V1.58199C6.2093 1.26056 5.94874 1 5.62732 1H1.58199C1.26056 1 1 1.26056 1 1.58199V5.46453C1 5.78595 1.26056 6.04651 1.58199 6.04651H3.60465M6.2093 3.52326V5.46453C6.2093 5.78595 5.94874 6.04651 5.62732 6.04651H3.60465M6.2093 3.52326H30.8721M30.8721 3.52326V1.58199C30.8721 1.26056 31.1327 1 31.4541 1H35.6622C35.9836 1 36.2442 1.26056 36.2442 1.58199V5.46453C36.2442 5.78595 35.9836 6.04651 35.6622 6.04651H33.5581M30.8721 3.52326V5.46453C30.8721 5.78595 31.1327 6.04651 31.4541 6.04651H33.5581M33.5581 6.04651V30.6279M33.5581 30.6279H35.6622C35.9836 30.6279 36.2442 30.8885 36.2442 31.2099V35.418C36.2442 35.7394 35.9836 36 35.6622 36H31.4541C31.1327 36 30.8721 35.7394 30.8721 35.418V33.314M33.5581 30.6279H31.4541C31.1327 30.6279 30.8721 30.8885 30.8721 31.2099V33.314M30.8721 33.314H6.2093M6.2093 33.314V31.2099C6.2093 30.8885 5.94874 30.6279 5.62732 30.6279H3.60465M6.2093 33.314V35.418C6.2093 35.7394 5.94874 36 5.62732 36H1.58199C1.26056 36 1 35.7394 1 35.418V31.2099C1 30.8885 1.26056 30.6279 1.58199 30.6279H3.60465M3.60465 30.6279V6.04651M20.9419 28.3488C20.8876 24.3605 20.8116 16.0419 20.9419 14.6744C21.0721 13.307 21.593 13.1279 21.8372 13.2093C22.7868 13.1822 24.914 13.1442 25.8256 13.2093C26.7372 13.2744 27.1279 14.6473 27.2093 15.3256V8.74478C27.2093 8.42335 26.9487 8.16279 26.6273 8.16279H10.6983C10.3768 8.16279 10.1163 8.42335 10.1163 8.74478V14.6744C10.1163 13.6326 11.1473 13.2636 11.6628 13.2093C12.4225 13.2093 14.2023 13.2093 15.2442 13.2093C16.286 13.2093 16.438 14.186 16.3837 14.6744V28.3488M20.9419 28.3488H22.8953M20.9419 28.3488H16.3837M14.5116 28.3488H16.3837" stroke="#0F252A"/>
</svg>
