<svg width="12" height="14" viewBox="0 0 12 14" fill="none" xmlns="http://www.w3.org/2000/svg">
<path d="M2.78929 3.24151C2.83754 1.43595 4.2411 0.0583582 5.99364 0.0017313C7.80493 -0.0567938 9.35588 1.37543 9.40569 3.24151C9.45681 5.15683 7.85273 6.72481 5.99364 6.66466C4.19174 6.60637 2.73967 5.09791 2.78929 3.24151Z" fill="#0F252A"/>
<path d="M3.02665 6.60353C3.92861 7.55713 5.38046 7.85666 5.99364 7.88722C7.13297 8.13803 8.56504 7.13593 9.13866 6.60353C10.3967 6.60353 11.087 7.45932 11.2749 7.88722C13.0535 12.6552 11.1457 13.9491 9.96942 14H2.37391C-1.24583 14 0.178331 9.44598 0.831071 7.88722C1.35326 6.64021 2.51237 6.51184 3.02665 6.60353Z" fill="#0F252A"/>
</svg>
