<svg width="66" height="53" viewBox="0 0 66 53" fill="none" xmlns="http://www.w3.org/2000/svg">
<path d="M44.208 8.5585C39.6138 4.04911 33.3037 1.26587 26.3404 1.26587C12.2884 1.26587 0.896973 12.6 0.896973 26.5814C0.896973 40.5628 12.2884 51.897 26.3404 51.897C32.7307 51.897 38.5709 49.5529 43.0396 45.6819" stroke="#7B7C7D" stroke-width="0.737897"/>
<path d="M27.937 10.4653C28.7563 10.4957 29.8487 10.526 31.2142 10.5564C32.5797 10.5867 33.9452 10.6019 35.3107 10.6019C36.7976 10.6019 38.2238 10.5867 39.5893 10.5564C40.9852 10.526 41.9714 10.5108 42.5479 10.5108C46.4927 10.5108 49.4361 11.1784 51.3782 12.5136C53.3506 13.8487 54.3368 15.5632 54.3368 17.657C54.3368 18.7191 53.9878 19.8115 53.2899 20.9342C52.592 22.0266 51.5147 23.0128 50.0582 23.8928C48.632 24.7424 46.7962 25.3342 44.5507 25.668V25.759C47.5244 25.9411 49.8913 26.4569 51.6513 27.3066C53.4416 28.1259 54.7313 29.1121 55.5202 30.2652C56.3092 31.4183 56.7037 32.6169 56.7037 33.861C56.7037 35.8334 56.1726 37.472 55.1106 38.7768C54.0789 40.0816 52.5768 41.0678 50.6044 41.7354C48.6623 42.3726 46.3258 42.6913 43.5948 42.6913C42.8665 42.6913 41.8045 42.6761 40.4086 42.6457C39.0128 42.5851 37.3438 42.5547 35.4018 42.5547C33.9756 42.5547 32.5797 42.5699 31.2142 42.6002C29.8487 42.6002 28.7563 42.6306 27.937 42.6913V41.7809C28.8777 41.7202 29.5756 41.5989 30.0308 41.4168C30.5163 41.2347 30.8349 40.8706 30.9866 40.3244C31.1687 39.7782 31.2597 38.9589 31.2597 37.8665V15.2901C31.2597 14.1674 31.1687 13.3481 30.9866 12.8322C30.8349 12.286 30.5163 11.9219 30.0308 11.7398C29.5756 11.5274 28.8777 11.406 27.937 11.3757V10.4653ZM42.1383 11.3757C41.0459 11.3757 40.3328 11.6336 39.999 12.1495C39.6652 12.6653 39.4983 13.7122 39.4983 15.2901V37.8665C39.4983 38.9285 39.5742 39.7327 39.7259 40.2789C39.9079 40.8251 40.2114 41.1892 40.6362 41.3713C41.061 41.5533 41.6983 41.6444 42.5479 41.6444C44.49 41.6444 45.901 40.9616 46.781 39.5961C47.6913 38.2003 48.1465 36.2279 48.1465 33.6789C48.1465 31.3424 47.5699 29.5369 46.4168 28.2624C45.2941 26.9879 43.4127 26.3507 40.7728 26.3507H37.1769C37.1769 26.3507 37.1769 26.2293 37.1769 25.9866C37.1769 25.7135 37.1769 25.5769 37.1769 25.5769H41.0914C42.3962 25.5769 43.3976 25.2431 44.0955 24.5756C44.7934 23.8776 45.2789 22.9673 45.552 21.8445C45.8251 20.6914 45.9617 19.4625 45.9617 18.1577C45.9617 15.9122 45.6582 14.2281 45.0513 13.1053C44.4748 11.9522 43.5038 11.3757 42.1383 11.3757Z" fill="#7B7C7D"/>
<circle cx="20.843" cy="25.5587" r="8.69423" fill="#7B7C7D"/>
<circle cx="61.6292" cy="37.961" r="3.70783" fill="#7B7C7D"/>
<path d="M20.2293 41.9476H19.8201V40.3469H20.2293V41.9476ZM21.6612 41.9476H21.2521V40.398H21.6612V41.9476ZM19.8201 42.188V41.7533H23.4001V42.188H19.8201Z" fill="#7B7C7D"/>
<path d="M22.3261 37.8578L21.917 37.7044V36.119L22.3261 35.9656V37.8578ZM20.6282 36.9219L22.0499 37.5254L22.142 37.5663L23.4001 38.0982V38.5841L19.6411 36.9219L23.4001 35.2598V35.7457L22.1727 36.2673L22.0704 36.3082L20.6282 36.9219Z" fill="#7B7C7D"/>
<path d="M22.3159 32.9013C22.4591 32.8195 22.5852 32.7343 22.6943 32.6456C22.8034 32.5536 22.8887 32.4513 22.95 32.3388C23.0114 32.2263 23.0421 32.0984 23.0421 31.9552C23.0421 31.7643 22.9892 31.6108 22.8835 31.4949C22.7779 31.379 22.6432 31.321 22.4795 31.321C22.3193 31.321 22.1914 31.3585 22.096 31.4335C22.0005 31.5086 21.9238 31.6074 21.8658 31.7302C21.8044 31.8495 21.7499 31.9774 21.7022 32.1137C21.6715 32.2024 21.6323 32.3013 21.5845 32.4104C21.5334 32.5195 21.4703 32.6235 21.3953 32.7223C21.3169 32.8212 21.2214 32.903 21.1089 32.9678C20.9964 33.0292 20.8583 33.0599 20.6946 33.0599C20.5174 33.0599 20.3588 33.0156 20.219 32.9269C20.0792 32.8383 19.9701 32.7155 19.8917 32.5587C19.8099 32.4018 19.769 32.2228 19.769 32.0217C19.769 31.8273 19.8065 31.6586 19.8815 31.5154C19.9531 31.3688 20.0468 31.2443 20.1628 31.142C20.2753 31.0397 20.3946 30.9596 20.5208 30.9017L20.7356 31.275C20.6469 31.3193 20.56 31.3756 20.4747 31.4438C20.3895 31.512 20.3196 31.5955 20.2651 31.6944C20.2105 31.7898 20.1832 31.9075 20.1832 32.0473C20.1832 32.2416 20.231 32.3831 20.3264 32.4717C20.4185 32.5604 20.5225 32.6047 20.6384 32.6047C20.7373 32.6047 20.8293 32.5791 20.9146 32.528C20.9964 32.4769 21.0748 32.3916 21.1498 32.2723C21.2214 32.1495 21.293 31.9842 21.3646 31.7762C21.3987 31.6807 21.443 31.5802 21.4976 31.4745C21.5521 31.3688 21.622 31.2716 21.7073 31.1829C21.7891 31.0909 21.8897 31.0159 22.009 30.9579C22.1249 30.9 22.2647 30.871 22.4284 30.871C22.5852 30.871 22.7267 30.9017 22.8529 30.963C22.979 31.021 23.0864 31.1028 23.1751 31.2085C23.2637 31.3108 23.3319 31.4284 23.3796 31.5614C23.4274 31.691 23.4512 31.8273 23.4512 31.9705C23.4512 32.1649 23.4103 32.3456 23.3285 32.5127C23.2433 32.6763 23.1324 32.8212 22.9961 32.9474C22.8563 33.0701 22.708 33.1707 22.5511 33.2491L22.3159 32.9013Z" fill="#7B7C7D"/>
<path d="M21.6612 28.2021H21.2521V25.7473H21.6612V28.2021ZM19.8201 26.0388V25.6041H23.4001V26.0388H19.8201ZM19.8201 28.4425V28.0078H23.4001V28.4425H19.8201Z" fill="#7B7C7D"/>
<path d="M19.8201 22.9966V22.5619H23.4001V22.9966H19.8201Z" fill="#7B7C7D"/>
<path d="M21.6101 19.6973C21.8795 19.6973 22.1198 19.6393 22.3312 19.5234C22.5426 19.4041 22.7097 19.2421 22.8324 19.0376C22.9551 18.833 23.0165 18.6011 23.0165 18.342C23.0165 18.0795 22.9551 17.8476 22.8324 17.6465C22.7097 17.4419 22.5426 17.2817 22.3312 17.1657C22.1198 17.0464 21.8795 16.9867 21.6101 16.9867C21.3407 16.9867 21.1004 17.0464 20.889 17.1657C20.6776 17.2817 20.5105 17.4419 20.3878 17.6465C20.2651 17.8476 20.2037 18.0795 20.2037 18.342C20.2037 18.6011 20.2651 18.833 20.3878 19.0376C20.5105 19.2421 20.6776 19.4041 20.889 19.5234C21.1004 19.6393 21.3407 19.6973 21.6101 19.6973ZM21.6101 20.1576C21.3476 20.1576 21.1055 20.1133 20.8839 20.0246C20.6588 19.9326 20.4645 19.8047 20.3009 19.641C20.1338 19.4774 20.0042 19.2847 19.9122 19.0631C19.8167 18.8415 19.769 18.6011 19.769 18.342C19.769 18.0795 19.8167 17.8391 19.9122 17.6209C20.0042 17.3993 20.1338 17.2067 20.3009 17.043C20.4645 16.8793 20.6588 16.7532 20.8839 16.6645C21.1055 16.5725 21.3476 16.5265 21.6101 16.5265C21.8692 16.5265 22.1113 16.5725 22.3363 16.6645C22.5614 16.7532 22.7574 16.8793 22.9245 17.043C23.0881 17.2067 23.2177 17.3993 23.3131 17.6209C23.4052 17.8391 23.4512 18.0795 23.4512 18.342C23.4512 18.6011 23.4052 18.8415 23.3131 19.0631C23.2177 19.2847 23.0881 19.4774 22.9245 19.641C22.7574 19.8047 22.5614 19.9326 22.3363 20.0246C22.1113 20.1133 21.8692 20.1576 21.6101 20.1576Z" fill="#7B7C7D"/>
<path d="M19.8201 11.412V10.9773H23.5791L20.7356 13.6878H23.4001V14.1226H19.6411L22.4846 11.412H19.8201Z" fill="#7B7C7D"/>
</svg>
