<svg width="47" height="47" viewBox="0 0 47 47" fill="none" xmlns="http://www.w3.org/2000/svg">
<path d="M45.9972 24.851C46.0936 19.8009 43.6462 8.38852 33.0858 3.13907C22.5254 -2.11038 11.92 3.52506 7.93737 6.99896L5.1431 4.39354L2.73425 14.8152L12.7551 12.4993L10.1535 9.89389C11.5025 8.06044 16.0889 4.39354 23.6431 4.39354M28.6535 14.8152C24.9278 13.0461 16.4551 12.2291 13.5259 21.5701C12.5624 26.0089 14.7978 34.52 25.6665 33.4392C28.6535 33.2462 34.3962 29.8495 33.0858 20.1226M18.729 22.342L22.4868 26.7809L34.242 14.1398" stroke="white"/>
<path d="M1.00279 22.149C0.906434 27.1991 3.35383 38.6115 13.9142 43.8609C24.4746 49.1104 35.08 43.4749 39.0626 40.001L41.8569 42.6065L44.2657 32.1848L34.2449 34.5007L36.8465 37.1061C35.4975 38.9396 30.9111 42.6065 23.3569 42.6065" stroke="white"/>
</svg>
