<svg width="37" height="37" viewBox="0 0 37 37" fill="none" xmlns="http://www.w3.org/2000/svg">
<path d="M1.17938 1.4968C1.17938 1.4968 20.4016 -1.20011 19.0164 5.97328C18.2733 9.82146 11.7453 9.35351 12.4738 13.2045C12.9559 15.7526 18.5343 16.4413 18.5343 16.4413M18.5343 16.4413L25.1587 10.0365M18.5343 16.4413L10.8879 24.2235M12.4738 33.7273V30.9037H10.2012V28.7688L6.89547 28.2867M12.4738 33.7273L21.2522 25.0499M12.4738 33.7273L9.51248 34.6077M6.89547 28.2867L10.8879 24.2235M6.89547 28.2867L6.08381 31.3169M25.1587 10.0365L30.6576 15.7526M25.1587 10.0365L28.0791 7.2129M30.6576 15.7526L33.5488 12.8946M30.6576 15.7526L28.0791 18.3015M28.0791 7.2129L30.3053 5.06044C30.6885 4.68996 31.2996 4.70081 31.6694 5.08464L35.7799 9.35125C36.1459 9.73113 36.1385 10.3346 35.7634 10.7055L33.5488 12.8946M28.0791 7.2129L33.5488 12.8946M28.0791 18.3015C28.0791 18.3015 31.5104 19.424 32.1014 21.5376C33.2804 25.7539 21.2522 25.0499 21.2522 25.0499M28.0791 18.3015L21.2522 25.0499M3.45204 34.3472C3.45204 34.3472 0.215215 30.9037 1.17938 27.9424C2.43631 24.0818 10.8879 24.2235 10.8879 24.2235M6.08381 31.3169L4.82941 36L9.51248 34.6077M6.08381 31.3169C6.34748 31.4822 8.47945 33.5797 9.51248 34.6077" stroke="black"/>
</svg>
