<svg width="45" height="45" viewBox="0 0 45 45" fill="none" xmlns="http://www.w3.org/2000/svg">
<circle cx="22.5" cy="22.5" r="22" stroke="white"/>
<path d="M17.5312 40.2812V32.1875M26.8281 44V32.1875M26.8281 32.1875V28.0312H25.5156M26.8281 32.1875H17.5312M17.5312 32.1875V28.0312H18.625M18.625 28.0312H25.5156M18.625 28.0312C18.7808 27.2054 18.8674 25.9186 18.6831 24.5312M22.2344 9L16 19.2812C17.7034 20.634 18.4363 22.6728 18.6831 24.5312M22.2344 9V20.0469M22.2344 9L28.25 19.2812C27.588 19.9697 26.4454 21.7811 25.8693 24.5312M25.5156 28.0312C25.5156 26.7378 25.6522 25.5678 25.8693 24.5312M18.6831 24.5312H25.8693" stroke="white"/>
</svg>
