<svg width="34" height="37" viewBox="0 0 34 37" fill="none" xmlns="http://www.w3.org/2000/svg">
<path d="M33.7922 16.8961C33.7922 22.4436 31.1187 27.3666 26.9899 30.4471C25.9747 31.2045 26.9899 38.6197 26.1122 36.2059C25.2344 33.7922 21.6921 33.1389 20.6264 33.379C19.4263 33.6495 18.1779 33.7922 16.8961 33.7922C7.56464 33.7922 0 26.2276 0 16.8961C0 7.56464 7.56464 0 16.8961 0C26.2276 0 33.7922 7.56464 33.7922 16.8961Z" fill="white"/>
<circle cx="13.1658" cy="14.0422" r="3.07202" fill="#0F252A"/>
<circle cx="11.4103" cy="12.2868" r="1.31658" fill="white"/>
<circle cx="3.07202" cy="3.07202" r="3.07202" transform="matrix(-1 0 0 1 28.0879 10.5327)" fill="#0F252A"/>
<circle cx="1.31658" cy="1.31658" r="1.31658" transform="matrix(-1 0 0 1 28.0879 10.5327)" fill="white"/>
<path d="M15.7988 22.3823H24.1372C24.1372 22.3823 21.5962 24.1378 19.968 24.1378C18.3398 24.1378 15.7988 22.3823 15.7988 22.3823Z" fill="#0F252A"/>
</svg>
