<svg width="41" height="37" viewBox="0 0 41 37" fill="none" xmlns="http://www.w3.org/2000/svg">
<path d="M6.07812 7.5625H40.1406M6.07812 7.5625V6.46875M6.07812 7.5625V12.7969M40.1406 7.5625V29.034C40.1406 29.8177 39.5052 30.4531 38.7215 30.4531H34.8281M40.1406 7.5625V2.41916C40.1406 1.63538 39.5052 1 38.7215 1H7.49729C6.71351 1 6.07812 1.63538 6.07812 2.41916V6.46875M6.07812 6.46875H2.41916C1.63538 6.46875 1 7.10413 1 7.88791V12.7969M34.8281 30.4531H7.49729C6.71351 30.4531 6.07812 29.8177 6.07812 29.034V12.7969M34.8281 30.4531V34.5808C34.8281 35.3646 34.1927 36 33.409 36H2.41916C1.63538 36 1 35.3646 1 34.5808V12.7969M1 12.7969H6.07812M9.67188 4.28125H13.0312M15.0625 4.28125H18.5M24.9062 13.2656L21.3906 22.25M19.0469 15.375L13.0312 18.4219L19.0469 21.625M26.8594 15.375L32.6406 18.4219L26.8594 21.625" stroke="#0F252A"/>
</svg>
