<svg width="21" height="22" viewBox="0 0 21 22" fill="none" xmlns="http://www.w3.org/2000/svg">
<path fill-rule="evenodd" clip-rule="evenodd" d="M5.54718 2.54059C6.38315 2.47403 7.17682 2.14544 7.81518 1.60159C8.53625 0.986992 9.45272 0.649414 10.4002 0.649414C11.3476 0.649414 12.2641 0.986992 12.9852 1.60159C13.6235 2.14574 14.4171 2.47468 15.2532 2.54159C16.1976 2.6168 17.0843 3.026 17.7543 3.69581C18.4243 4.36562 18.8337 5.25222 18.9092 6.19659C18.9752 7.03259 19.3042 7.82659 19.8492 8.46459C20.4636 9.18576 20.801 10.1022 20.801 11.0496C20.801 11.997 20.4636 12.9134 19.8492 13.6346C19.305 14.2728 18.976 15.0665 18.9092 15.9026C18.8337 16.847 18.4243 17.7336 17.7543 18.4034C17.0843 19.0732 16.1976 19.4824 15.2532 19.5576C14.4171 19.6245 13.6235 19.9534 12.9852 20.4976C12.2641 21.1122 11.3476 21.4498 10.4002 21.4498C9.45272 21.4498 8.53625 21.1122 7.81518 20.4976C7.17694 19.9534 6.38327 19.6244 5.54718 19.5576C4.60296 19.4822 3.71649 19.0729 3.0467 18.4031C2.37691 17.7333 1.96761 16.8468 1.89218 15.9026C1.82534 15.0665 1.49639 14.2728 0.95218 13.6346C0.337578 12.9135 0 11.9971 0 11.0496C0 10.1021 0.337578 9.18567 0.95218 8.46459C1.49639 7.82636 1.82534 7.03268 1.89218 6.19659C1.96739 5.2522 2.37659 4.36549 3.0464 3.6955C3.71621 3.0255 4.60281 2.61606 5.54718 2.54059Z" fill="#254EDB"/>
<path d="M7.08789 7.73828L13.7111 14.3615" stroke="white" stroke-width="2.3" stroke-linecap="round"/>
<path d="M13.7109 7.73828L7.08777 14.3615" stroke="white" stroke-width="2.3" stroke-linecap="round"/>
</svg>
