<svg width="21" height="22" viewBox="0 0 21 22" fill="none" xmlns="http://www.w3.org/2000/svg">
<path fill-rule="evenodd" clip-rule="evenodd" d="M5.54718 2.13923C6.38315 2.07267 7.17682 1.74407 7.81518 1.20023C8.53625 0.585625 9.45272 0.248047 10.4002 0.248047C11.3476 0.248047 12.2641 0.585625 12.9852 1.20023C13.6235 1.74437 14.4171 2.07332 15.2532 2.14023C16.1976 2.21543 17.0843 2.62463 17.7543 3.29444C18.4243 3.96426 18.8337 4.85085 18.9092 5.79523C18.9752 6.63123 19.3042 7.42523 19.8492 8.06323C20.4636 8.78439 20.801 9.70082 20.801 10.6482C20.801 11.5956 20.4636 12.5121 19.8492 13.2332C19.305 13.8715 18.976 14.6651 18.9092 15.5012C18.8337 16.4456 18.4243 17.3322 17.7543 18.002C17.0843 18.6718 16.1976 19.081 15.2532 19.1562C14.4171 19.2231 13.6235 19.5521 12.9852 20.0962C12.2641 20.7108 11.3476 21.0484 10.4002 21.0484C9.45272 21.0484 8.53625 20.7108 7.81518 20.0962C7.17694 19.552 6.38327 19.2231 5.54718 19.1562C4.60296 19.0808 3.71649 18.6715 3.0467 18.0017C2.37691 17.3319 1.96761 16.4454 1.89218 15.5012C1.82534 14.6651 1.49639 13.8715 0.95218 13.2332C0.337578 12.5122 0 11.5957 0 10.6482C0 9.70076 0.337578 8.7843 0.95218 8.06323C1.49639 7.42499 1.82534 6.63131 1.89218 5.79523C1.96739 4.85083 2.37659 3.96412 3.0464 3.29413C3.71621 2.62414 4.60281 2.21469 5.54718 2.13923ZM15.2192 8.96723C15.3444 8.84757 15.4445 8.70409 15.5135 8.54522C15.5825 8.38635 15.6191 8.21529 15.621 8.04209C15.623 7.86889 15.5904 7.69704 15.525 7.53664C15.4596 7.37624 15.3629 7.23052 15.2404 7.10804C15.1179 6.98556 14.9722 6.88879 14.8118 6.82342C14.6514 6.75804 14.4795 6.72538 14.3063 6.72736C14.1331 6.72933 13.9621 6.7659 13.8032 6.83491C13.6443 6.90392 13.5008 7.00399 13.3812 7.12923L9.10118 11.4092L7.41918 9.72923C7.1736 9.49459 6.84594 9.36539 6.50632 9.36926C6.16669 9.37313 5.84206 9.50977 5.60189 9.74994C5.36172 9.99011 5.22509 10.3147 5.22122 10.6544C5.21735 10.994 5.34655 11.3216 5.58118 11.5672L8.18118 14.1672C8.42496 14.4109 8.75552 14.5477 9.10018 14.5477C9.44484 14.5477 9.7754 14.4109 10.0192 14.1672L15.2192 8.96723Z" fill="#9095B1"/>
</svg>
